<svg t="1770877216383" class="icon" viewBox="0 0 1024 1024" version="1.1" xmlns="http://www.w3.org/2000/svg" p-id="31197" width="200" height="200"><path d="M800 192a64 64 0 0 1 64 64v352a64 64 0 0 1-64 64h-256v96h260.352v64h-576v-64L480 767.968V672H224a64 64 0 0 1-64-64V256a64 64 0 0 1 64-64h576zM224 608h576v-134.56H445.76l-29.056-32-86.912 94.336-32.032-62.304L224 473.44V608zM800 256H224v153.44h33.696l49.536-79.68 42.208 95.456 63.68-74.624 52.032 58.88L800 409.44V256z" p-id="31198"></path></svg>