<svg t="1774408620043" class="icon" viewBox="0 0 1024 1024" version="1.1" xmlns="http://www.w3.org/2000/svg" p-id="16058" width="200" height="200">
  <path d="M102.76 435.53c15.45 0 28.06-9.62 33.79-25.74l23.83-62.92h124l23.84 62.18c6.18 16.58 18.92 26.48 34.11 26.48 19.29 0 35-16.93 35-37.73a47.7 47.7 0 0 0-3.17-16.15l-0.07-0.21L262 92.26c-6.61-18.69-20.48-29.41-38.11-29.41h-1.58c-10.15 0-28.64 3.79-38.38 29.12L72 381.47a44.18 44.18 0 0 0-3.41 17.26c-0.03 20.27 15.31 36.8 34.17 36.8z m85-162.25l34.53-90.78 34.53 90.78zM432.27 433.19H539.6c34.84 0 64.55-9.85 85.91-28.49 22.46-19.6 34.33-47.48 34.33-80.62v-0.94c0-26.16-8-59.18-41.67-82.3a94.29 94.29 0 0 0 9.09-11.42c11.4-16.88 17.19-37.31 17.19-60.72v-0.93c0-25-7.5-46.84-22.28-64.92l-0.37-0.44c-20-23.1-51-35.83-87.33-35.83h-102.2c-19.52 0-35.39 17.35-35.39 38.67v289.28c0 21.32 15.87 38.66 35.39 38.66z m108.12-73.12h-72.73v-75.25h67.21c53.4 0 53.4 27.09 53.4 36v0.93c0 33.34-30 38.32-47.88 38.32z m32.49-186.23c0 31.67-23.68 38.32-43.54 38.32h-61.68v-72.45h64.05c27.32 0 41.17 11.17 41.17 33.19zM828.06 438.79c46.14 0 82.26-16.74 117.1-54.28a38.79 38.79 0 0 0 10.64-26.84c0-20.45-16-37.73-35-37.73-9.25 0-18.25 4.3-24.8 11.82-21.67 23.41-41.15 33-67.15 33-23 0-44.55-11.17-60.55-31.46-17-21.57-26.39-51.18-26.39-83.38V249c0-32 9.31-61.38 26.21-82.71 16-20.12 37.52-31.2 60.73-31.2 24.69 0 44.08 9.3 64.83 31.11l1 1 1.12 0.88c7.15 5.64 14.77 8.49 22.64 8.49 19.4 0 35.79-17.49 35.79-38.19a41.44 41.44 0 0 0-11.94-28.84l-0.36-0.36C919.08 86.74 885.63 61 829.25 61c-44.94 0-86.1 20.33-115.9 57.24-28.24 35-43.8 81.75-43.8 131.66v0.93c0 50.28 15.58 97.08 43.86 131.79 29.52 36.22 70.24 56.17 114.65 56.17zM187.35 604.28h-0.77c-8.19 0-15.62 2.38-23.14 5l-44.75 17.57h-0.1c-14.61 5.82-23.33 18.27-23.33 33.3 0 19.15 14.82 34.72 33 34.72a38.81 38.81 0 0 0 13.5-2.56l10.59-3.9v227.23c0 20.58 15.68 37.32 35 37.32s35-16.74 35-37.32V641.16c-0.05-20.68-15.35-36.88-35-36.88zM549.68 879.63H467.9L505.49 842c23.77-23.35 42.16-43.08 54.6-63.46 13.09-21.43 19.18-43.19 19.18-68.49v-0.87c0-29.13-10.34-55.87-29.11-75.27-19-19.64-45.31-30.45-74.1-30.45-58.27 0-87.05 32.61-107.46 64.66a36.38 36.38 0 0 0-6.48 20.72c0 19.62 15.17 35.58 33.81 35.58a33.28 33.28 0 0 0 27.72-14.92c19.66-29.3 34.25-35.3 50.11-35.3 16.41 0 34.07 11.9 34.07 38 0 20.43-7.76 38.59-50.1 81.08l-91.51 91.22c-9 8.62-13.3 18.54-13.3 30.32 0 20.53 15.19 36 35.34 36h161.42c18.85 0 34.19-16 34.19-35.59s-15.34-35.6-34.19-35.6zM857.11 745.45l58.62-73.58c5.79-7.15 11.69-16.24 11.69-29.41 0-19.79-14.86-34.72-34.57-34.72H746.38c-18.85 0-34.19 16-34.19 35.59 0 19.38 15.34 35.15 34.19 35.15h77.83l-52.61 67.25c-7.11 8.22-10.71 17-10.71 26.18 0 19.14 15 34.72 33.42 34.72h9.58c16.58 0 55.16 3.75 55.16 38.45v0.86c0 23.26-15.54 38.88-38.67 38.88-22.87 0-40.47-9.5-57.07-30.82l-0.81-1a35 35 0 0 0-26.09-11.94c-19.28 0-35 16.55-35 36.89 0 12.29 6.79 21.58 9.55 24.84C738.54 937.61 776.22 956 820 956c62.55 0 109.72-47.87 109.72-111.35v-0.86c0-47.85-27.07-83.45-72.61-98.34zM927.52 480.29H96a30 30 0 0 0 0 60h831.52a30 30 0 1 0 0-60z" p-id="16059"></path>
  <path fill="none" stroke="currentColor" stroke-width="40" stroke-linecap="round" d="M1024 0 L0 1024"></path>
</svg>