<svg t="1774145696676" class="icon" viewBox="0 0 1024 1024" version="1.1" xmlns="http://www.w3.org/2000/svg" p-id="7827" width="200" height="200"><path d="M960 938.666667H320a21.333333 21.333333 0 0 1 0-42.666667h640a21.333333 21.333333 0 0 1 0 42.666667z m-810.666667 0H64a21.333333 21.333333 0 0 1 0-42.666667h85.333333a21.333333 21.333333 0 0 1 0 42.666667z m810.666667-384H320a21.333333 21.333333 0 0 1 0-42.666667h640a21.333333 21.333333 0 0 1 0 42.666667z m-810.666667 0H64a21.333333 21.333333 0 0 1 0-42.666667h85.333333a21.333333 21.333333 0 0 1 0 42.666667z m810.666667-384H320a21.333333 21.333333 0 0 1 0-42.666667h640a21.333333 21.333333 0 0 1 0 42.666667z m-810.666667 0H64a21.333333 21.333333 0 0 1 0-42.666667h85.333333a21.333333 21.333333 0 0 1 0 42.666667z" p-id="7828"></path></svg>