<svg t="1777369694667" class="icon" viewBox="0 0 1024 1024" version="1.1" xmlns="http://www.w3.org/2000/svg" p-id="9808" width="200" height="200"><path d="M73.158 103.286h678.48c33.008 0 59.944 35.067 59.944 78.062v33.493H13.214v-33.493c0-42.995 26.987-78.062 59.944-78.062z m757.866 723.505l-721.071 0.206C39.111 826.997 0 79.246 0 499.901v420.813h831.023v-93.923h0.001zM11.689 234.052h809.323s-11.892 186.009 87.285 355.499c99.154 169.442 115.067 202.524 115.067 202.524H174.371S79.155 639.209 35.501 436.579C-8.131 234.052 11.689 234.052 11.689 234.052z m581.759-116.03c-19.18 0-34.732 15.553-34.732 34.712 0 19.211 15.553 34.761 34.732 34.761 19.191 0 34.767-15.55 34.767-34.761-0.001-19.159-15.576-34.712-34.767-34.712z m-356.183 0c-19.211 0-34.79 15.553-34.79 34.712 0 19.211 15.579 34.761 34.79 34.761 19.16 0 34.71-15.55 34.71-34.761 0-19.159-15.55-34.712-34.71-34.712z" p-id="9809"></path></svg>