<svg t="1770876779983" class="icon" viewBox="0 0 1024 1024" version="1.1" xmlns="http://www.w3.org/2000/svg" p-id="26127" width="200" height="200"><path d="M291.6864 865.7408v-57.6h-42.5984c-13.9776-0.6656-23.8592-8.6016-29.7984-23.9104a128 128 0 0 1-8.6016-48.64v-111.7184a143.5136 143.5136 0 0 0-8.0896-51.6608 99.3792 99.3792 0 0 0-19.968-34.048 79.0016 79.0016 0 0 0-21.8112-20.0704 72.2944 72.2944 0 0 0-18.3808-7.2704v-1.6896c10.0352-2.304 23.3984-12.1344 40.1408-29.44 8.192-8.8064 14.9504-20.1728 19.968-34.1504 5.4784-12.8 8.0896-28.7744 8.0896-48.128v-112.64c0-19.3024 2.8672-36.1984 8.6528-50.688 5.9392-13.9264 15.872-21.1456 29.7984-21.76h42.5984V154.7264h-74.24c-23.2448 0-43.008 8.3968-59.1872 25.1904-16.9984 17.0496-25.9072 40.96-26.4704 71.68v124.928c0 28.416-5.5296 52.8384-16.5888 73.2672a53.76 53.76 0 0 1-20.8384 22.6304c-8.96 6.144-19.5584 9.216-30.3616 8.96v57.6c22.784 0.6144 39.7824 11.1104 51.2 31.488 11.0592 19.6608 16.64 44.6976 16.64 75.1104v123.2384c0.6144 30.1056 9.3696 53.5552 26.4192 70.4 16.2304 16.9472 35.8912 25.8048 59.2896 26.4192h74.24l-0.1024 0.1024z m219.8528-236.6976l94.72 147.5072h106.1888l-151.04-225.9456 144.9984-216.6784h-106.5984L511.5392 477.184 423.7312 333.9264H317.1328l144.9472 216.6784-151.296 225.8944h106.496l94.2592-147.4048z m355.9936 210.176c15.5648-16.8448 23.6544-40.192 24.32-70.4v-124.928c0-29.9008 5.9904-54.5792 18.2272-74.24 11.7248-19.9168 28.3648-30.0544 49.92-30.72V481.3312c-21.5552-1.6384-38.1952-12.3904-49.92-32.3584-12.1344-19.8656-18.2784-44.6464-18.2784-74.1888V251.648c-0.6144-30.72-8.704-54.5792-24.32-71.68a82.6368 82.6368 0 0 0-61.44-25.1392h-74.24v57.6h42.752c14.1824 0.5632 24.1664 7.7824 29.7984 21.76 5.9904 14.4384 8.96 31.3344 8.96 50.7392v111.6672c0 19.9168 3.2256 36.8128 9.4208 50.7392 5.4272 13.9776 12.0832 25.2928 20.0192 34.1504 8.192 8.8064 15.7184 15.1552 22.5792 19.2 7.168 3.9424 12.3392 6.8096 15.8208 8.4992v1.7408c-8.4992 1.3824-21.2992 10.752-38.4 28.16-8.704 10.0352-15.4624 21.5552-20.0192 34.048a121.344 121.344 0 0 0-9.3696 49.92v112.64c0 18.432-2.9696 34.6112-8.96 48.5376-5.7344 15.36-15.616 23.296-29.9008 23.9104h-42.5984v57.6h74.24a85.4016 85.4016 0 0 0 61.3888-26.5216z" p-id="26128"></path></svg>