<svg t="1778491447265" class="icon" viewBox="0 0 1024 1024" version="1.1" xmlns="http://www.w3.org/2000/svg" p-id="15091" width="200" height="200"><path d="M209.474556 841.311226l325.502631-98.764677 327.527882 90.348639L511.945598 1016.112778 209.474556 841.311226z" fill="#C0C0C0" opacity=".321" p-id="15092"></path><path d="M520.766685 517.968861V350.300689l-388.285372 48.470976 388.285372 119.197196z" fill="#9296A6" opacity=".805" p-id="15093"></path><path d="M520.766685 350.300689l370.631946 29.782422-363.228533 279.079408-7.403413-308.86183z" fill="#9296A6" opacity=".805" p-id="15094"></path><path d="M258.845643 72.312666h363.431058c10.756326 0 16.156992 5.591939 16.156992 16.798321v546.772412c0 11.217633-5.400666 16.820824-16.156992 16.820824H258.845643c-10.778829 0-16.156992-5.603191-16.156992-16.820824V89.133489c0-11.228884 5.378163-16.843327 16.156992-16.843326v0.022503z" fill="#B7C8EC" opacity=".805" p-id="15095"></path><path d="M612.04919 150.431047a12.117744 12.117744 0 0 1-12.038985 12.185252l12.038985-12.185252z m-12.038985 12.185252h-0.022503 0.011252z m-0.022503 0H294.332518h305.655184z m-305.655184 0a12.117744 12.117744 0 0 1-12.061487-12.174001l12.061487 12.174001z m-12.061487-12.174001v-0.011251 0.022503z m0-0.011251c0-6.717078 5.389414-12.185252 12.061487-12.185253l-12.061487 12.185253z m12.061487-12.185253h305.655184-305.655184z" fill="#FFFFFF" opacity=".805" p-id="15096"></path><path d="M430.328035 177.828175h363.431058c10.767578 0 16.156992 5.411917 16.156992 16.235751v495.173551c0 10.823834-5.400666 16.235752-16.156992 16.235752h-363.419807c-10.778829 0-16.156992-5.43442-16.156992-16.247004v-495.17355c0-10.823834 5.378163-16.235752 16.145741-16.235752v0.011252z" fill="#ECF2FF" opacity=".805" p-id="15097"></path><path d="M760.218708 343.099801H454.563523c-8.03349 0-12.061487 4.163013-12.061487 12.500291 0 8.326027 4.027997 12.48904 12.061487 12.48904h305.655185c8.044742 0 12.061487-4.163013 12.061487-12.48904 0-8.326027-4.016745-12.48904-12.061487-12.489039z m0 58.31594H454.563523c-8.03349 0-12.061487 4.163013-12.061487 12.500291 0 8.326027 4.027997 12.500291 12.061487 12.500291h305.655185c8.044742 0 12.061487-4.163013 12.061487-12.489039 0-8.348529-4.016745-12.511543-12.061487-12.511543z" fill="#C6D3F0" opacity=".805" p-id="15098"></path><path d="M444.437275 213.900122h326.290228v90.011098H444.437275z" fill="#C6D3F0" opacity=".805" p-id="15099"></path><path d="M520.766685 460.147982l7.324653 454.927339L887.74193 754.72055l3.656701-369.124259-370.620694 74.551691z" fill="#CDCFD7" opacity=".805" p-id="15100"></path><path d="M139.895977 403.260968l385.990089 48.043424 3.712958 454.949841L132.470062 732.431552l7.414664-329.181835z" fill="#ADAFB8" opacity=".805" p-id="15101"></path><path d="M129.04964 403.260968L61.89011 551.509246l399.165463 103.670282 59.711112-200.162178L129.060891 403.238466zM529.587773 457.436398l365.895111-71.840107L962.001085 529.276505 607.244847 676.804694l-77.657074-219.368296z" fill="#E0E3EB" opacity=".805" p-id="15102"></path><path d="M819.963574 134.600345l-27.802178 10.700069a4.084254 4.084254 0 0 1-5.276901-2.295283 4.005494 4.005494 0 0 1-0.090011-2.666579l7.887223-25.079342c-10.576304-11.892716-16.730813-26.384503-16.730813-42.035182 0-40.381229 41.20258-73.100263 92.036347-73.100263C920.798506 0.123765 962.001085 32.842799 962.001085 73.224028c0 40.369977-41.20258 73.100263-92.036347 73.100262a109.475997 109.475997 0 0 1-50.001164-11.723945z" fill="#F7B500" p-id="15103"></path><path d="M828.683399 69.038512h19.104855v19.689927H828.672147v-19.689927z m33.754161 0h19.104856v19.689927H862.426309v-19.689927z m52.859017 0H896.18047v19.689927h19.104856v-19.689927z" fill="#FFFFFF" p-id="15104"></path></svg>