<svg t="1774409867915" class="icon" viewBox="0 0 1024 1024" version="1.1" xmlns="http://www.w3.org/2000/svg" p-id="2700" width="200" height="200"><path d="M290.133333 758.869333a34.133333 34.133333 0 0 1-25.6-11.946666L86.357333 538.112a34.133333 34.133333 0 0 1 0-44.202667l177.493334-208.725333A34.133333 34.133333 0 1 1 315.733333 329.386667L157.098667 516.010667 315.733333 702.634667a34.133333 34.133333 0 0 1-25.6 56.234666zM733.866667 758.869333a34.133333 34.133333 0 0 1-25.6-56.234666l158.634666-186.624L708.266667 329.386667a34.133333 34.133333 0 1 1 51.968-44.202667l177.493333 208.725333a34.133333 34.133333 0 0 1 0 44.202667L760.149333 746.922667a34.133333 34.133333 0 0 1-26.282666 11.946666zM401.066667 806.144a34.133333 34.133333 0 0 1-31.317334-47.530667L591.189333 238.933333a34.133333 34.133333 0 1 1 62.72 26.794667L432.042667 785.066667A34.133333 34.133333 0 0 1 401.066667 806.144z" p-id="2701"></path></svg>