<svg t="1774145944267" class="icon" viewBox="0 0 1024 1024" version="1.1" xmlns="http://www.w3.org/2000/svg" p-id="8139" width="200" height="200"><path d="M960 938.666667H448a21.333333 21.333333 0 0 1 0-42.666667h512a21.333333 21.333333 0 0 1 0 42.666667z m0-256h-85.333333a21.333333 21.333333 0 0 1 0-42.666667h85.333333a21.333333 21.333333 0 0 1 0 42.666667z m-213.333333 0H448a21.333333 21.333333 0 0 1 0-42.666667h298.666667a21.333333 21.333333 0 0 1 0 42.666667z m213.333333-298.666667H448a21.333333 21.333333 0 0 1 0-42.666667h512a21.333333 21.333333 0 0 1 0 42.666667z m0-256H448a21.333333 21.333333 0 0 1 0-42.666667h512a21.333333 21.333333 0 0 1 0 42.666667zM245.333333 981.333333H96a53.393333 53.393333 0 0 1-53.333333-53.333333v-149.333333a53.393333 53.393333 0 0 1 53.333333-53.333334h149.333333a53.393333 53.393333 0 0 1 53.333334 53.333334v149.333333a53.393333 53.393333 0 0 1-53.333334 53.333333z m-149.333333-213.333333a10.666667 10.666667 0 0 0-10.666667 10.666667v149.333333a10.666667 10.666667 0 0 0 10.666667 10.666667h149.333333a10.666667 10.666667 0 0 0 10.666667-10.666667v-149.333333a10.666667 10.666667 0 0 0-10.666667-10.666667z m149.333333-128H96a53.393333 53.393333 0 0 1-53.333333-53.333333V437.333333a53.393333 53.393333 0 0 1 53.333333-53.333333h149.333333a53.393333 53.393333 0 0 1 53.333334 53.333333v149.333334a53.393333 53.393333 0 0 1-53.333334 53.333333zM96 426.666667a10.666667 10.666667 0 0 0-10.666667 10.666666v149.333334a10.666667 10.666667 0 0 0 10.666667 10.666666h149.333333a10.666667 10.666667 0 0 0 10.666667-10.666666V437.333333a10.666667 10.666667 0 0 0-10.666667-10.666666z m149.333333-128H96a53.393333 53.393333 0 0 1-53.333333-53.333334V96a53.393333 53.393333 0 0 1 53.333333-53.333333h149.333333a53.393333 53.393333 0 0 1 53.333334 53.333333v149.333333a53.393333 53.393333 0 0 1-53.333334 53.333334zM96 85.333333a10.666667 10.666667 0 0 0-10.666667 10.666667v149.333333a10.666667 10.666667 0 0 0 10.666667 10.666667h149.333333a10.666667 10.666667 0 0 0 10.666667-10.666667V96a10.666667 10.666667 0 0 0-10.666667-10.666667z"  p-id="8140"></path></svg>