<svg t="1767151289220" class="icon" viewBox="0 0 1501 1024" version="1.1" xmlns="http://www.w3.org/2000/svg" p-id="4738" xmlns:xlink="http://www.w3.org/1999/xlink" width="293.1640625" height="200"><path d="M80.032765 601.119454a709.810239 421.30785 0 1 0 1419.620477 0 709.810239 421.30785 0 1 0-1419.620477 0Z" fill="#E7F4FE" p-id="4739"></path><path d="M1165.01843 717.324232V710.683959c0-5.417065 4.368601-9.785666 9.785666-9.785665h162.337201c5.417065 0 9.785666 4.368601 9.785665 9.785665v6.815017c0 5.417065-4.368601 9.610922-9.610921 9.610922H1265.845734c-5.417065 0-9.785666 4.368601-9.785666 9.785665v7.164505c0 5.417065 4.368601 9.785666 9.785666 9.785666h13.630034c5.242321 0 9.610922 4.193857 9.785665 9.610921l0.174744 11.533106c0 5.417065-4.368601 9.785666-9.785665 9.785666H1139.680546c-5.417065 0-9.785666-4.368601-9.785665-9.785666v-11.183618c0-5.417065 4.368601-9.610922 9.610921-9.785665l63.606826-0.349488c5.242321 0 9.610922-4.193857 9.610921-9.610922l0.174745-7.688737c0.174744-5.417065-4.368601-9.96041-9.785666-9.960409l-28.133788 0.349488c-5.417065 0.349488-9.96041-4.019113-9.96041-9.436178z" fill="#96CEF7" p-id="4740"></path><path d="M1381.52628 715.402048m-14.32901 0a14.32901 14.32901 0 1 0 28.65802 0 14.32901 14.32901 0 1 0-28.65802 0Z" fill="#96CEF7" p-id="4741"></path><path d="M276.619795 456.081911V448.21843c0-6.465529-5.242321-11.70785-11.70785-11.70785H70.421843c-6.465529 0-11.70785 5.242321-11.70785 11.70785v8.038225c0 6.465529 5.242321 11.533106 11.533106 11.533106h85.624573c6.465529 0 11.70785 5.242321 11.70785 11.70785v8.562457c0 6.465529-5.242321 11.70785-11.70785 11.70785h-16.251194c-6.290785 0-11.533106 5.067577-11.70785 11.358362l-0.174744 13.804778c-0.174744 6.465529 5.067577 11.882594 11.70785 11.882594h167.754266c6.465529 0 11.70785-5.242321 11.70785-11.70785v-13.280546c0-6.465529-5.242321-11.533106-11.533106-11.70785l-76.188396-0.524232c-6.290785 0-11.358362-5.067577-11.533106-11.358362l-0.174744-9.086689c-0.174744-6.465529 5.242321-11.882594 11.70785-11.882594l33.725597 0.349488c6.290785 0.174744 11.70785-5.067577 11.70785-11.533106z" fill="#96CEF7" p-id="4742"></path><path d="M17.299659 453.635495m-17.124915 0a17.124915 17.124915 0 1 0 34.249829 0 17.124915 17.124915 0 1 0-34.249829 0Z" fill="#96CEF7" p-id="4743"></path><path d="M897.31058 619.991809s-3.494881 26.386348 19.396587 38.094198c-9.610922 16.775427-21.668259 32.152901-35.473037 45.608191-35.123549-62.558362-70.946075-25.337884-70.946075-25.337884s-22.017747-46.307167-54.170649-38.268942c31.803413-20.794539 64.305802-44.210239 95.934471-68.150171 8.562457 47.180887 45.258703 48.054608 45.258703 48.054608z" fill="#96CEF7" p-id="4744"></path><path d="M916.881911 658.086007c-22.891468-11.70785-19.571331-38.094198-19.571331-38.094198s-36.696246-1.048464-45.083959-48.229352c29.182253-22.192491 57.665529-45.083959 84.401365-67.27645 4.543345 16.775427 6.989761 34.424573 6.815017 52.772696 0 36.87099-9.610922 71.120819-26.561092 100.827304zM881.408874 703.694198c-36.696246 35.473038-86.498294 57.316041-141.542662 57.316041-4.892833 0-9.610922-0.174744-14.329011-0.524232 0 0-15.726962-28.133788 6.465529-44.035495 0 0-29.007509-30.580205 0.873721-61.509898 7.688737-4.718089 15.552218-9.785666 23.240955-14.853242 32.152901-8.038225 54.170648 38.268942 54.170649 38.268942s35.99727-37.220478 71.120819 25.337884z" fill="#309EED" p-id="4745"></path><path d="M936.627986 504.660751c-26.735836 22.192491-55.219113 45.083959-84.401365 67.27645-0.174744-0.87372-0.349488-1.74744-0.349488-2.62116-7.339249-49.802048 42.288055-68.849147 42.288055-68.849147s-8.737201-36.346758 33.201365-22.367235c3.669625 8.387713 6.815017 17.299659 9.261433 26.561092z" fill="#309EED" p-id="4746"></path><path d="M851.702389 569.141297c0.174744 0.87372 0.349488 1.74744 0.349488 2.62116-31.628669 24.114676-64.131058 47.355631-95.934471 68.150171-5.242321 1.223208-10.659386 4.019113-16.425938 8.562457-2.62116 2.096928-4.892833 4.193857-6.989762 6.290785-43.686007 27.085324-85.624573 48.57884-122.146075 59.937202-43.336519-35.473038-71.645051-88.595222-74.266211-148.35768v-0.174744c0.698976-18.522867 3.494881-36.696246 8.212969-53.995904 8.387713 1.922184 30.929693 6.465529 41.064846-0.87372 12.756314-9.086689-1.223208 90.517406 53.471673 90.517406s58.888737-91.216382 58.888737-91.216382 46.656655 2.096928 23.240956-50.850512c0 0 31.104437 2.62116 39.49215-28.658021 5.941297-21.843003-3.844369-44.734471-22.367236-57.840273-7.339249-5.242321-16.950171-11.183618-29.53174-17.649146 9.96041-1.572696 20.270307-2.271672 30.754949-2.271673 84.226621 0 156.570648 51.2 187.500341 124.06826-41.938567-13.979522-33.201365 22.367235-33.201365 22.367235s-49.45256 19.571331-42.113311 69.373379zM800.327645 557.433447s13.280546-11.533106 10.135154-22.367235c-3.145392-10.83413-17.998635 1.223208-17.998635 1.223208s-1.048464-32.677133-29.706485-21.144028c-28.65802 11.70785-9.610922 42.288055-9.610921 42.288055 22.367235 24.114676 47.180887 0 47.180887 0z" fill="#96CEF7" p-id="4747"></path><path d="M810.462799 535.066212c3.145392 10.83413-10.135154 22.367235-10.135154 22.367235s-24.988396 24.114676-47.180887 0c0 0-19.047099-30.580205 9.610921-42.288055 28.65802-11.70785 29.706485 21.144027 29.706485 21.144028s14.853242-12.057338 17.998635-1.223208z" fill="#309EED" p-id="4748"></path><path d="M610.905119 714.877816c36.521502-11.358362 78.460068-32.851877 122.146076-59.937202-29.881229 30.929693-0.87372 61.509898-0.873721 61.509898-22.192491 15.901706-6.465529 44.035495-6.465529 44.035495-43.511263-2.970648-83.178157-19.571331-114.806826-45.608191z" fill="#96CEF7" p-id="4749"></path><path d="M761.010239 431.443003c-8.562457 31.279181-39.49215 28.65802-39.49215 28.658021 23.240956 52.94744-23.240956 50.850512-23.240956 50.850512s-4.193857 91.216382-58.888737 91.216382c-54.694881 0-40.715358-99.604096-53.471672-90.517406-10.309898 7.339249-32.851877 2.795904-41.064847 0.87372 11.70785-43.860751 35.298294-82.653925 67.101707-113.23413 27.434812-22.192491 60.810922-37.395222 97.332423-42.98703 12.58157 6.465529 22.192491 12.406826 29.53174 17.649146 18.348123 12.756314 28.133788 35.647782 22.192492 57.490785z" fill="#309EED" p-id="4750"></path><path d="M1372.43959 200.955631c31.104437 46.307167 42.987031 86.148805 26.910581 102.050512-23.939932 23.939932-101.875768-15.377474-174.045052-87.896245-30.929693-31.104437-55.743345-63.082594-72.169283-91.565871-1.74744-2.970648-3.320137-5.766553-4.718089-8.562457-3.145392-5.766553-5.766553-11.358362-8.038225-16.775427-11.183618-26.211604-12.756314-47.006143-2.096928-57.490785 14.853242-14.853242 50.151536-5.417065 92.090102 20.969284 26.03686 16.251195 54.345392 39.142662 81.954949 66.926962 16.251195 16.425939 30.929693 33.026621 43.511263 49.277816 5.941297 7.863481 11.533106 15.552218 16.600682 23.066211z m-40.191126 39.142663c9.261433-9.261433-13.45529-47.006143-50.850512-84.401366-37.220478-37.395222-74.965188-60.286689-84.226621-51.2-9.261433 9.086689 13.630034 47.006143 50.850512 84.401366s75.139932 60.461433 84.226621 51.2z" fill="#AFD7A3" p-id="4751"></path><path d="M1382.749488 116.72901c9.086689 22.891468 12.406826 53.646416-10.484642 84.226621-5.067577-7.513993-10.659386-15.20273-16.775426-23.066211C1391.836177 154.648464 1379.77884 110.088737 1379.77884 110.088737c1.223208 2.096928 2.096928 4.368601 2.970648 6.640273zM1281.572696 155.871672c37.220478 37.395222 60.111945 75.139932 50.850512 84.401366-9.261433 9.086689-46.831399-13.804778-84.226621-51.2-37.395222-37.395222-60.111945-75.139932-50.850512-84.401366 9.261433-9.261433 46.831399 13.630034 84.226621 51.2z" fill="#E7B976" p-id="4752"></path><path d="M1379.77884 110.088737s11.882594 44.559727-24.114676 67.800683c-12.58157-16.251195-27.085324-32.851877-43.511263-49.277816-27.609556-27.7843-56.092833-50.501024-81.954949-66.926962 0 0 37.220478-34.424573 102.050512-0.349488 6.116041 3.145392 11.882594 6.989761 17.299659 11.183617 4.019113 3.145392 7.863481 6.640273 11.358362 10.309898 7.688737 8.038225 14.154266 17.124915 18.872355 27.260068z m-58.189762-34.249829c1.223208-2.096928 0.698976-4.718089-1.397952-6.116041-2.096928-1.223208-4.892833-0.698976-6.116041 1.397952-1.223208 2.096928-0.698976 4.892833 1.397953 6.116041 2.096928 1.223208 4.892833 0.698976 6.11604-1.397952z m-20.794539-1.74744c2.62116 0.174744 5.067577-1.223208 5.766553-3.669625 0.524232-1.922184-0.174744-4.193857-4.368601-6.116041-7.164505-3.494881-20.619795-2.62116-26.211604-2.096928-2.271672 0.174744-4.543345 1.048464-6.116041 2.446416-5.417065 4.543345 0 10.135154 6.290785 8.911945 5.766553-1.397952 18.872355-0.174744 24.638908 0.524233z" fill="#FED37C" p-id="4753"></path><path d="M1397.952218 38.094198c2.096928 1.223208-37.045734 44.734471-37.045733 44.734471-3.494881-3.669625-7.339249-7.164505-11.358362-10.309898 0 0.174744 46.307167-35.647782 48.404095-34.424573z" fill="#AFD7A3" p-id="4754"></path><path d="M1320.191126 69.722867c2.096928 1.223208 2.795904 4.019113 1.397952 6.116041-1.223208 2.096928-4.019113 2.795904-6.11604 1.397952-2.096928-1.223208-2.795904-4.019113-1.397953-6.116041 1.223208-2.096928 4.019113-2.62116 6.116041-1.397952zM1306.561092 70.247099c-0.698976 2.446416-3.145392 4.019113-5.766553 3.669625-5.766553-0.698976-18.872355-1.922184-24.638908-0.698977-6.290785 1.397952-11.70785-4.193857-6.290785-8.911945 1.74744-1.572696 3.844369-2.271672 6.116041-2.446416 5.591809-0.524232 19.047099-1.397952 26.211604 2.096928 4.193857 2.271672 4.892833 4.543345 4.368601 6.290785z" fill="#FFFFFF" p-id="4755"></path><path d="M1097.217747 315.587713c-0.349488 0.174744-0.698976 0.174744-1.048464 0.349488-1.922184-3.320137-3.844369-6.465529-5.766553-9.785665 2.096928 3.145392 4.543345 6.290785 6.815017 9.436177z" fill="#D8D7D7" p-id="4756"></path></svg>