<svg t="1767151272479" class="icon" viewBox="0 0 1796 1024" version="1.1" xmlns="http://www.w3.org/2000/svg" p-id="4046" xmlns:xlink="http://www.w3.org/1999/xlink" width="350.78125" height="200"><path d="M1305.6 678.624561c-1.796491-13.473684-13.922807-22.905263-27.845614-22.905263H1243.621053c-4.491228 0-8.533333-3.592982-8.533334-8.533333 0-4.491228 3.592982-8.533333 8.533334-8.533333h8.982456c13.024561 0 24.701754-9.431579 26.049123-22.007018a25.150877 25.150877 0 0 0-25.150878-28.294737h-163.929824c-13.024561 0-24.701754 9.431579-26.049123 22.007018a25.150877 25.150877 0 0 0 25.150877 28.294737h11.677193c4.042105 0.898246 6.736842 4.042105 6.736842 8.08421s-2.694737 7.635088-6.736842 8.084211h-79.494737c-13.473684 0-25.6 9.431579-27.845614 22.905263-2.694737 16.617544 10.329825 30.989474 26.498246 30.989473h259.592982c15.719298 0.898246 28.74386-13.473684 26.498246-30.091228z" fill="#CDDFF1" p-id="4047"></path><path d="M590.596491 1015.017544h628.77193-628.77193zM590.596491 1006.933333h628.77193v8.084211h-628.77193z" fill="#FFFFFF" p-id="4048"></path><path d="M590.596491 999.298246h628.77193v8.08421h-628.77193z" fill="#FEFFFF" p-id="4049"></path><path d="M590.596491 991.214035h628.77193v8.084211h-628.77193z" fill="#FDFEFF" p-id="4050"></path><path d="M590.596491 983.578947h628.77193v8.084211h-628.77193z" fill="#FCFEFF" p-id="4051"></path><path d="M590.596491 975.494737h628.77193v8.08421h-628.77193z" fill="#FBFEFF" p-id="4052"></path><path d="M590.596491 967.859649h628.77193v8.084211h-628.77193z" fill="#FAFDFF" p-id="4053"></path><path d="M590.596491 959.775439h628.77193v8.08421h-628.77193z" fill="#F9FDFF" p-id="4054"></path><path d="M590.596491 952.140351h628.77193v8.08421h-628.77193z" fill="#F8FDFF" p-id="4055"></path><path d="M590.596491 944.05614h628.77193v8.084211h-628.77193z" fill="#F7FDFF" p-id="4056"></path><path d="M590.596491 936.421053h628.77193v8.08421h-628.77193z" fill="#F6FCFF" p-id="4057"></path><path d="M590.596491 928.336842h628.77193v8.084211h-628.77193z" fill="#F5FCFF" p-id="4058"></path><path d="M590.596491 920.701754h628.77193v8.084211h-628.77193z" fill="#F4FCFF" p-id="4059"></path><path d="M590.596491 912.617544h628.77193v8.08421h-628.77193z" fill="#F3FBFF" p-id="4060"></path><path d="M590.596491 904.982456h628.77193v8.084211h-628.77193z" fill="#F2FBFF" p-id="4061"></path><path d="M590.596491 896.898246h628.77193v8.08421h-628.77193z" fill="#F1FBFF" p-id="4062"></path><path d="M590.596491 889.263158h628.77193v8.08421h-628.77193z" fill="#F0FAFF" p-id="4063"></path><path d="M590.596491 881.178947h628.77193v8.084211h-628.77193z" fill="#EFFAFF" p-id="4064"></path><path d="M590.596491 873.54386h628.77193v8.08421h-628.77193z" fill="#EEFAFF" p-id="4065"></path><path d="M590.596491 865.459649h628.77193v8.084211h-628.77193z" fill="#EDF9FF" p-id="4066"></path><path d="M590.596491 857.824561h628.77193v8.084211h-628.77193z" fill="#ECF9FF" p-id="4067"></path><path d="M590.596491 849.740351h628.77193v8.08421h-628.77193z" fill="#EBF9FF" p-id="4068"></path><path d="M590.596491 841.65614h628.77193v8.084211h-628.77193z" fill="#EAF8FF" p-id="4069"></path><path d="M590.596491 834.021053h628.77193v8.08421h-628.77193z" fill="#E9F8FF" p-id="4070"></path><path d="M590.596491 825.936842h628.77193v8.084211h-628.77193z" fill="#E8F8FF" p-id="4071"></path><path d="M590.596491 818.301754h628.77193v8.084211h-628.77193z" fill="#E7F8FF" p-id="4072"></path><path d="M590.596491 810.217544h628.77193v8.08421h-628.77193z" fill="#E6F7FF" p-id="4073"></path><path d="M590.596491 802.582456h628.77193v8.084211h-628.77193z" fill="#E5F7FF" p-id="4074"></path><path d="M590.596491 794.498246h628.77193v8.08421h-628.77193z" fill="#E4F7FF" p-id="4075"></path><path d="M590.596491 786.863158h628.77193v8.08421h-628.77193z" fill="#E3F6FF" p-id="4076"></path><path d="M590.596491 778.778947h628.77193v8.084211h-628.77193z" fill="#E2F6FF" p-id="4077"></path><path d="M590.596491 771.14386h628.77193v8.08421h-628.77193z" fill="#E1F6FF" p-id="4078"></path><path d="M590.596491 763.059649h628.77193v8.084211h-628.77193z" fill="#E0F5FF" p-id="4079"></path><path d="M590.596491 755.424561h628.77193v8.084211h-628.77193z" fill="#DFF5FF" p-id="4080"></path><path d="M590.596491 747.340351h628.77193v8.08421h-628.77193z" fill="#DEF5FF" p-id="4081"></path><path d="M590.596491 739.705263h628.77193v8.084211h-628.77193z" fill="#DDF4FF" p-id="4082"></path><path d="M590.596491 731.621053h628.77193v8.08421h-628.77193z" fill="#DCF4FF" p-id="4083"></path><path d="M590.596491 723.985965h628.77193v8.08421h-628.77193z" fill="#DBF4FF" p-id="4084"></path><path d="M590.596491 715.901754h628.77193v8.084211h-628.77193z" fill="#DAF3FF" p-id="4085"></path><path d="M590.596491 708.266667h628.77193v8.08421h-628.77193z" fill="#D9F3FF" p-id="4086"></path><path d="M590.596491 700.182456h628.77193v8.084211h-628.77193z" fill="#D8F3FF" p-id="4087"></path><path d="M590.596491 692.547368h628.77193v8.084211h-628.77193z" fill="#D7F3FF" p-id="4088"></path><path d="M590.596491 684.463158h628.77193v8.08421h-628.77193z" fill="#D5F2FF" p-id="4089"></path><path d="M590.596491 676.378947h628.77193v8.084211h-628.77193z" fill="#D4F2FF" p-id="4090"></path><path d="M590.596491 668.74386h628.77193v8.08421h-628.77193z" fill="#D3F2FF" p-id="4091"></path><path d="M590.596491 660.659649h628.77193v8.084211h-628.77193z" fill="#D2F1FF" p-id="4092"></path><path d="M590.596491 653.024561h628.77193v8.084211h-628.77193z" fill="#D1F1FF" p-id="4093"></path><path d="M590.596491 644.940351h628.77193v8.08421h-628.77193z" fill="#D0F1FF" p-id="4094"></path><path d="M590.596491 637.305263h628.77193v8.084211h-628.77193z" fill="#CFF0FF" p-id="4095"></path><path d="M590.596491 629.221053h628.77193v8.08421h-628.77193z" fill="#CEF0FF" p-id="4096"></path><path d="M590.596491 621.585965h628.77193v8.08421h-628.77193z" fill="#CDF0FF" p-id="4097"></path><path d="M590.596491 613.501754h628.77193v8.084211h-628.77193z" fill="#CCEFFF" p-id="4098"></path><path d="M590.596491 605.866667h628.77193v8.08421h-628.77193z" fill="#CBEFFF" p-id="4099"></path><path d="M590.596491 597.782456h628.77193v8.084211h-628.77193z" fill="#CAEFFF" p-id="4100"></path><path d="M590.596491 590.147368h628.77193v8.084211h-628.77193z" fill="#C9EEFF" p-id="4101"></path><path d="M590.596491 582.063158h628.77193v8.08421h-628.77193z" fill="#C8EEFF" p-id="4102"></path><path d="M590.596491 574.42807h628.77193v8.084211h-628.77193z" fill="#C7EEFF" p-id="4103"></path><path d="M590.596491 566.34386h628.77193v8.08421h-628.77193z" fill="#C6EEFF" p-id="4104"></path><path d="M590.596491 558.708772h628.77193v8.08421h-628.77193z" fill="#C5EDFF" p-id="4105"></path><path d="M590.596491 550.624561h628.77193v8.084211h-628.77193z" fill="#C4EDFF" p-id="4106"></path><path d="M590.596491 542.989474h628.77193v8.08421h-628.77193z" fill="#C3EDFF" p-id="4107"></path><path d="M590.596491 534.905263h628.77193v8.084211h-628.77193z" fill="#C2ECFF" p-id="4108"></path><path d="M590.596491 527.270175h628.77193v8.084211h-628.77193z" fill="#C1ECFF" p-id="4109"></path><path d="M590.596491 519.185965h628.77193v8.08421h-628.77193z" fill="#C0ECFF" p-id="4110"></path><path d="M590.596491 511.101754h628.77193v8.084211h-628.77193z" fill="#BFEBFF" p-id="4111"></path><path d="M590.596491 503.466667h628.77193v8.08421h-628.77193z" fill="#BEEBFF" p-id="4112"></path><path d="M590.596491 495.382456h628.77193v8.084211h-628.77193z" fill="#BDEBFF" p-id="4113"></path><path d="M590.596491 487.747368h628.77193v8.084211h-628.77193z" fill="#BCEAFF" p-id="4114"></path><path d="M590.596491 479.663158h628.77193v8.08421h-628.77193z" fill="#BBEAFF" p-id="4115"></path><path d="M590.596491 472.02807h628.77193v8.084211h-628.77193z" fill="#BAEAFF" p-id="4116"></path><path d="M590.596491 463.94386h628.77193v8.08421h-628.77193z" fill="#B9E9FF" p-id="4117"></path><path d="M590.596491 456.308772h628.77193v8.08421h-628.77193z" fill="#B8E9FF" p-id="4118"></path><path d="M590.596491 448.224561h628.77193v8.084211h-628.77193z" fill="#B7E9FF" p-id="4119"></path><path d="M590.596491 440.589474h628.77193v8.08421h-628.77193z" fill="#B6E9FF" p-id="4120"></path><path d="M590.596491 432.505263h628.77193v8.084211h-628.77193z" fill="#B5E8FF" p-id="4121"></path><path d="M590.596491 424.870175h628.77193v8.084211h-628.77193z" fill="#B4E8FF" p-id="4122"></path><path d="M590.596491 416.785965h628.77193v8.08421h-628.77193z" fill="#B3E8FF" p-id="4123"></path><path d="M590.596491 409.150877h628.77193v8.084211h-628.77193z" fill="#B2E7FF" p-id="4124"></path><path d="M590.596491 401.066667h628.77193v8.08421h-628.77193z" fill="#B1E7FF" p-id="4125"></path><path d="M590.596491 393.431579h628.77193v8.08421h-628.77193z" fill="#B0E7FF" p-id="4126"></path><path d="M590.596491 385.347368h628.77193v8.084211h-628.77193z" fill="#AFE6FF" p-id="4127"></path><path d="M590.596491 377.712281h628.77193v8.08421h-628.77193zM590.596491 377.263158h628.77193v0.449123h-628.77193z" fill="#AEE6FF" p-id="4128"></path><path d="M1787.508772 1024H8.982456c-4.940351 0-8.982456-4.042105-8.982456-8.982456s4.042105-8.982456 8.982456-8.982456h1778.526316c4.940351 0 8.982456 4.042105 8.982456 8.982456s-4.042105 8.982456-8.982456 8.982456z" fill="#E2E8ED" p-id="4129"></path><path d="M734.764912 413.642105c0 14.37193 5.838596 26.947368 15.719299 35.929825-17.066667-7.635088-29.192982-25.150877-29.192983-44.912281 0-27.396491 22.007018-49.403509 49.403509-49.403509 13.024561 0 24.701754 4.940351 33.68421 13.024562-6.287719-2.694737-13.024561-4.042105-20.210526-4.042106-27.396491 0-49.403509 22.45614-49.403509 49.403509z" fill="#FFFFFF" p-id="4130"></path><path d="M820.098246 404.659649c0 27.396491-22.007018 49.403509-49.403509 49.403509-7.185965 0-13.922807-1.347368-20.210526-4.491228-9.431579-8.982456-15.719298-22.007018-15.719299-35.929825 0-27.396491 22.007018-49.403509 49.403509-49.403509 7.185965 0 13.922807 1.347368 20.210526 4.042106 9.431579 9.431579 15.719298 22.45614 15.719299 36.378947z" fill="#FFFFFF" p-id="4131"></path><path d="M820.098246 404.659649c0 27.396491-22.007018 49.403509-49.403509 49.403509-7.185965 0-13.922807-1.347368-20.210526-4.491228-9.431579-8.982456-15.719298-22.007018-15.719299-35.929825 0-27.396491 22.007018-49.403509 49.403509-49.403509 7.185965 0 13.922807 1.347368 20.210526 4.042106 9.431579 9.431579 15.719298 22.45614 15.719299 36.378947z" fill="#AEE6FF" p-id="4132"></path><path d="M770.694737 458.105263c-29.642105 0-53.445614-23.803509-53.445614-53.445614s23.803509-53.445614 53.445614-53.445614 53.445614 23.803509 53.445614 53.445614-24.252632 53.445614-53.445614 53.445614z m0-98.357895c-24.701754 0-45.361404 20.210526-45.361404 45.361404s20.210526 45.361404 45.361404 45.361403c24.701754 0 45.361404-20.210526 45.361403-45.361403s-20.659649-45.361404-45.361403-45.361404z" fill="#7297B5" p-id="4133"></path><path d="M1001.992982 409.150877c0 19.312281 10.778947 35.929825 26.947369 44.014035-22.905263-4.042105-40.421053-24.252632-40.421053-48.505263 0-27.396491 22.007018-49.403509 49.403509-49.403509 8.084211 0 15.719298 1.796491 22.007018 5.389474-2.694737-0.449123-5.838596-0.898246-8.533334-0.898246-27.396491 0-49.403509 22.45614-49.403509 49.403509z" fill="#FFFFFF" p-id="4134"></path><path d="M1086.877193 404.659649c0 27.396491-22.007018 49.403509-49.403509 49.403509-3.14386 0-5.838596-0.449123-8.982456-0.898246-16.168421-8.084211-26.947368-24.701754-26.947368-44.014035 0-27.396491 22.007018-49.403509 49.403508-49.403509 3.14386 0 5.838596 0.449123 8.533334 0.898246 16.617544 8.084211 27.396491 24.701754 27.396491 44.014035z" fill="#FFFFFF" p-id="4135"></path><path d="M1086.877193 404.659649c0 27.396491-22.007018 49.403509-49.403509 49.403509-3.14386 0-5.838596-0.449123-8.982456-0.898246-16.168421-8.084211-26.947368-24.701754-26.947368-44.014035 0-27.396491 22.007018-49.403509 49.403508-49.403509 3.14386 0 5.838596 0.449123 8.533334 0.898246 16.617544 8.084211 27.396491 24.701754 27.396491 44.014035z" fill="#AEE6FF" p-id="4136"></path><path d="M1037.922807 458.105263c-29.642105 0-53.445614-23.803509-53.445614-53.445614s23.803509-53.445614 53.445614-53.445614S1091.368421 375.466667 1091.368421 404.659649c0 29.642105-24.252632 53.445614-53.445614 53.445614z m0-98.357895c-24.701754 0-45.361404 20.210526-45.361403 45.361404s20.210526 45.361404 45.361403 45.361403c24.701754 0 45.361404-20.210526 45.361404-45.361403s-20.659649-45.361404-45.361404-45.361404z" fill="#7297B5" p-id="4137"></path><path d="M866.357895 421.726316c0 19.312281 11.22807 35.929825 26.947368 44.014035-22.905263-4.042105-40.421053-24.252632-40.421052-48.505263 0-27.396491 22.007018-49.403509 49.403508-49.403509 8.084211 0 15.719298 1.796491 22.456141 5.389474-2.694737-0.449123-5.838596-0.898246-8.982456-0.898246-27.396491 0-49.403509 22.007018-49.403509 49.403509z" fill="#FFFFFF" p-id="4138"></path><path d="M951.242105 417.235088c0 27.396491-22.007018 49.403509-49.403509 49.403508-3.14386 0-5.838596-0.449123-8.533333-0.898245-16.168421-8.084211-26.947368-24.701754-26.947368-44.014035 0-27.396491 22.007018-49.403509 49.403509-49.403509 3.14386 0 5.838596 0.449123 8.982456 0.898246 15.719298 8.084211 26.498246 24.701754 26.498245 44.014035z" fill="#FFFFFF" p-id="4139"></path><path d="M951.242105 417.235088c0 27.396491-22.007018 49.403509-49.403509 49.403508-3.14386 0-5.838596-0.449123-8.533333-0.898245-16.168421-8.084211-26.947368-24.701754-26.947368-44.014035 0-27.396491 22.007018-49.403509 49.403509-49.403509 3.14386 0 5.838596 0.449123 8.982456 0.898246 15.719298 8.084211 26.498246 24.701754 26.498245 44.014035z" fill="#AEE6FF" p-id="4140"></path><path d="M902.287719 470.680702c-29.642105 0-53.445614-23.803509-53.445614-53.445614S872.645614 363.789474 902.287719 363.789474s53.445614 23.803509 53.445614 53.445614c0 29.192982-24.252632 53.445614-53.445614 53.445614z m0-98.807018c-24.701754 0-45.361404 20.210526-45.361403 45.361404s20.210526 45.361404 45.361403 45.361403c24.701754 0 45.361404-20.210526 45.361404-45.361403s-20.659649-45.361404-45.361404-45.361404z" fill="#7297B5" p-id="4141"></path><path d="M1228.350877 283.396491c-40.421053-47.157895-168.870175-81.740351-320.673684-81.740351-174.259649 0-317.080702 45.361404-332.350877 103.747369 0.898246 2.694737 1.796491 5.389474 3.143859 8.08421-5.838596-7.185965-9.880702-14.37193-12.126315-21.557894 15.270175-57.936842 158.091228-103.747368 332.350877-103.747369 166.175439 0 303.607018 41.319298 329.65614 95.214035z" fill="#FFFFFF" p-id="4142"></path><path d="M1231.494737 291.929825c-15.270175 57.936842-158.091228 103.298246-332.350877 103.298245-151.803509 0-279.803509-34.582456-320.224562-81.740351-1.347368-2.694737-2.245614-5.389474-3.143859-8.08421 15.270175-57.936842 158.091228-103.747368 332.350877-103.747369 151.803509 0 279.803509 34.582456 320.673684 81.740351 0.898246 2.694737 2.245614 5.389474 2.694737 8.533334z" fill="#CDDFF1" p-id="4143"></path><path d="M899.14386 399.719298c-176.05614 0-320.673684-45.810526-336.392983-106.891228l-0.449123-0.898245 0.449123-0.898246C578.470175 229.950877 723.087719 184.140351 899.14386 184.140351s320.673684 45.810526 336.392982 106.891228l0.449123 0.898246-0.449123 0.898245C1219.817544 353.459649 1074.750877 399.719298 899.14386 399.719298z m-328.308772-107.789473c16.168421 56.140351 159.887719 99.705263 328.308772 99.705263s312.140351-43.564912 328.308772-99.705263c-16.168421-55.691228-159.887719-99.705263-328.308772-99.705264s-312.140351 43.564912-328.308772 99.705264z" fill="#7297B5" p-id="4144"></path><path d="M1232.842105 306.301754c0 62.877193-149.557895 114.077193-333.698245 114.077193s-333.698246-51.2-333.698246-114.077193c0-3.592982 0.449123-6.736842 1.347368-10.329824 15.270175 57.936842 158.091228 103.747368 332.350878 103.747368s317.080702-45.361404 332.350877-103.747368c0.898246 3.14386 1.347368 6.736842 1.347368 10.329824z" fill="#CDDFF1" p-id="4145"></path><path d="M899.14386 423.97193c-189.529825 0-338.189474-51.649123-338.189474-118.119298 0-4.042105 0.449123-7.635088 1.347368-11.228071l4.042106-14.821052 4.042105 14.821052c14.821053 56.589474 158.989474 100.603509 328.308772 100.603509s313.936842-44.014035 328.308772-100.603509l4.042105-14.821052 4.042105 14.821052c0.898246 3.592982 1.347368 7.635088 1.347369 11.228071 0.449123 66.470175-147.761404 118.119298-337.291228 118.119298z m-329.207018-110.933334c4.940351 25.6 38.624561 50.750877 94.31579 70.063158 62.877193 21.557895 145.964912 33.235088 234.891228 33.235088s172.014035-11.677193 234.891228-33.235088c55.691228-18.863158 89.375439-44.014035 94.315789-70.063158-35.031579 52.547368-168.870175 90.722807-329.207017 90.722808s-294.175439-38.175439-329.207018-90.722808z" fill="#7297B5" p-id="4146"></path><path d="M1059.031579 207.494737c0 79.494737-71.410526 102.849123-159.887719 102.849123s-159.887719-23.354386-159.88772-102.849123c0-3.592982 0-7.635088 0.449123-11.22807 6.287719 70.512281 75.452632 92.070175 159.438597 92.070175s153.150877-21.108772 159.438596-92.070175c0 4.042105 0.449123 7.635088 0.449123 11.22807z" fill="#CDDFF1" p-id="4147"></path><path d="M899.14386 314.835088c-108.687719 0-163.929825-35.929825-163.929825-106.891228 0-4.042105 0-7.635088 0.449123-11.677193h8.08421c5.389474 59.284211 56.140351 88.02807 155.396492 88.02807s150.007018-28.74386 155.396491-88.02807h8.08421c0.449123 3.592982 0.449123 7.635088 0.449123 11.677193 0 70.512281-55.242105 106.891228-163.929824 106.891228z m-152.701755-80.842106c12.575439 48.505263 62.877193 72.308772 152.701755 72.308772s140.126316-23.803509 152.701754-72.308772c-21.108772 38.624561-72.308772 58.385965-152.701754 58.385965s-131.592982-19.312281-152.701755-58.385965z" fill="#7297B5" p-id="4148"></path><path d="M1040.168421 140.126316c-28.74386-38.175439-77.249123-63.326316-132.491228-63.326316-83.985965 0-153.150877 58.385965-159.438597 132.940351 1.347368 13.024561 4.491228 24.701754 9.880702 34.582456-10.329825-12.575439-17.066667-28.294737-18.863158-48.05614 6.287719-74.105263 75.452632-132.940351 159.438597-132.940351 61.529825 0.449123 114.975439 31.438596 141.473684 76.8z" fill="#FFFFFF" p-id="4149"></path><path d="M1058.582456 196.715789c-6.287719 70.961404-75.452632 92.070175-159.438596 92.070176-60.631579 0-113.178947-10.778947-140.575439-43.564912-5.389474-9.880702-8.533333-21.557895-9.880702-34.582457 6.287719-74.105263 75.452632-132.940351 159.438597-132.94035 55.242105 0 103.747368 25.150877 132.491228 63.326315 9.880702 16.168421 16.168421 35.480702 17.964912 55.691228z" fill="#CDDFF1" p-id="4150"></path><path d="M1058.582456 196.715789c-6.287719 70.961404-75.452632 92.070175-159.438596 92.070176-60.631579 0-113.178947-10.778947-140.575439-43.564912-5.389474-9.880702-8.533333-21.557895-9.880702-34.582457 6.287719-74.105263 75.452632-132.940351 159.438597-132.94035 55.242105 0 103.747368 25.150877 132.491228 63.326315 9.880702 16.168421 16.168421 35.480702 17.964912 55.691228z" fill="#CDDFF1" p-id="4151"></path><path d="M899.14386 292.378947c-102.849123 0-157.642105-32.336842-163.480702-95.663158v-0.898245c6.736842-76.350877 78.147368-136.533333 163.480702-136.533333s156.74386 60.182456 163.480701 136.533333v0.898245c-5.838596 63.775439-60.631579 95.663158-163.480701 95.663158z m-155.396492-96.11228c5.389474 59.284211 56.140351 87.578947 155.396492 87.578947s149.557895-28.74386 155.396491-87.578947C1048.252632 123.957895 979.985965 67.368421 899.14386 67.368421S750.035088 124.407018 743.747368 196.266667z" fill="#7297B5" p-id="4152"></path><path d="M902.287719 92.519298c-2.245614 0-4.042105-1.796491-4.042105-4.042105V26.498246c0-2.245614 1.796491-4.042105 4.042105-4.042106s4.042105 1.796491 4.042106 4.042106v61.529824c0 2.694737-1.796491 4.491228-4.042106 4.491228z" fill="#7297B5" p-id="4153"></path><path d="M902.287719 22.45614m-14.37193 0a14.37193 14.37193 0 1 0 28.74386 0 14.37193 14.37193 0 1 0-28.74386 0Z" fill="#FF6E6E" p-id="4154"></path><path d="M663.803509 277.557895m-12.126316 0a12.126316 12.126316 0 1 0 24.252632 0 12.126316 12.126316 0 1 0-24.252632 0Z" fill="#7297B5" p-id="4155"></path><path d="M791.354386 347.17193m-12.126316 0a12.126316 12.126316 0 1 0 24.252632 0 12.126316 12.126316 0 1 0-24.252632 0Z" fill="#7297B5" p-id="4156"></path><path d="M1004.687719 347.17193m-12.126315 0a12.126316 12.126316 0 1 0 24.252631 0 12.126316 12.126316 0 1 0-24.252631 0Z" fill="#7297B5" p-id="4157"></path><path d="M1136.280702 285.642105m-12.126316 0a12.126316 12.126316 0 1 0 24.252632 0 12.126316 12.126316 0 1 0-24.252632 0Z" fill="#7297B5" p-id="4158"></path><path d="M719.494737 621.585965l18.414035-30.091228-53.445614-33.235088 9.431579-14.821053 104.196491-43.115789 13.024561 8.084211-48.954385 79.494736 17.964912 11.228071-8.084211 13.473684-17.964912-11.22807-18.414035 30.091228-16.168421-9.880702z m26.498245-43.564912l34.133334-55.691228-73.656141 31.438596 39.522807 24.252632z" fill="#FFFFFF" p-id="4159"></path><path d="M736.112281 636.85614l-22.456141-13.922807 18.414035-30.091228-53.445614-33.235087 12.126316-19.761404 107.340351-44.463158 18.414035 11.22807-48.954386 79.494737 17.964912 11.22807-12.575438 20.210527-17.964912-11.228071-18.863158 30.540351z m-11.22807-16.617544l8.533333 5.389474 18.414035-30.091228 17.964912 11.22807 4.042105-6.287719-17.964912-11.22807 48.954386-79.494737-7.635088-4.940351-100.603508 41.768421-6.28772 10.329825 53.445614 33.235087-18.863157 30.091228z m22.45614-36.378947l-49.403509-30.540351 92.519298-39.522807-43.115789 70.063158z m-31.887719-29.192982l28.743859 17.964912 25.150877-40.870175-53.894736 22.905263z" fill="#7297B5" p-id="4160"></path><path d="M941.361404 639.101754c5.389474 12.126316 7.185965 28.74386 5.389473 49.403509-1.796491 19.312281-5.838596 35.480702-13.024561 47.607018-9.880702 17.515789-24.701754 25.6-43.564912 23.803508-17.066667-1.347368-29.192982-9.880702-36.378948-25.6-5.838596-13.024561-8.084211-30.091228-6.287719-51.2 1.347368-16.168421 4.940351-30.091228 9.880702-41.319298 9.880702-21.108772 24.701754-30.540351 45.361403-28.743859 18.863158 1.347368 31.438596 10.329825 38.624562 26.049122z m-26.498246 93.866667c6.287719-7.635088 10.329825-22.905263 12.126316-45.361403 1.347368-16.168421 0.449123-29.642105-2.694737-40.870176-3.14386-10.778947-10.329825-16.617544-22.007018-17.964912-10.778947-0.898246-18.863158 3.592982-24.701754 13.024561-5.838596 9.431579-9.431579 23.803509-11.22807 43.564913-1.347368 14.37193-0.898246 26.498246 1.796491 35.480701 3.592982 13.922807 11.22807 21.557895 22.905263 22.456141 9.431579 0.898246 17.515789-2.245614 23.803509-10.329825z" fill="#FFFFFF" p-id="4161"></path><path d="M895.101754 764.407018c-1.796491 0-3.592982 0-5.389473-0.449123-18.863158-1.796491-31.887719-11.22807-39.97193-28.294737-6.287719-13.473684-8.533333-31.438596-6.287719-52.996491 1.347368-16.617544 4.940351-30.989474 10.329824-42.666667 10.329825-22.905263 27.396491-33.235088 49.403509-31.438596 20.210526 1.796491 34.133333 11.22807 41.768421 28.743859 5.838596 13.024561 7.635088 30.091228 5.838596 51.2-1.796491 19.761404-6.287719 36.378947-13.473684 49.403509-9.880702 17.515789-24.252632 26.498246-42.217544 26.498246z m3.14386-147.761404c-16.617544 0-28.74386 8.982456-36.82807 26.498246-4.940351 10.778947-8.084211 24.252632-9.431579 39.971929-1.796491 20.210526 0 36.82807 5.838596 48.954386 6.287719 14.37193 17.515789 22.007018 33.235088 23.354386 17.515789 1.347368 30.540351-5.389474 39.522807-21.557894 6.736842-11.677193 10.778947-26.947368 12.575439-45.810527 1.796491-19.761404 0-35.480702-4.940351-47.157894-6.287719-14.821053-17.515789-22.45614-34.582456-23.803509-2.694737 0-4.042105-0.449123-5.389474-0.449123z m-4.042105 131.14386h-3.14386c-13.473684-1.347368-22.45614-9.880702-26.498245-25.6-2.694737-9.431579-3.14386-22.007018-1.796492-36.82807 1.796491-20.210526 5.389474-35.031579 11.677193-45.361404 6.736842-10.778947 16.168421-15.719298 28.294737-14.821053 13.024561 1.347368 22.007018 8.533333 25.6 20.659649 3.14386 11.22807 4.042105 25.6 2.694737 42.217544-2.245614 23.354386-6.287719 39.073684-13.024561 47.607018-6.287719 8.084211-14.37193 12.126316-23.803509 12.126316z m5.838596-114.526316c-7.635088 0-13.922807 3.592982-18.414035 11.22807-5.389474 8.982456-8.982456 22.905263-10.778947 41.768421-1.347368 13.922807-0.898246 25.6 1.347368 34.133333 3.14386 12.126316 9.431579 18.414035 19.312281 19.312281 8.084211 0.898246 14.37193-2.245614 19.761403-8.982456 5.838596-7.185965 9.431579-21.557895 11.228071-43.115789 1.347368-15.719298 0.449123-28.74386-2.245614-39.073685-2.694737-9.431579-8.533333-13.922807-18.414036-14.821052-0.449123-0.449123-1.347368-0.449123-1.796491-0.449123z" fill="#7297B5" p-id="4162"></path><path d="M1081.936842 827.733333l-6.736842-34.582456-61.978947 12.126316-3.592983-17.515789 47.157895-102.4 14.821053-3.14386 17.964912 91.621052 20.659649-4.042105 3.14386 15.270176-20.65965 4.042105 6.736843 34.582456-17.51579 4.042105z m-10.329824-49.852631l-12.575439-64.224562-32.785965 72.757895 45.361404-8.533333z" fill="#FFFFFF" p-id="4163"></path><path d="M1078.792982 832.673684l-6.736842-34.582456-61.978947 12.126316-4.491228-22.45614 48.505263-105.54386 21.108772-4.042105 17.964912 91.621052 20.659649-4.042105 4.491228 23.354386-20.659649 4.042105 6.736842 34.582456-25.6 4.940351z m-0.449122-44.014035l6.736842 34.582456 9.431579-1.796491-6.736842-34.582456 20.659649-4.042105-1.347369-7.185965-20.659649 4.042105-17.964912-91.621053-8.982456 1.796492-45.810527 99.25614 2.245614 12.126316 62.428071-12.575439z m-58.835088 3.592983l41.319298-92.070176 15.719298 80.842105-57.038596 11.228071z m38.175439-64.673685l-24.252632 53.894737 33.235088-6.736842-8.982456-47.157895z" fill="#7297B5" p-id="4164"></path><path d="M583.410526 919.803509c-2.694737-17.964912-18.863158-30.540351-36.82807-30.540351h-43.115789l-0.449123-0.449123c-0.898246 0-1.347368 0.449123-2.245614 0.449123-6.287719 0-11.22807-4.940351-11.22807-11.22807s4.940351-11.22807 11.22807-11.22807c0.898246 0 1.347368 0 2.245614 0.449122 0 0 0-0.449123 0.449123-0.449122h9.431579c17.066667 0 32.785965-12.126316 35.031579-29.192983 2.694737-20.210526-13.473684-38.175439-33.235088-38.175439H295.522807c-17.066667 0-32.785965 12.126316-35.031579 29.192983-2.694737 20.210526 13.473684 38.175439 33.235088 38.175439h15.270175c4.940351 0.898246 8.982456 5.389474 8.982456 11.22807 0 5.389474-4.042105 9.880702-8.982456 11.22807H203.452632c-17.964912 0-34.133333 12.575439-36.828071 30.540351-3.14386 22.007018 13.922807 41.319298 35.480702 41.319298h345.824562c21.557895 0 38.624561-19.312281 35.480701-41.319298z" fill="#CDDFF1" p-id="4165"></path><path d="M1302.905263 907.22807c1.796491-11.22807 12.126316-19.312281 23.354386-19.312281H1355.003509c4.042105 0 7.185965-3.14386 7.185965-7.185964 0-4.042105-3.14386-7.185965-7.185965-7.185965H1347.368421c-10.778947 0-20.659649-7.635088-22.007017-18.863158-1.796491-13.024561 8.533333-24.252632 21.108771-24.252632h138.778948c10.778947 0 20.659649 7.635088 22.007017 18.863158 1.796491 13.024561-8.533333 24.252632-21.108772 24.252632h-9.880701c-3.14386 0.449123-5.838596 3.592982-5.838597 7.185965s2.245614 6.287719 5.838597 7.185964h67.368421c11.22807 0 21.557895 8.084211 23.354386 19.312281 2.245614 13.922807-8.982456 26.049123-22.456141 26.049123h-219.171929c-13.922807 0-24.701754-12.126316-22.456141-26.049123z" fill="#CDDFF1" p-id="4166"></path><path d="M1390.933333 75.901754c-0.449123 0-1.347368-0.449123-1.796491-0.898245l-7.185965-8.982456c-0.898246-0.898246-0.449123-2.245614 0.449123-3.14386 0.898246-0.898246 2.245614-0.449123 3.14386 0.449123l7.185965 8.982456c0.898246 0.898246 0.449123 2.245614-0.449123 3.14386-0.449123 0.449123-0.898246 0.449123-1.347369 0.449122z" fill="#B8D6F5" p-id="4167"></path><path d="M1386.442105 83.985965s-0.449123 0 0 0l-11.677193-2.245614c-1.347368-0.449123-1.796491-1.347368-1.796491-2.694737 0.449123-1.347368 1.347368-1.796491 2.694737-1.796491l11.22807 2.245614c1.347368 0.449123 1.796491 1.347368 1.796491 2.694737-0.449123 0.898246-1.347368 1.796491-2.245614 1.796491z" fill="#B8D6F5" p-id="4168"></path><path d="M1377.908772 98.807018c-0.898246 0-1.347368-0.449123-1.796491-0.898246-0.449123-0.898246-0.449123-2.245614 0.898245-3.14386l9.880702-5.838596c0.898246-0.449123 2.245614-0.449123 3.14386 0.898245 0.449123 0.898246 0.449123 2.245614-0.898246 3.14386l-9.880702 5.838597h-1.347368z" fill="#B8D6F5" p-id="4169"></path><path d="M1391.382456 110.035088h-0.898245c-1.347368-0.449123-1.796491-1.796491-1.347369-2.694737l3.592983-10.778947c0.449123-1.347368 1.796491-1.796491 2.694736-1.347369 1.347368 0.449123 1.796491 1.796491 1.347369 2.694737l-3.592983 10.778947c0 0.898246-0.898246 1.347368-1.796491 1.347369z" fill="#B8D6F5" p-id="4170"></path><path d="M1408.449123 110.035088c-0.898246 0-1.796491-0.449123-2.245614-1.347369l-4.042105-10.778947c-0.449123-1.347368 0-2.245614 1.347368-2.694737 1.347368-0.449123 2.245614 0 2.694737 1.347369l4.042105 10.778947c0.449123 1.347368 0 2.245614-1.347368 2.694737h-0.449123z" fill="#B8D6F5" p-id="4171"></path><path d="M1421.473684 98.807018c-0.449123 0-0.898246 0-1.347368-0.449123l-9.880702-5.838597c-0.898246-0.449123-1.347368-1.796491-0.898246-3.143859 0.449123-0.898246 2.245614-1.347368 3.14386-0.898246l9.880702 5.838596c0.898246 0.449123 1.347368 1.796491 0.898245 3.14386-0.449123 0.898246-0.898246 1.347368-1.796491 1.347369z" fill="#B8D6F5" p-id="4172"></path><path d="M1413.389474 83.985965c-0.898246 0-1.796491-0.898246-2.245614-1.796491-0.449123-1.347368 0.449123-2.245614 1.796491-2.694737l11.22807-2.245614c1.347368-0.449123 2.245614 0.449123 2.694737 1.796491 0.449123 1.347368-0.449123 2.245614-1.796491 2.694737l-11.677193 2.245614c0.449123 0 0 0 0 0z" fill="#B8D6F5" p-id="4173"></path><path d="M1408.898246 75.901754c-0.449123 0-0.898246 0-1.347369-0.449122-0.898246-0.898246-0.898246-2.245614-0.449123-3.14386l7.185965-8.982456c0.898246-0.898246 2.245614-0.898246 3.14386-0.449123 0.898246 0.898246 0.898246 2.245614 0.449123 3.14386l-7.185965 8.982456c-0.449123 0.449123-1.347368 0.898246-1.796491 0.898245z" fill="#B8D6F5" p-id="4174"></path><path d="M1399.915789 72.308772c-1.347368 0-2.245614-0.898246-2.245614-2.245614v-11.22807c0-1.347368 0.898246-2.245614 2.245614-2.245614s2.245614 0.898246 2.245615 2.245614v11.22807c0 1.347368-0.898246 2.245614-2.245615 2.245614z" fill="#B8D6F5" p-id="4175"></path><path d="M213.333333 372.77193l-14.821052-1.796491 10.778947-10.778948L206.596491 345.824561l13.024562 6.736843 13.024561-7.185965-2.245614 14.371929 10.778947 10.329825-14.371929 2.694737-6.28772 13.473684z" fill="#A1C9F1" p-id="4176"></path><path d="M1521.62807 418.582456c-0.449123 0-1.347368-0.449123-1.796491-0.898245l-6.736842-8.533334c-0.898246-0.898246-0.449123-2.245614 0.449123-3.143859 0.898246-0.898246 2.245614-0.449123 3.143859 0.449122l6.736842 8.533334c0.898246 0.898246 0.449123 2.245614-0.449122 3.143859-0.449123 0.449123-0.898246 0.449123-1.347369 0.449123z" fill="#B8D6F5" p-id="4177"></path><path d="M1506.357895 432.505263c-0.898246 0-2.245614-0.898246-2.245614-1.796491 0-1.347368 0.449123-2.245614 1.796491-2.694737l10.778947-1.796491c1.347368 0 2.245614 0.449123 2.694737 1.796491 0 1.347368-0.449123 2.245614-1.796491 2.694737l-11.22807 1.796491c0.449123 0 0 0 0 0z" fill="#B8D6F5" p-id="4178"></path><path d="M1521.178947 450.919298h-0.898245c-1.347368-0.449123-1.796491-1.796491-1.347369-3.143859l4.042106-9.880702c0.449123-1.347368 1.796491-1.796491 3.143859-1.347369 1.347368 0.449123 1.796491 1.796491 1.347369 3.14386l-4.042106 9.880702c-0.449123 0.898246-1.347368 1.347368-2.245614 1.347368z" fill="#B8D6F5" p-id="4179"></path><path d="M1544.982456 447.326316c-0.449123 0-1.347368-0.449123-1.796491-0.898246l-6.736842-8.533333c-0.898246-0.898246-0.449123-2.245614 0.449123-3.14386s2.245614-0.449123 3.143859 0.449123l6.736842 8.533333c0.898246 0.898246 0.449123 2.245614-0.449122 3.14386-0.449123 0.449123-0.898246 0.449123-1.347369 0.449123z" fill="#B8D6F5" p-id="4180"></path><path d="M1542.736842 426.666667c-0.898246 0-2.245614-0.898246-2.245614-1.796492 0-1.347368 0.449123-2.245614 1.796491-2.694736l10.778948-1.796492c1.347368 0 2.245614 0.449123 2.694737 1.796492 0 1.347368-0.449123 2.245614-1.796492 2.694736l-11.22807 1.796492c0.449123 0 0 0 0 0z" fill="#B8D6F5" p-id="4181"></path><path d="M1534.652632 416.336842h-0.898246c-1.347368-0.449123-1.796491-1.796491-1.347368-3.14386l4.042105-9.880701c0.449123-1.347368 1.796491-1.796491 3.143859-1.347369 1.347368 0.449123 1.796491 1.796491 1.347369 3.14386l-4.042105 9.880702c-0.449123 0.898246-1.347368 1.347368-2.245614 1.347368z" fill="#B8D6F5" p-id="4182"></path><path d="M574.877193 154.947368l-37.277193-15.719298 15.719298-37.277193 37.277193 15.719298-15.719298 37.277193z m-25.6-20.659649l20.659649 8.982456 8.982456-20.659649-20.659649-8.982456-8.982456 20.659649z" fill="#A1C9F1" p-id="4183"></path><path d="M155.845614 673.235088c-0.449123 0-1.347368-0.449123-1.796491-0.898246l-7.185965-8.982456c-0.898246-0.898246-0.449123-2.245614 0.449123-3.14386 0.898246-0.898246 2.245614-0.449123 3.143859 0.449123l7.185965 8.982456c0.898246 0.898246 0.449123 2.245614-0.449123 3.14386-0.449123 0.449123-0.898246 0.449123-1.347368 0.449123z" fill="#A1C9F1" p-id="4184"></path><path d="M151.354386 681.319298s-0.449123 0 0 0l-11.677193-2.245614c-1.347368-0.449123-1.796491-1.347368-1.796491-2.694737 0.449123-1.347368 1.347368-1.796491 2.694737-1.796491l11.22807 2.245614c1.347368 0.449123 1.796491 1.347368 1.796491 2.694737-0.449123 0.898246-1.347368 1.796491-2.245614 1.796491z" fill="#A1C9F1" p-id="4185"></path><path d="M142.821053 696.140351c-0.898246 0-1.347368-0.449123-1.796492-0.898246-0.449123-0.898246-0.449123-2.245614 0.898246-3.143859l9.880702-5.838597c0.898246-0.449123 2.245614-0.449123 3.143859 0.898246 0.449123 0.898246 0.449123 2.245614-0.898245 3.143859l-9.880702 5.838597h-1.347368z" fill="#A1C9F1" p-id="4186"></path><path d="M156.294737 707.368421h-0.898246c-1.347368-0.449123-1.796491-1.796491-1.347368-2.694737l3.592982-10.778947c0.449123-1.347368 1.796491-1.796491 2.694737-1.347369 1.347368 0.449123 1.796491 1.796491 1.347369 2.694737l-3.592983 10.778948c0 0.898246-0.898246 1.347368-1.796491 1.347368z" fill="#A1C9F1" p-id="4187"></path><path d="M173.361404 707.368421c-0.898246 0-1.796491-0.449123-2.245615-1.347368l-4.042105-10.778948c-0.449123-1.347368 0-2.245614 1.347369-2.694737 1.347368-0.449123 2.245614 0 2.694736 1.347369l4.042106 10.778947c0.449123 1.347368 0 2.245614-1.347369 2.694737h-0.449122z" fill="#A1C9F1" p-id="4188"></path><path d="M186.385965 696.140351c-0.449123 0-0.898246 0-1.347369-0.449123l-9.880701-5.838596c-0.898246-0.449123-1.347368-1.796491-0.898246-3.14386 0.449123-0.898246 1.796491-1.347368 3.14386-0.898246l9.880702 5.838597c0.898246 0.449123 1.347368 1.796491 0.898245 3.143859-0.449123 0.898246-0.898246 1.347368-1.796491 1.347369z" fill="#A1C9F1" p-id="4189"></path><path d="M178.301754 681.319298c-0.898246 0-1.796491-0.898246-2.245614-1.796491-0.449123-1.347368 0.449123-2.245614 1.796492-2.694737l11.22807-2.245614c1.347368-0.449123 2.245614 0.449123 2.694737 1.796491 0.449123 1.347368-0.449123 2.245614-1.796492 2.694737l-11.677193 2.245614c0.449123 0 0 0 0 0z" fill="#A1C9F1" p-id="4190"></path><path d="M173.810526 673.235088c-0.449123 0-0.898246 0-1.347368-0.449123-0.898246-0.898246-1.347368-2.245614-0.449123-3.14386l7.185965-8.982456c0.898246-0.898246 2.245614-0.898246 3.14386-0.449123 0.898246 0.898246 1.347368 2.245614 0.449122 3.14386l-7.185964 8.982456c-0.449123 0.449123-1.347368 0.898246-1.796492 0.898246z" fill="#A1C9F1" p-id="4191"></path><path d="M164.82807 669.642105c-1.347368 0-2.245614-0.898246-2.245614-2.245614v-11.22807c0-1.347368 0.898246-2.245614 2.245614-2.245614s2.245614 0.898246 2.245614 2.245614v11.22807c0 1.347368-0.898246 2.245614-2.245614 2.245614z" fill="#A1C9F1" p-id="4192"></path><path d="M1680.617544 694.792982l-13.922807-4.94035 12.575438-8.084211 0.449123-14.821053 11.677193 9.431579 14.37193-4.042105-5.838596 13.922807 8.533333 12.575439-14.821053-1.347369-9.431579 12.126316z" fill="#A1C9F1" p-id="4193"></path><path d="M453.614035 545.684211c-11.22807 0-20.210526-8.982456-20.210526-20.210527s8.982456-20.210526 20.210526-20.210526 20.210526 8.982456 20.210526 20.210526-8.982456 20.210526-20.210526 20.210527z m0-35.929825c-8.533333 0-15.719298 7.185965-15.719298 15.719298s7.185965 15.719298 15.719298 15.719298 15.719298-7.185965 15.719298-15.719298-7.185965-15.719298-15.719298-15.719298z" fill="#A1C9F1" p-id="4194"></path></svg>