<svg t="1774418444138" class="icon" viewBox="0 0 1251 1024" version="1.1" xmlns="http://www.w3.org/2000/svg" p-id="6605" width="200" height="200"><path d="M56.888889 113.777778h1024c34.133333 0 56.888889 22.755556 56.888889 56.888889s-22.755556 56.888889-56.888889 56.888889H56.888889c-34.133333 0-56.888889-22.755556-56.888889-56.888889s22.755556-56.888889 56.888889-56.888889z m1024 0c34.133333 0 56.888889 22.755556 56.888889 56.888889v796.444444c0 34.133333-22.755556 56.888889-56.888889 56.888889s-56.888889-22.755556-56.888889-56.888889V170.666667c0-34.133333 22.755556-56.888889 56.888889-56.888889zM170.666667 796.444444h1024c34.133333 0 56.888889 22.755556 56.888889 56.888889s-22.755556 56.888889-56.888889 56.888889H170.666667c-34.133333 0-56.888889-22.755556-56.888889-56.888889s22.755556-56.888889 56.888889-56.888889zM170.666667 0c34.133333 0 56.888889 22.755556 56.888889 56.888889v796.444444c0 34.133333-22.755556 56.888889-56.888889 56.888889s-56.888889-22.755556-56.888889-56.888889V56.888889c0-34.133333 22.755556-56.888889 56.888889-56.888889zM398.222222 512H284.444444V284.444444h227.555556v113.777778H398.222222zM967.111111 739.555556h-227.555555v-113.777778h113.777777V512h113.777778z" p-id="6606"></path></svg>