<svg t="1770877442465" class="icon" viewBox="0 0 1024 1024" version="1.1" xmlns="http://www.w3.org/2000/svg" p-id="32492" width="200" height="200"><path d="M696.96 841.216v68.608h142.912a38.912 38.912 0 1 1 0 77.696H179.136a38.848 38.848 0 1 1 0-77.696h142.976v-68.608h374.848zM904.96 36.48c65.664 0 119.04 53.376 119.04 119.04v493.312c0 65.6-53.376 119.04-119.04 119.04H119.04A119.168 119.168 0 0 1 0 648.768V155.456C0 89.856 53.376 36.48 119.04 36.48z m0 74.432H119.04a44.608 44.608 0 0 0-44.608 44.544v493.376c0 24.512 20.032 44.544 44.608 44.544h785.92a44.608 44.608 0 0 0 44.608-44.544V155.456a44.608 44.608 0 0 0-44.608-44.544z m-375.168 123.52c37.12 0 68.864 13.888 91.648 40.064 22.848 26.304 34.944 63.488 34.944 107.392 0 60.864-23.552 108.608-63.552 132.48a11.456 11.456 0 0 0 2.816 20.864 85.76 85.76 0 0 0 46.4-0.64 10.56 10.56 0 0 1 3.264-0.128c26.112 1.92 35.712 35.648 14.72 51.328a13.632 13.632 0 0 1-2.048 1.408c-10.88 4.992-27.456 7.808-45.312 7.808-26.88 0-50.752-6.848-70.912-20.48a116.864 116.864 0 0 1-37.376-41.6 11.52 11.52 0 0 0-7.296-5.76C439.04 512 403.456 457.472 403.456 381.952c0-43.968 12.032-81.088 34.816-107.328 22.656-26.24 54.336-40.064 91.52-40.064z m-273.024 0c33.088 0 65.216 13.44 88.192 36.864a10.24 10.24 0 0 1 1.536 2.496 30.016 30.016 0 0 1-29.44 42.624c-4.928-0.32-8.64-0.96-9.792-2.048-15.872-14.144-31.936-20.736-50.496-20.736-7.68 0-33.024 1.6-33.024 22.592 0 13.568 11.392 19.584 35.52 29.248l0.192 0.064 36.224 15.424c26.112 11.136 60.8 31.68 60.8 81.92 0 24.512-10.176 46.848-28.672 62.912-19.136 16.64-45.248 25.344-75.648 25.344a144 144 0 0 1-102.208-42.176 25.344 25.344 0 0 1-3.072-8.704 31.68 31.68 0 0 1 40.192-37.824 9.664 9.664 0 0 1 3.52 1.728c17.472 17.408 40.704 27.84 62.272 27.84 11.52 0 38.4-2.56 38.4-25.856 0-14.976-8.384-19.904-34.368-31.36l-1.152-0.512-36.48-15.744c-39.68-16.768-60.8-44.352-60.8-79.744 0-23.68 10.24-45.248 28.672-60.8 17.92-15.168 42.752-23.488 69.632-23.488z m501.504 5.12c16 0 28.992 12.928 28.992 28.992v170.88c0 16 12.992 28.992 29.056 28.992h53.504a29.056 29.056 0 0 1 0 58.048h-118.016a29.056 29.056 0 0 1-29.056-28.992V268.544c0-16 12.992-29.056 29.056-29.056z m-228.48 54.08a51.008 51.008 0 0 0-43.264 21.888c-11.392 15.616-17.408 38.528-17.408 66.368 0 56.96 23.232 92.288 60.672 92.288 17.92 0 32.512-7.808 43.264-23.04 11.584-16.448 17.728-40.384 17.728-69.248 0-54.4-23.36-88.32-60.992-88.32z" p-id="32493"></path></svg>