<svg t="1770877565032" class="icon" viewBox="0 0 1024 1024" version="1.1" xmlns="http://www.w3.org/2000/svg" p-id="36323" width="200" height="200"><path d="M890.474534 6.360248H209.92795c-69.962733 0-127.204969 57.242236-127.204969 120.844721v146.285714H38.201242c-25.440994 0-38.161491 19.080745-38.16149 38.161491s19.080745 38.161491 38.16149 38.161491h44.521739v127.204969H38.201242c-25.440994 0-38.161491 19.080745-38.16149 38.16149s19.080745 38.161491 38.16149 38.161491h44.521739v127.204969H38.201242c-25.440994 0-38.161491 19.080745-38.16149 38.161491s19.080745 38.161491 38.16149 38.16149h44.521739v146.285715c0 69.962733 57.242236 120.84472 127.204969 120.84472h674.186336c69.962733 0 127.204969-57.242236 127.204969-120.84472V127.204969C1017.679503 57.242236 960.437267 6.360248 890.474534 6.360248z m44.521739 896.795032c0 25.440994-19.080745 44.521739-50.881987 44.521739H209.92795c-25.440994 0-50.881988-19.080745-50.881987-44.521739v-146.285715h57.242236c25.440994 0 38.161491-19.080745 38.16149-38.16149s-19.080745-38.161491-38.16149-38.161491h-50.881988v-127.204969h57.242236c19.080745 0 38.161491-19.080745 38.161491-38.161491s-19.080745-38.161491-38.161491-38.16149h-57.242236v-127.204969h57.242236c19.080745 0 38.161491-19.080745 38.161491-38.161491s-19.080745-38.161491-38.161491-38.161491h-57.242236V127.204969c0-25.440994 19.080745-44.521739 50.881988-44.521739h674.186335c25.440994 0 50.881988 19.080745 50.881988 44.521739v775.950311z" p-id="36324"></path><path d="M788.710559 298.931677h-108.124224c-6.360248 0-6.360248 0-6.360248 6.360248v101.763976c0 6.360248 6.360248 6.360248 6.360248 6.360248h25.440994c-12.720497 44.521739-31.801242 63.602484-57.242236 82.68323l-38.161491 38.161491V292.571429h38.161491s6.360248 0 6.360249-6.360249v-6.360248L585.182609 184.447205s-6.360248-6.360248-12.720497 0L502.499379 279.850932v12.720497h44.521739v298.931677c-12.720497-6.360248-19.080745-12.720497-31.801242-19.080746-31.801242-25.440994-69.962733-44.521739-76.322982-120.84472 31.801242-19.080745 38.161491-57.242236 19.080746-82.68323-19.080745-31.801242-57.242236-38.161491-89.043479-19.080745-31.801242 19.080745-38.161491 57.242236-19.080745 82.683229 6.360248 6.360248 12.720497 19.080745 25.440994 19.080746 12.720497 108.124224 63.602484 139.925466 101.763975 165.366459 31.801242 25.440994 63.602484 38.161491 63.602485 101.763976-31.801242 19.080745-44.521739 57.242236-25.440994 89.043478 19.080745 31.801242 63.602484 44.521739 95.403726 25.440994 31.801242-19.080745 44.521739-57.242236 25.440994-89.043479-6.360248-12.720497-12.720497-19.080745-25.440994-25.440993 6.360248-114.484472 38.161491-146.285714 76.322982-171.726709 31.801242-25.440994 69.962733-57.242236 82.68323-133.565217h19.080745c6.360248 0 6.360248 0 6.360248-6.360248V305.291925c6.360248 0 0-6.360248-6.360248-6.360248z" p-id="36325"></path></svg>