<svg t="1770875762476" class="icon" viewBox="0 0 1024 1024" version="1.1" xmlns="http://www.w3.org/2000/svg" p-id="4371" width="200" height="200"><path d="M235.690249 560.748515a14.673124 14.673124 0 0 0-14.673124 14.673124V609.880473a14.673124 14.673124 0 0 0 14.621998 14.673124h361.86889a55.471566 55.471566 0 0 1 11.75895-16.053522 51.943881 51.943881 0 0 1 25.562934-15.849019v-17.331669a14.673124 14.673124 0 0 0-14.673124-14.673124zM686.109142 482.065805v-34.458835a14.673124 14.673124 0 0 0-14.673124-14.673124H235.690249a14.673124 14.673124 0 0 0-14.673124 14.673124V482.065805a14.673124 14.673124 0 0 0 14.621998 14.673124h435.745769A14.673124 14.673124 0 0 0 686.109142 482.065805zM686.109142 319.792301a14.673124 14.673124 0 0 0-14.673124-14.673124H235.690249a14.673124 14.673124 0 0 0-14.673124 14.673124V354.251136a14.673124 14.673124 0 0 0 14.621998 14.673124h435.745769A14.673124 14.673124 0 0 0 686.109142 354.251136zM999.561835 799.046183l-10.838684-8.384642q0.255629-6.79974 0-13.599481l10.88981-8.435768a52.710769 52.710769 0 0 0 15.849019-69.837935l-34.50996-59.766139a52.659644 52.659644 0 0 0-68.457537-21.217235l-12.730341 5.112587q-5.726097-3.578811-11.707824-6.748615l-1.840531-13.701732a52.608518 52.608518 0 0 0-52.506266-48.671826h-69.019921a52.608518 52.608518 0 0 0-52.506266 48.722951l-1.840531 13.701733q-5.981726 3.169804-11.707824 6.748614l-12.832592-5.112586a52.659644 52.659644 0 0 0-68.355285 21.166109L582.834889 698.941734a52.710769 52.710769 0 0 0 16.002397 69.684558l10.838684 8.435768v13.650607l-10.940936 8.333516a52.659644 52.659644 0 0 0-15.849019 69.837935l34.509961 59.817265a52.659644 52.659644 0 0 0 68.457536 21.114983l12.730341-5.112586q5.726097 3.578811 11.707824 6.697488l1.840531 13.701733a52.608518 52.608518 0 0 0 52.506266 48.671826h69.019921a52.608518 52.608518 0 0 0 52.506266-48.671826l1.891657-13.752859q5.981726-3.169804 11.707824-6.697488l12.781467 5.112586a52.659644 52.659644 0 0 0 68.406411-21.166109l34.458834-59.766139a52.710769 52.710769 0 0 0-15.849019-69.786809z m-67.639522-31.289031a123.417844 123.417844 0 0 1 0 32.158171l-1.993909 15.849019 35.788107 27.659094-31.646912 54.858056-41.769834-17.07604L879.364921 891.072745a132.927255 132.927255 0 0 1-28.068101 16.155774l-14.621998 6.18623-6.135105 44.735134h-63.038194l-6.083978-44.78626-14.621999-6.18623a133.234011 133.234011 0 0 1-28.068101-16.155774l-12.679215-9.509412-41.718708 17.127166-31.646912-54.858056 35.788107-27.71022-1.993908-15.849019a122.702082 122.702082 0 0 1 0-32.107045l1.993908-15.849019-35.788107-27.71022 31.646912-54.858056 41.718708 17.07604 12.679215-9.509411a134.000899 134.000899 0 0 1 28.119227-16.155774l14.621998-6.18623 6.135105-44.78626h63.191572l6.083978 44.78626 14.673124 6.237355a132.313745 132.313745 0 0 1 28.068101 16.155775l12.628089 9.560537 41.718708-17.127166 31.646912 54.858056-35.788107 27.659094z" p-id="4372"></path><path d="M799.046183 671.231514a112.476908 112.476908 0 0 0 0 224.953817 112.476908 112.476908 0 0 0 112.476909-112.476908 112.476908 112.476908 0 0 0-112.476909-112.476909z m56.647461 112.476909a56.545209 56.545209 0 1 1-56.545209-56.238454 56.596335 56.596335 0 0 1 56.545209 56.238454z" p-id="4373"></path><path d="M681.456688 987.75176a11.912327 11.912327 0 0 0-12.628089-7.259873 84.459933 84.459933 0 0 1-80.472116-35.788107H73.314494a9.458285 9.458285 0 0 1-9.458286-9.40716V74.84827a9.458285 9.458285 0 0 1 9.458286-9.458285L603.285236 64.060712l2.60742 140.084877a19.683459 19.683459 0 0 0 19.683459 19.683459h140.033751v291.008438h63.907334V170.709272a25.971941 25.971941 0 0 0-7.566628-18.354187L676.344101 6.595237a22.546508 22.546508 0 0 0-15.951271-6.595237L36.094862 1.48265A36.094862 36.094862 0 0 0 0 37.577513v934.989864A36.094862 36.094862 0 0 0 36.094862 1008.66224h636.414799a11.861201 11.861201 0 0 0 10.63418-17.07604q-0.86914-1.891657-1.687153-3.83444zM739.07554 159.972839h-62.22018a7.05537 7.05537 0 0 1-7.106496-7.106495V90.595037z" p-id="4374"></path></svg>