<svg t="1774260004614" class="icon" viewBox="0 0 1024 1024" version="1.1" xmlns="http://www.w3.org/2000/svg" p-id="5006" width="200" height="200"><path d="M607.573 904.533H395.947C290.133 904.533 204.8 819.2 204.8 716.8v-78.507L129.707 563.2c-37.547-37.547-37.547-95.573 0-133.12 17.066-17.067 37.546-23.893 58.026-27.307-30.72-37.546-27.306-92.16 6.827-126.293 27.307-27.307 78.507-34.133 112.64-13.653 0-23.894 10.24-44.374 27.307-61.44s40.96-27.307 64.853-27.307 47.787 10.24 64.853 27.307c3.414-20.48 13.654-37.547 30.72-54.614s40.96-27.306 64.854-27.306 47.786 10.24 64.853 27.306L839.68 368.64c51.2 51.2 81.92 122.88 81.92 197.973 0 81.92-23.893 150.187-71.68 197.974l-75.093 71.68c-47.787 44.373-105.814 68.266-167.254 68.266z m-368.64-232.106V716.8c0 85.333 71.68 153.6 157.014 153.6h211.626c51.2 0 102.4-20.48 139.947-58.027l75.093-71.68c40.96-40.96 61.44-102.4 61.44-174.08 0-64.853-23.893-126.293-71.68-174.08l-61.44-68.266-150.186-153.6c-10.24-10.24-27.307-17.067-40.96-17.067-17.067 0-30.72 6.827-40.96 17.067-20.48 20.48-30.72 51.2-6.827 78.506l13.653 13.654c6.827 6.826 6.827 17.066 0 23.893-6.826 6.827-17.066 6.827-23.893 0l-13.653-13.653-3.414-3.414-44.373-47.786c-10.24-10.24-27.307-17.067-40.96-17.067-17.067 0-30.72 6.827-40.96 17.067-23.893 23.893-23.893 61.44 0 85.333l47.787 54.613c6.826 6.827 6.826 17.067 0 23.894-6.827 6.826-17.067 6.826-23.894 0l-81.92-85.334c-20.48-20.48-61.44-20.48-81.92 0-23.893 23.894-23.893 61.44 0 85.334l81.92 78.506c6.827 6.827 6.827 17.067 0 23.894s-17.066 6.826-23.893 0l-37.547-34.134c-13.653-13.653-27.306-17.066-40.96-17.066-17.066 0-30.72 6.826-40.96 17.066-23.893 23.894-23.893 61.44 0 85.334l163.84 167.253c6.827 6.827 6.827 17.067 0 23.893-6.826 6.827-17.066 6.827-23.893 0l-58.027-58.026z" p-id="5007"></path></svg>