<svg t="1767678413942" class="icon" viewBox="0 0 1365 1024" version="1.1" xmlns="http://www.w3.org/2000/svg" p-id="11273" data-spm-anchor-id="a313x.search_index.0.i15.33473a81xvkf2X" width="200" height="200"><path d="M665.088 121.924267h165.4784V236.885333h-165.4784z" fill="#E6E6E6" p-id="11274"></path><path d="M707.754667 178.312533c4.983467 0 5.666133-2.730667 5.666133-5.188266a42.666667 42.666667 0 0 0-0.546133-5.870934 37.137067 37.137067 0 0 1-0.580267-5.802666c0-6.4512 4.1984-9.181867 10.24-9.181867h1.501867v3.857067h-1.262934c-4.130133 0-5.5296 2.2528-5.5296 6.007466a31.5392 31.5392 0 0 0 0.477867 4.983467 33.211733 33.211733 0 0 1 0.477867 5.3248 6.826667 6.826667 0 0 1-5.0176 7.543467 6.826667 6.826667 0 0 1 4.9152 7.748266 32.426667 32.426667 0 0 1-0.477867 5.290667 32.768 32.768 0 0 0-0.477867 4.949333c0 3.925333 1.604267 6.075733 5.5296 6.075734h1.262934V208.213333h-1.501867c-5.802667 0-10.24-2.525867-10.24-9.591466a36.693333 36.693333 0 0 1 0.580267-5.7344 39.3216 39.3216 0 0 0 0.6144-5.8368c0-2.1504-0.682667-5.188267-5.666134-5.188267zM789.777067 182.033067c-4.983467 0-5.666133 2.730667-5.666134 5.154133a42.1888 42.1888 0 0 0 0.546134 5.870933 42.257067 42.257067 0 0 1 0.580266 5.8368c0 6.417067-4.1984 9.147733-10.24 9.147734h-1.467733v-3.857067h1.297067c4.130133 0 5.5296-2.218667 5.5296-6.007467a31.1296 31.1296 0 0 0-0.477867-4.949333 33.928533 33.928533 0 0 1-0.512-5.3248 6.826667 6.826667 0 0 1 5.051733-7.5776 6.826667 6.826667 0 0 1-5.051733-7.611733 32.392533 32.392533 0 0 1 0.512-5.3248 31.982933 31.982933 0 0 0 0.477867-5.051734c0-3.8912-1.604267-6.075733-5.5296-6.075733h-1.262934v-3.9936h1.467734c5.802667 0 10.24 2.525867 10.24 9.591467a40.311467 40.311467 0 0 1-0.580267 5.7344 40.277333 40.277333 0 0 0-0.546133 5.666133c0 2.184533 0.682667 5.188267 5.666133 5.188267z" fill="#9E9E9E" p-id="11275"></path><path d="M235.349333 279.1424h344.029867v344.029867H235.349333z" fill="#24285B" p-id="11276"></path><path d="M335.872 430.08h110.523733v12.356267H335.872z" fill="#409EFF" p-id="11277"></path><path d="M367.581867 395.639467h98.781866v12.356266h-98.781866zM461.755733 526.199467h51.541334v12.356266h-51.541334zM409.668267 491.4176h51.541333v12.356267h-51.541333z" fill="#FFD200" p-id="11278"></path><path d="M367.581867 459.9808h131.6864v12.356267h-131.6864z" fill="#409EFF" p-id="11279"></path><path d="M294.877867 459.9808h49.527466v12.356267H294.877867zM344.200533 492.475733h49.527467v12.356267h-49.527467zM297.301333 558.762667h49.527467v12.356266H297.301333zM263.202133 430.08h49.527467v12.356267H263.202133z" fill="#FFFFFF" p-id="11280"></path><path d="M257.877333 299.997867m-5.8368 0a5.8368 5.8368 0 1 0 11.6736 0 5.8368 5.8368 0 1 0-11.6736 0Z" fill="#FFFFFF" p-id="11281"></path><path d="M275.217067 299.997867m-5.8368 0a5.8368 5.8368 0 1 0 11.6736 0 5.8368 5.8368 0 1 0-11.6736 0Z" fill="#409EFF" p-id="11282"></path><path d="M291.5328 299.997867m-5.8368 0a5.8368 5.8368 0 1 0 11.6736 0 5.8368 5.8368 0 1 0-11.6736 0Z" fill="#FFD200" p-id="11283"></path><path d="M263.202133 336.042667h49.527467v12.356266H263.202133zM294.877867 366.967467h49.527466v12.356266H294.877867z" fill="#FFFFFF" p-id="11284" data-spm-anchor-id="a313x.search_index.0.i13.33473a81xvkf2X"></path><path d="M367.581867 366.967467h98.781866v12.356266h-98.781866z" fill="#FFD200" p-id="11285"></path><path d="M294.877867 395.639467h49.527466v12.356266H294.877867z" fill="#FFFFFF" p-id="11286"></path><path d="M332.526933 336.042667h102.024534v12.356266H332.526933z" fill="#409EFF" p-id="11287"></path><path d="M264.6016 526.199467h49.527467v12.356266H264.6016z" fill="#FFFFFF" p-id="11288"></path><path d="M333.892267 526.199467h102.024533v12.356266H333.892267zM366.421333 558.6944h102.024534v12.356267h-102.024534zM455.8848 336.042667h72.430933v12.356266h-72.430933z" fill="#409EFF" p-id="11289"></path><path d="M671.914667 403.217067l17.92 99.6352-49.493334 3.6864 9.898667-79.906134 21.674667-23.415466z" fill="#F4A28C" p-id="11290"></path><path d="M648.157867 439.057067a27.716267 27.716267 0 0 0 13.653333-8.4992s-0.3072 14.1312-15.530667 28.398933z" fill="#CE8172" opacity=".31" p-id="11291"></path><path d="M637.474133 397.653333s-4.778667 23.074133-2.6624 39.048534a11.810133 11.810133 0 0 0 13.346134 10.24c8.021333-1.160533 18.5344-5.085867 22.596266-17.066667l9.386667-19.626667a21.162667 21.162667 0 0 0-6.621867-23.552c-12.0832-11.229867-33.860267-3.242667-36.0448 10.9568z" fill="#F4A28C" p-id="11292"></path><path d="M635.221333 412.330667l-7.5776 8.260266a3.754667 3.754667 0 0 0 1.6384 6.144l8.772267 2.7648z" fill="#F4A28C" p-id="11293"></path><path d="M679.253333 434.449067l8.157867-30.993067s17.885867-3.037867 12.526933-14.711467-12.526933-3.925333-12.765866-17.339733-11.127467-16.110933-18.875734-8.6016-4.130133-3.003733-13.653333-4.437333-12.1856 2.833067-12.424533 10.24-14.097067-0.512-17.7152 8.738133-4.096 18.2272 19.8656 19.7632 6.7584 21.162667 34.884266 37.341867z" fill="#24285B" p-id="11294"></path><path d="M660.002133 420.590933s1.2288-8.977067 7.918934-7.509333 4.983467 14.506667-4.369067 14.6432z" fill="#F4A28C" p-id="11295"></path><path d="M347.477333 825.685333a330.274133 74.3424 0 1 0 660.548267 0 330.274133 74.3424 0 1 0-660.548267 0Z" fill="#E6E6E6" opacity=".45" p-id="11296"></path><path d="M627.3024 491.997867s-139.6736-40.3456-139.025067 61.098666c0.512 76.629333 86.459733 239.3088 86.459734 239.3088h177.493333s134.656-206.5408 69.154133-273.066666-80.520533-9.3184-194.082133-27.3408z" fill="#409EFF" p-id="11297"></path><path d="M574.464 817.2544l107.997867 29.115733 95.812266-48.605866 14.5408-25.941334h-250.197333l31.8464 45.431467z" fill="#24285B" p-id="11298"></path><path d="M742.1952 506.538667s-52.360533 26.282667-37.341867 162.474666c4.232533 38.331733-8.6016 47.786667-8.6016 47.786667l-149.674666 14.984533 28.16 60.586667h177.493333S830.122667 665.6 836.266667 600.302933s-94.071467-93.764267-94.071467-93.764266z" opacity=".08" p-id="11299"></path><path d="M658.773333 817.220267s36.352 12.731733 23.893334 29.149866-32.221867-10.8544-32.221867-10.8544z" fill="#409EFF" p-id="11300"></path><path d="M659.729067 810.871467s-146.773333-75.093333-159.4368-35.089067 88.746667 63.112533 154.077866 65.501867zM695.3984 816.776533s117.179733-116.053333 141.2096-81.92-65.3312 87.074133-126.8736 109.226667z" fill="#24285B" p-id="11301"></path><path d="M700.0064 825.514667s-34.7136 30.9248-14.609067 40.0384 24.337067-21.469867 24.337067-21.469867zM732.603733 534.801067c-0.546133-39.082667 46.592-59.869867 74.752-32.802134 20.650667 19.8656 40.789333 49.664 50.722134 93.832534 25.088 111.240533 70.178133 94.208 92.16 59.118933s17.749333-112.2304 17.749333-112.2304l40.0384 0.750933s34.372267 200.2944-112.8448 207.735467c-113.322667 5.700267-161.314133-122.709333-162.577067-216.405333z" fill="#409EFF" p-id="11302"></path><path d="M732.603733 534.801067c-0.546133-39.082667 46.592-59.869867 74.752-32.802134 20.650667 19.8656 40.789333 49.664 50.722134 93.832534 25.088 111.240533 70.178133 94.208 92.16 59.118933s17.749333-112.2304 17.749333-112.2304l40.0384 0.750933s34.372267 200.2944-112.8448 207.735467c-113.322667 5.700267-161.314133-122.709333-162.577067-216.405333z" fill="#FFFFFF" opacity=".54" p-id="11303"></path><path d="M995.362133 461.892267h16.145067v141.824h-16.145067z" fill="#24285B" p-id="11304"></path><path d="M589.585067 753.834667l-12.526934-114.0736h191.556267l-19.114667 119.9104 2.730667 15.36-164.6592 1.297066 2.013867-22.493866z" fill="#FFD200" p-id="11305"></path><path d="M379.357867 623.138133s23.005867-139.707733 171.246933-137.9328l-118.8864 137.9328z" opacity=".28" p-id="11306"></path><path d="M674.7136 701.201067m-16.418133 0a16.418133 16.418133 0 1 0 32.836266 0 16.418133 16.418133 0 1 0-32.836266 0Z" fill="#FFFFFF" p-id="11307"></path><path d="M554.1888 492.6464a40.584533 40.584533 0 0 0-51.6096 12.0832c-29.149867 38.946133-92.16 131.549867-89.3952 198.724267 3.754667 87.210667 193.9456 75.093333 193.9456 75.093333l-3.754667-32.9728S488.106667 737.28 519.918933 679.424c21.6064-39.355733 90.248533-156.091733 34.269867-186.7776z" fill="#409EFF" p-id="11308"></path><path d="M554.1888 492.6464a40.584533 40.584533 0 0 0-51.6096 12.0832c-29.149867 38.946133-92.16 131.549867-89.3952 198.724267 3.754667 87.210667 193.9456 75.093333 193.9456 75.093333l-3.754667-32.9728S488.106667 737.28 519.918933 679.424c21.6064-39.355733 90.248533-156.091733 34.269867-186.7776z" fill="#FFFFFF" opacity=".54" p-id="11309"></path><path d="M978.056533 542.890667s-4.5056-34.542933 26.077867-30.5152 30.3104 28.5696 3.8912 31.061333z" fill="#F4A28C" p-id="11310"></path><path d="M914.909867 364.032h174.7968v111.752533h-174.7968z" fill="#FFD200" p-id="11311"></path><path d="M979.626667 445.576533a4.096 4.096 0 0 1-2.525867-0.853333l-26.5216-20.957867a4.232533 4.232533 0 0 1-1.570133-3.208533 4.164267 4.164267 0 0 1 1.536-3.208533l26.5216-21.333334a4.096 4.096 0 1 1 5.12 6.382934l-22.493867 18.1248 22.493867 17.749333a4.130133 4.130133 0 0 1 0.648533 5.768533 3.9936 3.9936 0 0 1-3.208533 1.536zM1027.413333 445.576533a4.096 4.096 0 0 1-2.56-7.304533l22.493867-17.749333-22.528-18.1248a4.130133 4.130133 0 0 1-0.6144-5.768534 4.096 4.096 0 0 1 5.768533-0.6144l26.5216 21.333334a4.027733 4.027733 0 0 1 1.501867 3.208533 4.1984 4.1984 0 0 1-1.536 3.208533l-26.5216 20.957867a4.096 4.096 0 0 1-2.525867 0.853333zM992.3584 445.576533a4.1984 4.1984 0 0 1-1.672533-0.341333 4.096 4.096 0 0 1-2.048-5.4272l19.319466-42.325333a4.096 4.096 0 0 1 7.4752 3.413333l-19.319466 42.2912a4.164267 4.164267 0 0 1-3.754667 2.389333z" fill="#FFFFFF" p-id="11312"></path><path d="M604.16 753.220267s29.218133-10.24 36.215467 1.877333-3.413333 28.603733-33.314134 23.4496z" fill="#F4A28C" p-id="11313"></path></svg>