<svg data-v-43f3029b="" data-v-bb75db56="" xmlns="http://www.w3.org/2000/svg" xmlns:xlink="http://www.w3.org/1999/xlink" aria-hidden="true" role="img" width="1em" height="1em" viewBox="0 0 1024 1024" class="iconify iconify--ep fx-icon iconify-ep-menu" style="width: 32px; height: 32px; font-size: 32px; color: currentcolor; --43f3029b-props\.color: currentColor;">
  <path fill="currentColor" d="M160 448a32 32 0 0 1-32-32V160a32 32 0 0 1 32-32h256a32 32 0 0 1 32 32v256a32 32 0 0 1-32 32zm448 0a32 32 0 0 1-32-32V160a32 32 0 0 1 32-32h256a32 32 0 0 1 32 32v256a32 32 0 0 1-32 32zM160 896a32 32 0 0 1-32-32V608a32 32 0 0 1 32-32h256a32 32 0 0 1 32 32v256a32 32 0 0 1-32 32zm448 0a32 32 0 0 1-32-32V608a32 32 0 0 1 32-32h256a32 32 0 0 1 32 32v256a32 32 0 0 1-32 32z"></path>
  <path fill="none" stroke="currentColor" stroke-width="96" stroke-linecap="round" d="M1024 0 L0 1024"></path>
</svg>