<svg t="1775617013579" class="icon" viewBox="0 0 1024 1024" version="1.1" xmlns="http://www.w3.org/2000/svg" p-id="6088" width="200" height="200"><path d="M1016.72771 450.379994a508.363213 508.363213 0 0 0-192.411573-341.222653A508.20327 508.20327 0 0 0 446.978327 3.914768 506.219976 506.219976 0 0 0 185.59928 115.203191l3.646703-25.750842a47.982936 47.982936 0 0 0-95.038202-13.403234l-19.768969 139.982219a47.982936 47.982936 0 0 0 40.817484 54.220718l147.435568 20.792605a47.982936 47.982936 0 0 0 13.371245-95.038202l-32.30851-4.542384a411.277739 411.277739 0 0 1 214.80361-92.255192 412.781205 412.781205 0 0 1 306.578973 85.473603 413.165068 413.165068 0 0 1 156.328406 277.245405 412.845182 412.845182 0 0 1-85.505592 306.578973A413.293023 413.293023 0 0 1 558.714591 924.835265c-227.471106 27.862092-435.269207-135.119948-462.87539-362.750996a47.950947 47.950947 0 0 0-53.421002-41.873109c-26.294649 3.198862-45.039983 27.126353-41.873109 53.421002 31.444817 259.331775 252.774107 450.207895 507.75543 450.207895 20.472719 0 41.169359-1.215568 61.993953-3.742669a508.395202 508.395202 0 0 0 341.222653-192.443562 508.20327 508.20327 0 0 0 105.210584-377.273832z" p-id="6089"></path><path d="M807.778018 254.48166c-0.575795-1.343522-1.343522-2.527101-2.015283-3.806646a47.023277 47.023277 0 0 0-8.125111-10.908121c-0.671761-0.671761-0.92767-1.567443-1.663408-2.207215-0.543807-0.479829-1.15159-0.767727-1.695397-1.247556-0.319886-0.255909-0.543807-0.639772-0.863693-0.895682-0.511818-0.415852-1.15159-0.575795-1.663409-0.959659a46.703391 46.703391 0 0 0-8.636928-4.958236c-0.70375-0.319886-1.375511-0.70375-2.111249-0.959659a48.334811 48.334811 0 0 0-11.675848-2.878976c-0.511818-0.063977-1.055625-0.031989-1.567443-0.063978a47.535095 47.535095 0 0 0-10.652212 0.383864c-0.799716 0.127954-1.599431 0.191932-2.399146 0.351875a47.66305 47.66305 0 0 0-11.707837 3.774657l-0.127954 0.031989-568.245918 277.59728a47.950947 47.950947 0 0 0 6.909543 88.960363l133.424551 41.233336a48.174868 48.174868 0 0 0 60.010659-31.668737 47.982936 47.982936 0 0 0-31.668738-60.042648l-17.657721-5.438066 237.995363-116.24666-157.671928 175.585558a47.982936 47.982936 0 0 0-12.283631 32.052601v153.833293a47.982936 47.982936 0 1 0 95.965872 0v-82.146786l169.347775 49.806287a48.174868 48.174868 0 0 0 38.162429-4.830282 47.982936 47.982936 0 0 0 22.32806-31.316863L810.880914 283.143467c0.735738-3.582726 0.767727-7.165452 0.70375-10.716189 0-0.735738 0.191932-1.439488 0.159943-2.143238a48.078902 48.078902 0 0 0-3.966589-15.80238z m-171.554991 392.468428l-113.399672-33.364135 157.320053-175.169705-43.920381 208.53384z" p-id="6090"></path></svg>