<svg t="1773741570790" class="icon" viewBox="0 0 1024 1024" version="1.1" xmlns="http://www.w3.org/2000/svg" p-id="36984" width="200" height="200"><path d="M732.85 543.37l-204.54 38.12a16.89 16.89 0 0 1-5.53 0l-205.35-38.12a16.15 16.15 0 0 1-13-16.09V212.23c0-10.16 8.85-17.9 18.5-16.09l199.72 37.11a17.06 17.06 0 0 0 5.53 0l199-37.11c9.65-1.81 18.61 5.93 18.61 16.09v315.05a16.25 16.25 0 0 1-13 16.09z m0 0" fill="#FFD500" p-id="36985"></path><path d="M712.84 543.37l-21 3.82 0.7-348.44L707.2 196c9.66-1.81 18.6 5.94 18.6 16.09v315.09a16.17 16.17 0 0 1-13 16.19z m0 0" fill="#FFB600" p-id="36986"></path><path d="M790 711.81l-257 48a16.83 16.83 0 0 1-5.53 0l-258.01-47.89a16.15 16.15 0 0 1-13-16.09V297.71c0-10.16 8.85-17.9 18.5-16.09l252.44 46.85a16.9 16.9 0 0 0 5.53 0l251.5-46.86c9.65-1.81 18.61 5.93 18.61 16.09v398.13c-0.1 7.84-5.53 14.68-13.08 16z m0 0" fill="#00B1FF" p-id="36987"></path><path d="M195.15 830.48H165a7 7 0 0 1-7-7v-2a7 7 0 0 1 7-7h30.17a7 7 0 0 1 7 7v2a7 7 0 0 1-7 7z m0 0" fill="#5C3290" p-id="36988"></path><path d="M587.84 831.48H201.68a8 8 0 1 1 0-16.08h386.16a8 8 0 1 1 0 16.08z m301.48 0h-98.55a8 8 0 1 1 0-16.08h98.55a8 8 0 1 1 0 16.08z m-175.68 0H669.4a8 8 0 1 1 0-16.08h44.25a8 8 0 1 1 0 16.08z m-574.5 0h-4a8 8 0 1 1 0-16.08h4a8 8 0 0 1 0 16.08z m614.23 0h-4a8 8 0 1 1 0-16.08h4a8 8 0 1 1 0 16.08z m0 0" fill="#5C3290" p-id="36989"></path><path d="M577.79 880.36H392.35a7.86 7.86 0 0 1-7.85-7.85v-0.3a7.86 7.86 0 0 1 7.85-7.85h185.33a7.86 7.86 0 0 1 7.85 7.85v0.3a7.71 7.71 0 0 1-7.74 7.85z m-211.88 0h-28.47a7.86 7.86 0 0 1-7.84-7.85v-0.3a7.85 7.85 0 0 1 7.84-7.85h28.46a7.86 7.86 0 0 1 7.85 7.85v0.3a7.86 7.86 0 0 1-7.85 7.85z m351.06 0h-98.86a7.86 7.86 0 0 1-7.84-7.85v-0.3a7.85 7.85 0 0 1 7.84-7.85H717a7.85 7.85 0 0 1 7.84 7.85v0.3a7.85 7.85 0 0 1-7.84 7.85z m-407.07 0h-4.33a7.85 7.85 0 0 1-7.84-7.85v-0.3a7.85 7.85 0 0 1 7.84-7.85h4.33a7.85 7.85 0 0 1 7.84 7.85v0.3a7.85 7.85 0 0 1-7.84 7.85z m0 0" fill="#AD98C7" p-id="36990"></path><path d="M478.63 929.23h-28.16a8 8 0 0 1 0-16.09h28.16a8 8 0 1 1 0 16.09z m125.2 0h-98.55a8 8 0 1 1 0-16.09h98.55a8 8 0 0 1 0 16.09z m-181.31 0h-4a8 8 0 0 1 0-16.09h4a8 8 0 0 1 0 16.09z m0 0" fill="#EEEAF4" p-id="36991"></path><path d="M762.72 711.81l-28.86 5.63V285.73l23.33-4c9.65-1.81 18.61 5.94 18.61 16.09v398a16.12 16.12 0 0 1-13.08 16z m0 0" fill="#0091F1" p-id="36992"></path><path d="M720.18 439.09l-118.46 21.12a14.43 14.43 0 0 1-17-14.18v-37.31a14.44 14.44 0 0 1 11.86-14.18l118.46-21.12a14.43 14.43 0 0 1 17 14.18v37.31a14.43 14.43 0 0 1-11.87 14.18z m0 0" fill="#7BD721" p-id="36993"></path><path d="M720.18 439.09l-13.27 2.62V375l8.24-1.51a14.44 14.44 0 0 1 17 14.18V425a14.59 14.59 0 0 1-12 14.08z m0 0" fill="#6EC11D" p-id="36994"></path><path d="M99.52 234.75a28.91 28.91 0 0 0-9.85 5.63 12.34 12.34 0 1 1-9.35 22.72 29.11 29.11 0 0 0 1.31 7 28 28 0 1 0 17.9-35.4z m0 0" fill="#B6EFFF" p-id="36995"></path><path d="M115.1 254.06a20 20 0 1 1-12.87-12.77 5.81 5.81 0 0 0 5.93-1.2l0.2-0.2a5.89 5.89 0 0 0-2.11-10 32.45 32.45 0 1 0 20.31 20.51 6 6 0 0 0-9.86-2.62 6.12 6.12 0 0 0-1.61 6.24z m0 0" fill="#5C3290" p-id="36996"></path><path d="M198.37 151.69a8 8 0 1 0 8-8 8 8 0 0 0-8 8z m0 0" fill="#5C3390" p-id="36997"></path><path d="M841.16 150.58a10.06 10.06 0 1 0 10.06-10.06 10.06 10.06 0 0 0-10.06 10.06z m0 0" fill="#FFA819" p-id="36998"></path><path d="M497.64 132.78h-0.1a9.41 9.41 0 0 1 4.52 6.94 9.63 9.63 0 0 1-18.2 5.53 15.55 15.55 0 0 0-0.3 6.13 16.44 16.44 0 1 0 14.08-18.6z m0 0" fill="#FFE404" p-id="36999"></path><path d="M373.14 107.75a22.12 22.12 0 1 0 22.12 22.12 22.06 22.06 0 0 0-22.12-22.12z m0 30.17a8 8 0 1 1 8-8 8.07 8.07 0 0 1-8 8z m0 0" fill="#5C3290" p-id="37000"></path><path d="M941.72 383.08a18.1 18.1 0 1 0 18.1 18.1 18.15 18.15 0 0 0-18.1-18.1z m0 24.74a6.54 6.54 0 1 1 6.54-6.54 6.52 6.52 0 0 1-6.54 6.54z m0 0" fill="#EEEAF4" p-id="37001"></path><path d="M867.9 284.83H882a5 5 0 1 1 0 10.06h-14.1a5 5 0 1 1 0-10.06z m17.7 26.55V297.3a5 5 0 1 1 10.06 0v14.08a5 5 0 0 1-5 5 5 5 0 0 1-5-5z m26.55-17.7h-14.08a5 5 0 1 1 0-10.06h14.08a5 5 0 0 1 5 5 5 5 0 0 1-5 5z m-17.7-26.55v14.08a5 5 0 0 1-10.06 0v-14.08a5 5 0 1 1 10.06 0z m0 0" fill="#AD98C7" p-id="37002"></path><path d="M92.27 396.25a4.83 4.83 0 1 0 2.42-4.18 4.83 4.83 0 0 0-2.42 4.18z m0 0M128.68 393.74a4.83 4.83 0 1 0 2.42-4.18 4.82 4.82 0 0 0-2.42 4.18z m0 0M108.77 379.86a4.83 4.83 0 1 0 2.41-4.18 4.83 4.83 0 0 0-2.41 4.18z m0 0M110.48 412.95a4.83 4.83 0 1 0 2.42-4.18 4.82 4.82 0 0 0-2.42 4.18z m0 0M93.08 369.61L108 384.49a4.05 4.05 0 0 1-5.73 5.73l-14.92-14.88a4.05 4.05 0 0 1 5.73-5.73z m-5.63 47.77l14.88-14.88a4.05 4.05 0 1 1 5.74 5.73L93.18 423.1a4.05 4.05 0 0 1-5.74-5.73z m49.27 4.83l-14.88-14.88a4.06 4.06 0 0 1 5.73-5.74l14.88 14.88a4 4 0 0 1 0 5.74 4.2 4.2 0 0 1-5.73 0z m4-48.57l-14.88 14.88a4.05 4.05 0 1 1-5.74-5.73L135 367.9a4.05 4.05 0 0 1 5.74 5.73z m0 0" fill="#FCDDCC" p-id="37003"></path><path d="M603.73 116.19l-7.14-7.14a4.05 4.05 0 1 1 5.74-5.73l7.14 7.14a4.05 4.05 0 1 1-5.73 5.73z m-1.21 12.17h-10.05a4 4 0 0 1 0-8h10.06a4 4 0 0 1 0 8z m7.74 9.56l-7.14 7.14a4.05 4.05 0 0 1-5.74-5.73l7.14-7.14a4.06 4.06 0 0 1 5.73 5.74z m12.17 1.21v10.06a4 4 0 0 1-8 0v-10.07a4 4 0 1 1 8 0z m9.55-7.74l7.14 7.14a4.05 4.05 0 0 1-5.73 5.73l-7.14-7.14a4 4 0 0 1 0-5.73 4.19 4.19 0 0 1 5.73 0z m1.21-12.17h10.06a4 4 0 0 1 0 8h-10.06a4 4 0 1 1 0-8z m-7.74-9.46l7.14-7.14a4.06 4.06 0 0 1 5.74 5.73l-7.14 7.14a4 4 0 0 1-5.74 0 4.2 4.2 0 0 1 0-5.74z m-12.17-1.31V98.39a4 4 0 0 1 8 0v10.06a4 4 0 0 1-8 0z m0 0" fill="#7BD721" p-id="37004"></path><path d="M849.8 378.36a8 8 0 1 0 8-8 8 8 0 0 0-8 8z m0 0" fill="#4CC6F4" p-id="37005"></path></svg>