<svg t="1773744032277" class="icon" viewBox="0 0 1024 1024" version="1.1" xmlns="http://www.w3.org/2000/svg" p-id="87449" width="200" height="200"><path d="M609.28 734.208h-471.04c-26.624 0-48.128-21.504-48.128-48.128s21.504-48.128 48.128-48.128h470.016c26.624 0 48.128 21.504 48.128 48.128 1.024 26.624-21.504 48.128-47.104 48.128z m0 0" fill="#1651E5" opacity=".3" p-id="87450"></path><path d="M769.024 904.192H95.232c-26.624 0-48.128 21.504-48.128 48.128s21.504 48.128 48.128 48.128h674.816v-96.256z" fill="#1651E5" opacity=".3" p-id="87451"></path><path d="M786.432 904.192h40.96v95.232h-40.96z" fill="#1651E5" opacity=".3" p-id="87452"></path><path d="M876.544 904.192h25.6v95.232h-25.6z" fill="#1651E5" opacity=".3" p-id="87453"></path><path d="M975.872 904.192h-60.416v95.232h60.416c26.624 0 48.128-21.504 48.128-48.128 0-25.6-21.504-47.104-48.128-47.104z" fill="#1651E5" opacity=".3" p-id="87454"></path><path d="M961.536 461.824c-14.336 0-25.6-12.288-25.6-25.6 0-14.336 12.288-25.6 25.6-25.6 14.336 0 25.6 12.288 25.6 25.6 0 14.336-11.264 25.6-25.6 25.6z m0-39.936c-8.192 0-14.336 7.168-14.336 14.336s7.168 14.336 14.336 14.336 14.336-7.168 14.336-14.336-6.144-14.336-14.336-14.336z m0 0" fill="#1651E5" opacity=".3" p-id="87455"></path><path d="M278.528 183.296c-8.192 0-15.36-3.072-21.504-8.192-7.168-6.144-11.264-14.336-12.288-22.528-1.024-8.192 2.048-17.408 8.192-24.576 6.144-7.168 14.336-11.264 22.528-12.288 18.432-1.024 34.816 12.288 35.84 30.72 1.024 18.432-12.288 34.816-30.72 35.84 0 1.024-2.048 1.024-2.048 1.024z m0-56.32H276.48c-6.144 1.024-12.288 3.072-16.384 8.192-4.096 5.12-6.144 10.24-5.12 17.408 1.024 7.168 3.072 12.288 8.192 16.384 5.12 4.096 11.264 6.144 17.408 5.12 13.312-1.024 22.528-12.288 21.504-25.6-1.024-13.312-12.288-21.504-23.552-21.504z m0 0" fill="#1651E5" opacity=".3" p-id="87456"></path><path d="M55.296 615.424c-3.072 0-6.144-3.072-6.144-6.144V573.44l-25.6 25.6c-2.048 2.048-6.144 2.048-8.192 0-2.048-2.048-2.048-6.144 0-8.192L40.96 565.248H6.144c-3.072 0-6.144-2.048-6.144-5.12s3.072-6.144 6.144-6.144H40.96l-25.6-25.6c-2.048-2.048-2.048-6.144 0-8.192 2.048-2.048 6.144-2.048 8.192 0l25.6 25.6v-35.84c0-3.072 3.072-6.144 6.144-6.144s6.144 3.072 6.144 6.144v35.84l25.6-25.6c2.048-2.048 6.144-2.048 8.192 0 2.048 2.048 2.048 6.144 0 8.192l-25.6 25.6h35.84c3.072 0 6.144 3.072 6.144 6.144s-3.072 6.144-6.144 6.144H69.632l25.6 25.6c2.048 2.048 2.048 6.144 0 8.192-2.048 2.048-6.144 2.048-8.192 0L61.44 573.44v35.84c0 3.072-3.072 6.144-6.144 6.144z m0 0" fill="#1651E5" opacity=".3" p-id="87457"></path><path d="M1013.76 718.848h-48.128c-3.072 0-6.144-3.072-6.144-6.144s3.072-6.144 6.144-6.144H1013.76c3.072 0 6.144 3.072 6.144 6.144-1.024 3.072-3.072 6.144-6.144 6.144z m0 0" fill="#1651E5" p-id="87458"></path><path d="M989.184 742.4c-3.072 0-6.144-3.072-6.144-6.144v-48.128c0-3.072 3.072-6.144 6.144-6.144s6.144 3.072 6.144 6.144v48.128c0 3.072-3.072 6.144-6.144 6.144zM494.592 151.552h-48.128c-3.072 0-6.144-3.072-6.144-6.144s3.072-6.144 6.144-6.144h48.128c3.072 0 6.144 3.072 6.144 6.144-1.024 3.072-3.072 6.144-6.144 6.144z" fill="#1651E5" p-id="87459"></path><path d="M470.016 175.104c-3.072 0-6.144-3.072-6.144-6.144v-48.128c0-3.072 3.072-6.144 6.144-6.144s6.144 3.072 6.144 6.144v48.128c-1.024 4.096-3.072 6.144-6.144 6.144z m0 0" fill="#1651E5" p-id="87460"></path><path d="M779.264 140.288c0 27.648-19.456 51.2-43.008 51.2 23.552 0 43.008 22.528 43.008 51.2 0-27.648 19.456-51.2 43.008-51.2-23.552 0-43.008-22.528-43.008-51.2z m0 0" fill="#1651E5" opacity=".3" p-id="87461"></path><path d="M613.376 75.776c-14.336 0-25.6-12.288-25.6-25.6 0-14.336 12.288-25.6 25.6-25.6 14.336 0 25.6 12.288 25.6 25.6 0 14.336-11.264 25.6-25.6 25.6z m0-40.96c-8.192 0-14.336 7.168-14.336 14.336 0 8.192 7.168 14.336 14.336 14.336 8.192 0 14.336-7.168 14.336-14.336 0-8.192-7.168-14.336-14.336-14.336z m0 0" fill="#1651E5" opacity=".3" p-id="87462"></path><path d="M113.664 218.112c0 47.104 31.744 84.992 71.68 84.992-39.936 0-71.68 37.888-71.68 84.992 0-47.104-31.744-84.992-71.68-84.992 39.936 0 71.68-37.888 71.68-84.992z m0 0" fill="#1651E5" opacity=".3" p-id="87463"></path><path d="M102.4 781.312c-11.264 0-20.48-9.216-20.48-20.48s9.216-20.48 20.48-20.48 20.48 9.216 20.48 20.48-9.216 20.48-20.48 20.48z m0-31.744c-6.144 0-11.264 5.12-11.264 11.264 0 6.144 5.12 11.264 11.264 11.264 6.144 0 11.264-5.12 11.264-11.264 0-6.144-5.12-11.264-11.264-11.264z m0 0" fill="#1651E5" opacity=".3" p-id="87464"></path><path d="M746.496 352.256l28.672 16.384c9.216 0 17.408 7.168 17.408 16.384v544.768c0 9.216-8.192 16.384-17.408 16.384h-430.08c-21.504 0-40.96-7.168-57.344-21.504-15.36-13.312-24.576-32.768-26.624-52.224V869.376c0-2.048-1.024-3.072-1.024-5.12V336.896" fill="#FFFFFF" p-id="87465"></path><path d="M329.728 273.408h-4.096c-26.624 0-47.104 17.408-47.104 39.936 0 21.504 21.504 39.936 47.104 39.936h419.84v-80.896H330.752l-1.024 1.024z m0 0" fill="#1651E5" opacity=".3" p-id="87466"></path><path d="M747.52 352.256l27.648 16.384c9.216 0 16.384 7.168 16.384 16.384v544.768c0 9.216-7.168 16.384-16.384 16.384H361.472c-20.48 0-39.936-7.168-55.296-21.504-15.36-13.312-24.576-32.768-25.6-52.224V869.376c0-2.048-1.024-3.072-1.024-5.12V336.896" fill="#1651E5" opacity=".1" p-id="87467"></path><path d="M259.072 451.584c-6.144 0-11.264-5.12-11.264-11.264V300.032c0-6.144 5.12-11.264 11.264-11.264 6.144 0 11.264 5.12 11.264 11.264v139.264c0 7.168-5.12 12.288-11.264 12.288z m0 0M259.072 620.544c-6.144 0-11.264-5.12-11.264-11.264V501.76c0-6.144 5.12-11.264 11.264-11.264 6.144 0 11.264 5.12 11.264 11.264v107.52c0 6.144-5.12 11.264-11.264 11.264z m0 0" fill="#1651E5" p-id="87468"></path><path d="M325.632 498.688c-6.144 0-11.264-5.12-11.264-11.264v-50.176c0-6.144 5.12-11.264 11.264-11.264 6.144 0 11.264 5.12 11.264 11.264v50.176c1.024 6.144-4.096 11.264-11.264 11.264z m0 0M325.632 648.192c-6.144 0-11.264-5.12-11.264-11.264V529.408c0-6.144 5.12-11.264 11.264-11.264 6.144 0 11.264 5.12 11.264 11.264v107.52c1.024 6.144-4.096 11.264-11.264 11.264z m0 0" fill="#FF9F00" p-id="87469"></path><path d="M340.992 937.984c-23.552 0-45.056-8.192-62.464-24.576-17.408-15.36-27.648-36.864-29.696-59.392-1.024-3.072-1.024-5.12-1.024-8.192V700.416c0-6.144 5.12-11.264 11.264-11.264 6.144 0 11.264 5.12 11.264 11.264V847.872l1.024 3.072v3.072c1.024 17.408 9.216 32.768 22.528 45.056 13.312 12.288 29.696 18.432 47.104 18.432h414.72c3.072 0 5.12-2.048 5.12-5.12V819.2c0-6.144 5.12-11.264 11.264-11.264 6.144 0 11.264 5.12 11.264 11.264v93.184c0 15.36-12.288 28.672-28.672 28.672H342.016l-1.024-3.072z m0 0M772.096 731.136c-6.144 0-11.264-5.12-11.264-11.264V365.568c0-3.072-2.048-5.12-5.12-5.12h-27.648c-6.144 0-11.264-5.12-11.264-11.264 0-6.144 5.12-11.264 11.264-11.264h27.648c15.36 0 28.672 12.288 28.672 28.672v354.304c-1.024 5.12-6.144 10.24-12.288 10.24z m0 0" fill="#1651E5" p-id="87470"></path><path d="M736.256 360.448H309.248l-2.048-1.024h-1.024c-32.768 0-58.368-26.624-58.368-58.368 0-32.768 26.624-58.368 58.368-58.368h1.024l3.072-1.024H737.28l-1.024 118.784z m-423.936-23.552h401.408v-73.728H312.32c-2.048 0-4.096 1.024-6.144 1.024-19.456 0-35.84 16.384-35.84 35.84s16.384 35.84 35.84 35.84c1.024 1.024 3.072 1.024 6.144 1.024z m0 0" fill="#1651E5" p-id="87471"></path></svg>