<svg t="1767151286466" class="icon" viewBox="0 0 1024 1024" version="1.1" xmlns="http://www.w3.org/2000/svg" p-id="4526" xmlns:xlink="http://www.w3.org/1999/xlink" width="200" height="200"><path d="M483.852133 985.296682H15.287204a13.855545 13.855545 0 0 1-13.855545-13.855545V52.558863A13.855545 13.855545 0 0 1 15.287204 38.824645h468.564929a13.855545 13.855545 0 0 1 13.855545 13.855545v918.760947a13.855545 13.855545 0 0 1-13.855545 13.855545zM15.287204 39.309953A13.273175 13.273175 0 0 0 2.038294 52.558863v918.882274a13.273175 13.273175 0 0 0 13.24891 13.24891h468.564929a13.273175 13.273175 0 0 0 13.24891-13.24891V52.558863A13.273175 13.273175 0 0 0 483.852133 39.309953H15.287204zM1008.712796 985.296682H540.147867a13.855545 13.855545 0 0 1-13.855545-13.855545V52.558863A13.855545 13.855545 0 0 1 540.147867 38.824645h468.564929a13.855545 13.855545 0 0 1 13.855545 13.855545v918.760947a13.855545 13.855545 0 0 1-13.855545 13.855545zM540.147867 39.309953a13.273175 13.273175 0 0 0-13.24891 13.24891v918.882274a13.273175 13.273175 0 0 0 13.24891 13.24891h468.564929a13.273175 13.273175 0 0 0 13.24891-13.24891V52.558863A13.273175 13.273175 0 0 0 1008.712796 39.309953H540.147867z" fill="#EBEBEB" p-id="4527"></path><path d="M179.685308 313.630332l3.930995 7.934786 8.784076 1.286067-6.357535 6.187678 1.504455 8.735545-7.861991-4.125119-7.837725 4.125119 1.504455-8.735545-6.357536-6.187678 8.784076-1.286067z" fill="#EBEBEB" p-id="4528"></path><path d="M965.035071 687.87564l3.930995 7.959052 8.784076 1.286066-6.357535 6.163413 1.504455 8.75981-7.861991-4.125118-7.837725 4.125118 1.504455-8.75981-6.357536-6.163413 8.784076-1.286066zM809.493839 918.615355l3.930995 7.934787 8.759811 1.286067-6.357536 6.187677 1.504455 8.735545-7.837725-4.125118-7.837725 4.125118 1.480189-8.735545-6.33327-6.187677 8.759811-1.286067z" fill="#F5F5F5" p-id="4529"></path><path d="M453.617441 172.648341l1.455924 2.960379 3.275829 0.485308a0.970616 0.970616 0 0 1 0.533839 1.674313l-2.42654 2.305214 0.558104 3.251563a0.994882 0.994882 0 0 1-1.431659 1.043413l-2.911848-1.552986-2.911848 1.552986a0.994882 0.994882 0 0 1-1.431659-1.043413l0.533839-3.251563-2.42654-2.305214a0.970616 0.970616 0 0 1 0.558104-1.674313l3.251564-0.485308 1.455924-2.960379a0.994882 0.994882 0 0 1 1.916967 0z" fill="#EBEBEB" p-id="4530"></path><path d="M52.850047 880.834123l1.455925 2.936114 3.251564 0.485308a0.994882 0.994882 0 0 1 0.558104 1.698578l-2.42654 2.280948 0.558104 3.251564a0.994882 0.994882 0 0 1-1.431659 1.043412l-2.911848-1.52872-2.911849 1.52872a0.994882 0.994882 0 0 1-1.431658-1.043412l0.558104-3.251564-2.42654-2.280948a0.994882 0.994882 0 0 1 0.533838-1.698578l3.251564-0.485308L50.957346 880.834123a0.994882 0.994882 0 0 1 1.892701 0z" fill="#F5F5F5" p-id="4531"></path><path d="M118.293839 141.467299l1.455924 2.960379 3.275829 0.461042a0.994882 0.994882 0 0 1 0.533839 1.698579l-2.42654 2.42654 0.558104 3.227298a0.970616 0.970616 0 0 1-1.431659 1.043413l-2.911848-1.528721-2.911848 1.528721a0.970616 0.970616 0 0 1-1.431659-1.043413l0.533839-3.227298-2.42654-2.42654a0.994882 0.994882 0 0 1 0.558104-1.698579l3.251564-0.461042 1.552986-2.960379a0.994882 0.994882 0 0 1 1.819905 0zM114.362844 726.312038a3.227299 3.227299 0 1 1-6.454598 0.048531 3.227299 3.227299 0 0 1 6.454598-0.048531zM574.289289 322.462938a3.227299 3.227299 0 1 1-3.227298-3.203033 3.203033 3.203033 0 0 1 3.227298 3.203033z" fill="#EBEBEB" p-id="4532"></path><path d="M406.955071 144.136493a3.227299 3.227299 0 1 1-3.227298-3.227299 3.251564 3.251564 0 0 1 3.227298 3.227299z" fill="#F5F5F5" p-id="4533"></path><path d="M407.969365 913.325498m-17.358146 4.096894a17.835071 17.835071 0 1 0 34.716291-8.193789 17.835071 17.835071 0 1 0-34.716291 8.193789Z" fill="#F0F0F0" p-id="4534"></path><path d="M401.835071 902.891374a17.204171 17.204171 0 0 0-10.167204 3.300095 17.810806 17.810806 0 0 0 25.478673 22.396967 17.398294 17.398294 0 0 0-15.311469-25.672796v-0.024266z" fill="#E6E6E6" p-id="4535"></path><path d="M263.716398 603.334976H116.061422v-66.657061l147.654976-175.535924h70.660853v179.321327h36.616493v62.871658H334.377251v54.548626h-70.660853v-54.548626z m0-62.871658v-91.820285l-78.037535 91.820285h78.037535zM396.254028 510.810995c0-55.470711 9.98036-94.295355 29.943508-116.473933s50.382256-33.260588 91.26218-33.243602c19.623431 0 35.742938 2.42654 48.360948 7.279621a89.272417 89.272417 0 0 1 30.841327 18.902748 100.91981 100.91981 0 0 1 18.805687 24.483792 127.10218 127.10218 0 0 1 11.040758 29.943507c5.483981 22.227109 8.225972 45.046294 8.153175 67.943128 0 52.930123-8.953934 91.667412-26.861801 116.207014-17.907867 24.539602-48.749194 36.817896-92.523981 36.834882-24.556588 0-44.398408-3.914009-59.523033-11.744455a96.479242 96.479242 0 0 1-37.198862-34.432607c-7.036967-10.742294-12.513668-25.437422-16.427678-44.090237a301.691754 301.691754 0 0 1-5.872228-61.609858z m80.415545 0.194123c0 37.206142 3.275829 62.580474 9.827489 76.120569 6.551659 13.540095 16.070976 20.341687 28.560379 20.407204a29.953213 29.953213 0 0 0 21.402085-8.662749c6.049365-5.775166 10.49964-14.898957 13.345972-27.371374s4.270711-31.884739 4.270711-58.236967c0-38.727583-3.283109-64.76436-9.851754-78.110332-6.568645-13.345972-16.420398-20.011678-29.555261-19.994692-13.394502 0-23.100664 6.801592-29.118483 20.407204-6.01782 13.605611-8.978199 38.751848-8.881138 75.441137z" fill="#407BFF" p-id="4536"></path><path d="M807.407014 603.334976h-147.654976v-66.657061l147.654976-175.535924h70.660853v179.321327H914.805687v62.871658h-36.73782v54.548626h-70.660853v-54.548626z m0-62.871658v-91.820285l-78.01327 91.820285h78.01327z" fill="#4E8DFF" p-id="4537"></path><path d="M393.099526 258.717725a4.53763 4.53763 0 1 1-4.513365-4.53763 4.513365 4.513365 0 0 1 4.513365 4.53763z" fill="#407BFF" p-id="4538"></path><path d="M82.429573 429.813081m-3.203033 0a3.203033 3.203033 0 1 0 6.406067 0 3.203033 3.203033 0 1 0-6.406067 0Z" fill="#407BFF" p-id="4539"></path><path d="M611.609479 896.194123m-4.586161 0a4.586161 4.586161 0 1 0 9.172322 0 4.586161 4.586161 0 1 0-9.172322 0Z" fill="#407BFF" p-id="4540"></path><path d="M721.895735 710.976303m-3.203034 0a3.203033 3.203033 0 1 0 6.406067 0 3.203033 3.203033 0 1 0-6.406067 0Z" fill="#407BFF" p-id="4541"></path><path d="M934.630521 137.390711a3.203033 3.203033 0 1 1-6.406066 0 3.203033 3.203033 0 0 1 6.406066 0zM324.549763 72.796209a3.203033 3.203033 0 1 1-3.203033-3.203034A3.227299 3.227299 0 0 1 324.549763 72.796209z" fill="#407BFF" p-id="4542"></path><path d="M579.215166 237.655355m-3.203033 0a3.203033 3.203033 0 1 0 6.406066 0 3.203033 3.203033 0 1 0-6.406066 0Z" fill="#407BFF" p-id="4543"></path><path d="M248.065213 187.717156m-53.165497 0a53.165498 53.165498 0 1 0 106.330995 0 53.165498 53.165498 0 1 0-106.330995 0Z" fill="#407BFF" p-id="4544"></path><path d="M248.065213 187.717156m-53.165497 0a53.165498 53.165498 0 1 0 106.330995 0 53.165498 53.165498 0 1 0-106.330995 0Z" fill="#FFFFFF" p-id="4545"></path><path d="M229.744834 147.606445A53.000493 53.000493 0 0 0 208.682464 151.901422a53.189763 53.189763 0 0 0 60.348057 84.66199 53.189763 53.189763 0 0 0-39.382748-88.932701l0.097061-0.024266z" fill="#407BFF" p-id="4546"></path><path d="M224.454976 161.656114a4.853081 4.853081 0 1 1-9.706161 0 4.853081 4.853081 0 0 1 9.706161 0zM281.624265 156.803033a4.853081 4.853081 0 1 1-9.706161 0 4.853081 4.853081 0 0 1 9.706161 0zM271.918104 191.454028a7.959052 7.959052 0 1 1-15.918104 0 7.959052 7.959052 0 0 1 15.918104 0zM246.633555 214.14218a10.628246 10.628246 0 1 1-21.256493 0 10.628246 10.628246 0 0 1 21.256493 0z" fill="#407BFF" p-id="4547"></path><path d="M832.749801 818.299754m-10.718814 45.414576a46.66237 46.66237 0 1 0 21.437628-90.829153 46.66237 46.66237 0 1 0-21.437628 90.829153Z" fill="#4E8DFF" p-id="4548"></path><path d="M832.749801 818.299754m-10.718814 45.414576a46.66237 46.66237 0 1 0 21.437628-90.829153 46.66237 46.66237 0 1 0-21.437628 90.829153Z" fill="#FFFFFF" p-id="4549"></path><path d="M862.222559 782.170995a46.638104 46.638104 0 0 0-42.876967 80.852323 46.104265 46.104265 0 0 0 13.418768 1.989763 46.66237 46.66237 0 0 0 29.458199-82.842086z" fill="#4E8DFF" p-id="4550"></path><path d="M788.213081 832.303318c-49.816872 23.440379-12.66654 41.518104 57.53327 16.282085 65.007014-23.367583 89.781991-52.825782 31.545023-43.677725 3.130237 12.254028-78.28019 43.96891-89.078293 27.39564z" fill="#4E8DFF" p-id="4551"></path><path d="M861.664455 361.141991C796.414787 405.232227 711.946919 463.469194 688.627867 603.334976h-4.974407c22.688152-138.312796 104.074313-197.932891 169.348246-242.192985h8.662749z" fill="#000000" p-id="4552"></path><path d="M524.132701 798.986919c-41.251185 0-82.041327-18.611564-101.914692-48.991848-12.254028-18.781422-26.49782-58.11564 15.918105-110.601706l3.761137 3.057441c-29.992038 37.126066-35.52455 74.37346-15.602654 104.899336 24.265403 37.126066 81.507488 55.810427 130.37801 42.512986 50.059526-13.612891 80.43981-57.145024 83.375924-119.434313 10.021611-213.074502 123.219716-278.712417 205.867678-326.636588 51.369858-29.773649 88.471659-51.272796 80.318483-96.673364-1.140474-6.284739-3.63981-10.628246-7.692133-13.297441-10.55545-6.964171-31.181043-2.135355-55.058199 3.421422-46.856493 10.919431-111.014218 25.866919-149.232227-39.140095l4.197914-2.42654c36.398104 61.949573 96.018199 48.045498 143.94237 36.883412 24.9691-5.799431 46.516777-10.82237 58.819337-2.741991 5.217062 3.421422 8.420095 8.832607 9.706161 16.500474 8.75981 48.724929-31.545024 72.116777-82.623697 101.720569-81.701611 47.366066-193.565118 112.227488-203.465403 322.729858-3.057441 64.545972-34.748057 109.703886-86.967204 123.899147a128.400379 128.400379 0 0 1-33.72891 4.319241z" fill="#407BFF" p-id="4553"></path><path d="M524.132701 798.986919c-41.251185 0-82.041327-18.611564-101.914692-48.991848-12.254028-18.781422-26.49782-58.11564 15.918105-110.601706l3.761137 3.057441c-29.992038 37.126066-35.52455 74.37346-15.602654 104.899336 24.265403 37.126066 81.507488 55.810427 130.37801 42.512986 50.059526-13.612891 80.43981-57.145024 83.375924-119.434313 10.021611-213.074502 123.219716-278.712417 205.867678-326.636588 51.369858-29.773649 88.471659-51.272796 80.318483-96.673364-1.140474-6.284739-3.63981-10.628246-7.692133-13.297441-10.55545-6.964171-31.181043-2.135355-55.058199 3.421422-46.856493 10.919431-111.014218 25.866919-149.232227-39.140095l4.197914-2.42654c36.398104 61.949573 96.018199 48.045498 143.94237 36.883412 24.9691-5.799431 46.516777-10.82237 58.819337-2.741991 5.217062 3.421422 8.420095 8.832607 9.706161 16.500474 8.75981 48.724929-31.545024 72.116777-82.623697 101.720569-81.701611 47.366066-193.565118 112.227488-203.465403 322.729858-3.057441 64.545972-34.748057 109.703886-86.967204 123.899147a128.400379 128.400379 0 0 1-33.72891 4.319241z" fill="#4E8DFF" p-id="4554"></path><path d="M664.289668 140.739336a111.74218 111.74218 0 0 1 32.952417 5.168531s26.691943 45.546161 29.846446 55.980285c-1.116209 10.288531-18.465972 27.152986-18.465972 27.152985L664.289668 140.739336z" fill="#407BFF" p-id="4555"></path><path d="M664.289668 140.739336a111.74218 111.74218 0 0 1 32.952417 5.168531s26.691943 45.546161 29.846446 55.980285c-1.116209 10.288531-18.465972 27.152986-18.465972 27.152985L664.289668 140.739336z" fill="#FFFFFF" p-id="4556"></path><path d="M743.346351 361.869953a343.137062 343.137062 0 0 1-28.050806-39.74673 201.046142 201.046142 0 0 1-5.799431-10.725308c-1.043412-2.062559-2.038294-4.125118-3.00891-6.211943a26.109573 26.109573 0 0 1-2.936114-6.527394c-2.911848-30.744265 7.619336-53.383886-2.42654-78.061801l-39.989384 15.62692s3.397156 43.96891 11.162085 70.369668c4.853081 16.330616 15.723981 30.453081 26.230901 43.532133 3.275829 4.076588 6.430332 8.274502 9.706161 12.375355 3.275829 4.100853 6.575924 7.425213 9.706161 11.283412 4.731754 5.847962 6.284739 11.45327 2.717725 18.344645l-0.606635 1.091943c-1.019147 1.79564 3.736872 3.833934 6.745782 0 4.853081-6.260474 4.173649-5.872227 8.395829-11.210616 2.572133-3.227299 5.508246-6.745782 8.056114-9.706161a8.177441 8.177441 0 0 0 0.097062-10.434123z" fill="#407BFF" p-id="4557"></path><path d="M743.346351 361.869953a343.137062 343.137062 0 0 1-28.050806-39.74673 201.046142 201.046142 0 0 1-5.799431-10.725308c-1.043412-2.062559-2.038294-4.125118-3.00891-6.211943a26.109573 26.109573 0 0 1-2.936114-6.527394c-2.911848-30.744265 7.619336-53.383886-2.42654-78.061801l-39.989384 15.62692s3.397156 43.96891 11.162085 70.369668c4.853081 16.330616 15.723981 30.453081 26.230901 43.532133 3.275829 4.076588 6.430332 8.274502 9.706161 12.375355 3.275829 4.100853 6.575924 7.425213 9.706161 11.283412 4.731754 5.847962 6.284739 11.45327 2.717725 18.344645l-0.606635 1.091943c-1.019147 1.79564 3.736872 3.833934 6.745782 0 4.853081-6.260474 4.173649-5.872227 8.395829-11.210616 2.572133-3.227299 5.508246-6.745782 8.056114-9.706161a8.177441 8.177441 0 0 0 0.097062-10.434123z" fill="#FFFFFF" p-id="4558"></path><path d="M733.567393 349.227678a132.707488 132.707488 0 0 1-21.013838 18.247583c1.043412 1.164739 2.062559 2.42654 3.105971 3.542748a106.573649 106.573649 0 0 0 20.625592-18.223317l-2.717725-3.567014zM743.346351 361.869953l-0.291185-0.339716a12.569479 12.569479 0 0 0-3.081706 7.692133 12.132701 12.132701 0 0 0 0.922085 5.702369l2.305213-2.74199a8.177441 8.177441 0 0 0 0.145593-10.312796z" fill="#407BFF" p-id="4559"></path><path d="M654.77763 169.85782a85.850995 85.850995 0 0 1-15.457061 17.446825 56.465592 56.465592 0 0 1-10.725308 7.27962 46.104265 46.104265 0 0 1-6.260474 2.644929l-1.650048 0.533839-0.533839 0.145593-1.140473 0.31545a14.389384 14.389384 0 0 1-2.135356 0.339715 18.320379 18.320379 0 0 1-6.090616-0.558104 29.700853 29.700853 0 0 1-7.134028-3.081706 60.663507 60.663507 0 0 1-5.217062-3.421422 97.813839 97.813839 0 0 1-8.687014-7.279621 128.994882 128.994882 0 0 1-14.559242-16.354881 6.090616 6.090616 0 0 1 8.12891-8.784076h0.194123c5.726635 3.63981 11.501801 7.473744 17.131375 10.895166 2.863318 1.674313 5.629573 3.372891 8.371564 4.683223 1.252095 0.655166 2.540588 1.237536 3.858199 1.747109 0.820171 0.363981 1.698578 0.57509 2.596398 0.6309 0.145592 0 0-0.169858-0.89782-0.145592a7.109763 7.109763 0 0 0-0.849289 0l-0.533839 0.121327 0.800758-0.412512c1.077384-0.58237 2.123223-1.22055 3.130237-1.916967a44.648341 44.648341 0 0 0 6.066351-5.144265 154.376493 154.376493 0 0 0 11.890047-14.049669 12.132701 12.132701 0 0 1 19.412322 14.389384l0.291185-0.024265z" fill="#407BFF" p-id="4560"></path><path d="M654.77763 169.85782a85.850995 85.850995 0 0 1-15.457061 17.446825 56.465592 56.465592 0 0 1-10.725308 7.27962 46.104265 46.104265 0 0 1-6.260474 2.644929l-1.650048 0.533839-0.533839 0.145593-1.140473 0.31545a14.389384 14.389384 0 0 1-2.135356 0.339715 18.320379 18.320379 0 0 1-6.090616-0.558104 29.700853 29.700853 0 0 1-7.134028-3.081706 60.663507 60.663507 0 0 1-5.217062-3.421422 97.813839 97.813839 0 0 1-8.687014-7.279621 128.994882 128.994882 0 0 1-14.559242-16.354881 6.090616 6.090616 0 0 1 8.12891-8.784076h0.194123c5.726635 3.63981 11.501801 7.473744 17.131375 10.895166 2.863318 1.674313 5.629573 3.372891 8.371564 4.683223 1.252095 0.655166 2.540588 1.237536 3.858199 1.747109 0.820171 0.363981 1.698578 0.57509 2.596398 0.6309 0.145592 0 0-0.169858-0.89782-0.145592a7.109763 7.109763 0 0 0-0.849289 0l-0.533839 0.121327 0.800758-0.412512c1.077384-0.58237 2.123223-1.22055 3.130237-1.916967a44.648341 44.648341 0 0 0 6.066351-5.144265 154.376493 154.376493 0 0 0 11.890047-14.049669 12.132701 12.132701 0 0 1 19.412322 14.389384l0.291185-0.024265z" fill="#FFFFFF" p-id="4561"></path><path d="M566.087583 153.891185l2.839052 4.85308s2.159621 6.357536 6.503128 7.522275l11.792986-3.809668-0.606635-0.994881c-1.504455-2.280948-1.334597-6.721517-0.825024-10.409858 0.509573-3.688341-1.383128-3.809668-2.790521-2.887583a9.269384 9.269384 0 0 0-2.038294 4.003791 18.854218 18.854218 0 0 0-1.916967-2.256682l-3.59128-3.59128a4.173649 4.173649 0 0 0-5.678104-0.145592l-2.911848 2.596398a4.149384 4.149384 0 0 0-0.776493 5.12z" fill="#407BFF" p-id="4562"></path><path d="M566.087583 153.891185l2.839052 4.85308s2.159621 6.357536 6.503128 7.522275l11.792986-3.809668-0.606635-0.994881c-1.504455-2.280948-1.334597-6.721517-0.825024-10.409858 0.509573-3.688341-1.383128-3.809668-2.790521-2.887583a9.269384 9.269384 0 0 0-2.038294 4.003791 18.854218 18.854218 0 0 0-1.916967-2.256682l-3.59128-3.59128a4.173649 4.173649 0 0 0-5.678104-0.145592l-2.911848 2.596398a4.149384 4.149384 0 0 0-0.776493 5.12z" fill="#FFFFFF" p-id="4563"></path><path d="M676.203981 136.420095a144.718863 144.718863 0 0 0-37.223128 15.699715 10.482654 10.482654 0 0 0-4.707488 10.992228c4.683223 22.90654 15.335735 53.578009 26.837535 73.111659l53.650806-22.202844c0.363981-9.463507-12.66654-40.086445-25.939715-69.690237-2.378009-5.314123-6.964171-9.269384-12.61801-7.910521z" fill="#407BFF" p-id="4564"></path><path d="M676.203981 136.420095a144.718863 144.718863 0 0 0-37.223128 15.699715 10.482654 10.482654 0 0 0-4.707488 10.992228c4.683223 22.90654 15.335735 53.578009 26.837535 73.111659l53.650806-22.202844c0.363981-9.463507-12.66654-40.086445-25.939715-69.690237-2.378009-5.314123-6.964171-9.269384-12.61801-7.910521z" fill="#FFFFFF" p-id="4565"></path><path d="M697.145024 163.087773l-10.652512-3.567015c2.42654 6.236209 10.992227 14.122464 16.985782 18.757157-1.941232-4.853081-4.100853-9.948815-6.33327-15.190142z" fill="#407BFF" p-id="4566"></path><path d="M672.685498 112.397346c-4.440569-8.44436-14.025403-12.690806-25.527204-11.744455-9.706161 0.825024-18.296114 10.725308-17.276967 16.063697 1.019147 5.338389 9.172322 7.619336 10.725308 9.463507l-6.721517 4.85308a7.279621 7.279621 0 0 0-1.455924 10.409858c2.839052 3.59128 6.575924 7.279621 8.735545 9.997346 18.587299-0.485308 32.345782-7.570806 37.32019-14.389384-1.868436-8.638483-1.48019-16.25782-5.799431-24.653649z" fill="#407BFF" p-id="4567"></path><path d="M672.685498 112.397346c-4.440569-8.44436-14.025403-12.690806-25.527204-11.744455-9.706161 0.825024-18.296114 10.725308-17.276967 16.063697 1.019147 5.338389 9.172322 7.619336 10.725308 9.463507l-6.721517 4.85308a7.279621 7.279621 0 0 0-1.455924 10.409858c2.839052 3.59128 6.575924 7.279621 8.735545 9.997346 18.587299-0.485308 32.345782-7.570806 37.32019-14.389384-1.868436-8.638483-1.48019-16.25782-5.799431-24.653649z" fill="#FFFFFF" p-id="4568"></path><path d="M663.561706 117.638673a18.36891 18.36891 0 1 1-23.80436-10.434123 18.393175 18.393175 0 0 1 23.80436 10.434123z" fill="#263238" p-id="4569"></path><path d="M821.116967 336.318483c-0.266919-7.983318-0.6309-7.279621-0.849289-14.001137-0.145592-4.125118-0.169858-8.71128-0.194123-12.66654a8.153175 8.153175 0 0 0-6.551659-7.959052c-3.203033-0.655166-6.430332-1.261801-9.706161-1.941233-4.197915-0.89782-8.347299-1.868436-12.448152-3.05744-3.203033-0.922085-6.357536-1.941232-9.487773-3.081707s-6.64872-2.42654-9.900284-3.930995c-3.833934-1.625782-7.619336-3.372891-11.356208-5.192796-4.197915-1.989763-8.347299-4.076588-12.496683-6.187678-15.966635-26.425024-16.306351-43.847583-33.437725-64.279052l-36.786351 16.646066s27.031659 47.948436 45.424834 68.282844c10.603981 11.695924 27.225782 16.985782 42.051943 20.819716 10.701043 2.741991 21.547678 4.853081 32.394313 6.867109 4.22218 0.776493 8.808341 1.067678 12.448152 3.591279a13.928341 13.928341 0 0 1 5.192796 8.371564c0.162578 0.679431 0.308171 1.358863 0.436777 2.038294 0.461043 2.038294 5.43545 0.485308 5.265593-4.319242z" fill="#407BFF" p-id="4570"></path><path d="M821.116967 336.318483c-0.266919-7.983318-0.6309-7.279621-0.849289-14.001137-0.145592-4.125118-0.169858-8.71128-0.194123-12.66654a8.153175 8.153175 0 0 0-6.551659-7.959052c-3.203033-0.655166-6.430332-1.261801-9.706161-1.941233-4.197915-0.89782-8.347299-1.868436-12.448152-3.05744-3.203033-0.922085-6.357536-1.941232-9.487773-3.081707s-6.64872-2.42654-9.900284-3.930995c-3.833934-1.625782-7.619336-3.372891-11.356208-5.192796-4.197915-1.989763-8.347299-4.076588-12.496683-6.187678-15.966635-26.425024-16.306351-43.847583-33.437725-64.279052l-36.786351 16.646066s27.031659 47.948436 45.424834 68.282844c10.603981 11.695924 27.225782 16.985782 42.051943 20.819716 10.701043 2.741991 21.547678 4.853081 32.394313 6.867109 4.22218 0.776493 8.808341 1.067678 12.448152 3.591279a13.928341 13.928341 0 0 1 5.192796 8.371564c0.162578 0.679431 0.308171 1.358863 0.436777 2.038294 0.461043 2.038294 5.43545 0.485308 5.265593-4.319242z" fill="#FFFFFF" p-id="4571"></path><path d="M802.456872 299.435071c-1.455924-0.31545-2.911848-0.6309-4.392038-0.994881 0.121327 8.395829-3.809668 22.858009-5.241327 27.250047l4.610427 0.873554a92.47545 92.47545 0 0 0 5.022938-27.12872zM820.170616 309.650806a8.153175 8.153175 0 0 0-6.527393-7.959052l-2.426541-0.461043a11.113555 11.113555 0 0 0 3.955261 7.036967 12.35109 12.35109 0 0 0 4.853081 2.766256c0.145592-0.436777 0.145592-0.922085 0.145592-1.383128z" fill="#407BFF" p-id="4572"></path><path d="M660.140284 117.784265c0.970616 3.688341-3.154502 7.54654-6.430331 4.367773a74.810237 74.810237 0 0 0-9.997346-8.953934c-3.372891-2.11109 1.116209-5.799431 6.430331-4.367772a14.413649 14.413649 0 0 1 9.997346 8.953933z" fill="#FFFFFF" p-id="4573"></path><path d="M660.407204 235.034692c-1.698578 0.6309 1.407393 3.542749 1.407393 3.542749s33.971564-11.623128 54.597157-23.585972a4.561896 4.561896 0 0 0-1.650048-3.833933 524.132701 524.132701 0 0 1-54.354502 23.877156z" fill="#407BFF" p-id="4574"></path><path d="M660.407204 235.034692c-1.698578 0.6309 1.407393 3.542749 1.407393 3.542749s33.971564-11.623128 54.597157-23.585972a4.561896 4.561896 0 0 0-1.650048-3.833933 524.132701 524.132701 0 0 1-54.354502 23.877156z" fill="#FFFFFF" p-id="4575"></path><path d="M685.400569 134.818578c6.697251 3.397156 12.981991 6.964171 19.412322 10.919431 3.130237 1.989763 6.236209 4.003791 9.317915 6.187678 3.081706 2.183886 6.139147 4.416303 9.220853 6.939905l1.140474 0.946351 1.431658 1.310332c0.854142 0.76436 1.66218 1.572398 2.426541 2.42654 0.776493 0.849289 1.431659 1.674313 2.062559 2.42654 0.6309 0.752227 1.310332 1.650047 1.868436 2.426541a106.282464 106.282464 0 0 1 6.260474 9.706161 143.287204 143.287204 0 0 1 9.706161 20.261611 6.114882 6.114882 0 0 1-10.167204 6.357536l-0.121327-0.145593c-4.853081-5.168531-9.536303-10.603981-14.243791-15.67545s-9.487773-10.215735-13.443033-12.472417c-5.508246-3.421422-11.647393-6.842844-17.73801-10.191469l-18.344644-10.191469a12.135128 12.135128 0 1 1 11.356208-21.450616l-0.145592 0.218388z" fill="#407BFF" p-id="4576"></path><path d="M685.400569 134.818578c6.697251 3.397156 12.981991 6.964171 19.412322 10.919431 3.130237 1.989763 6.236209 4.003791 9.317915 6.187678 3.081706 2.183886 6.139147 4.416303 9.220853 6.939905l1.140474 0.946351 1.431658 1.310332c0.854142 0.76436 1.66218 1.572398 2.426541 2.42654 0.776493 0.849289 1.431659 1.674313 2.062559 2.42654 0.6309 0.752227 1.310332 1.650047 1.868436 2.426541a106.282464 106.282464 0 0 1 6.260474 9.706161 143.287204 143.287204 0 0 1 9.706161 20.261611 6.114882 6.114882 0 0 1-10.167204 6.357536l-0.121327-0.145593c-4.853081-5.168531-9.536303-10.603981-14.243791-15.67545s-9.487773-10.215735-13.443033-12.472417c-5.508246-3.421422-11.647393-6.842844-17.73801-10.191469l-18.344644-10.191469a12.135128 12.135128 0 1 1 11.356208-21.450616l-0.145592 0.218388z" fill="#FFFFFF" p-id="4577"></path><path d="M753.998863 210.478104l-2.06256-5.168531s-1.140474-6.60019-5.241327-8.44436l-12.132701 1.916967 0.412512 1.067678c1.116209 2.42654 0.266919 6.867109-0.825024 10.409858s0.752227 4.003791 2.305213 3.300094c0.873555-0.388246 1.722844-1.965498 2.644929-3.63981 0.451336 0.844436 0.963336 1.6549 1.528721 2.42654l2.984644 4.100853a4.173649 4.173649 0 0 0 5.581043 1.067678l3.300095-2.11109a4.125118 4.125118 0 0 0 1.504455-4.925877z" fill="#407BFF" p-id="4578"></path><path d="M753.998863 210.478104l-2.06256-5.168531s-1.140474-6.60019-5.241327-8.44436l-12.132701 1.916967 0.412512 1.067678c1.116209 2.42654 0.266919 6.867109-0.825024 10.409858s0.752227 4.003791 2.305213 3.300094c0.873555-0.388246 1.722844-1.965498 2.644929-3.63981 0.451336 0.844436 0.963336 1.6549 1.528721 2.42654l2.984644 4.100853a4.173649 4.173649 0 0 0 5.581043 1.067678l3.300095-2.11109a4.125118 4.125118 0 0 0 1.504455-4.925877z" fill="#FFFFFF" p-id="4579"></path><path d="M675.160569 162.723791l-2.960379 0.242654-18.174787 43.871849a9.706161 9.706161 0 0 0 2.960379-0.242654s23.683033-8.832607 30.841327-12.132702c-4.80455-9.92455-12.66654-31.739147-12.66654-31.739147z" fill="#407BFF" p-id="4580"></path><path d="M641.989763 174.225592a105.336114 105.336114 0 0 0 12.132701 32.612702c8.881137-3.057441 23.683033-8.832607 30.865593-12.132702A328.456493 328.456493 0 0 1 672.151659 162.966445c-7.595071 0.509573-24.265403 6.891374-30.161896 11.259147z" fill="#FFFFFF" p-id="4581"></path><path d="M660.018957 183.713365a6.260474 6.260474 0 1 1-11.996815-3.586427A6.260474 6.260474 0 0 1 660.018957 183.713365z" fill="#407BFF" p-id="4582"></path><path d="M664.653649 175.366066a2.062559 2.062559 0 1 1-1.358862-2.42654 2.038294 2.038294 0 0 1 1.358862 2.42654zM670.0891 173.254976a2.062559 2.062559 0 1 1-3.930996-1.189004 2.038294 2.038294 0 0 1 2.547868-1.358863 2.062559 2.062559 0 0 1 1.383128 2.547867z" fill="#407BFF" p-id="4583"></path><path d="M677.708436 192.157725l-22.445498 8.856872-1.334597-4.416303 22.421232-8.856872z" fill="#407BFF" p-id="4584"></path><path d="M553.882085 529.398294a228.094787 228.094787 0 0 1-4.076587 42.100474c-2.863318 12.472417-7.311166 21.596209-13.345972 27.371374a29.846445 29.846445 0 0 1-21.37782 8.662749c-12.472417 0-21.991735-6.801592-28.560379-20.407204a57.727393 57.727393 0 0 1-2.936114-7.54654 350.174028 350.174028 0 0 0-38.630521 38.824644l-12.884929 15.190143a93.712986 93.712986 0 0 0 23.707299 17.446824c15.110066 7.81346 34.94218 11.727469 59.498767 11.744455 4.319242 0 8.492891-0.121327 12.545214-0.363981a347.941611 347.941611 0 0 0 36.640758-70.369668l36.034123-93.95564-46.613839 31.30237z" fill="#000000" p-id="4585"></path><path d="M229.041137 657.592417l42.464455 42.464455 118.900474-112.033365C349.421801 572.372322 269.734218 616.802275 229.041137 657.592417zM377.132891 805.611374c-13.56436-13.588626-42.464455-42.464455-42.464455-42.464455l112.033365-118.900474c15.554123 40.887204-28.875829 120.647583-69.56891 161.364929z" fill="#263238" p-id="4586"></path><path d="M539.662559 537.963981L585.985213 448.643033 496.664265 495.014218a349.95564 349.95564 0 0 0-78.716966 55.810427l-152.265403 143.335734 74.810237 74.810237 143.335734-152.265403A349.95564 349.95564 0 0 0 539.662559 537.963981z" fill="#407BFF" p-id="4587"></path><path d="M539.662559 537.963981L585.985213 448.643033 496.664265 495.014218a349.95564 349.95564 0 0 0-78.716966 55.810427l-152.265403 143.335734 74.810237 74.810237 143.335734-152.265403A349.95564 349.95564 0 0 0 539.662559 537.963981z" fill="#FFFFFF" p-id="4588"></path><path d="M444.54218 590.086066m-31.30237 0a31.30237 31.30237 0 1 0 62.60474 0 31.30237 31.30237 0 1 0-62.60474 0Z" fill="#FFFFFF" p-id="4589"></path><path d="M444.54218 590.086066m-20.116019 0a20.116019 20.116019 0 1 0 40.232038 0 20.116019 20.116019 0 1 0-40.232038 0Z" fill="#407BFF" p-id="4590"></path><path d="M365.800948 742.08455L292.543697 668.827299l59.984076-56.441327 69.714502 69.738767z" fill="#407BFF" p-id="4591"></path><path d="M245.614408 724.61346c-54.83981 4.440569-73.014597 39.552607-79.226541 86.214976-3.154502 23.80436-4.561896 47.899905-24.532322 61.828246a6.721517 6.721517 0 0 0 3.955261 12.278294c73.621232-2.305213 107.956777-38.339336 112.276019-53.383886a104.486825 104.486825 0 0 1-6.042086 22.979337 6.697251 6.697251 0 0 0 9.706161 8.225971c20.649858-12.93346 46.565308-36.762085 48.288152-75.416872-15.190142-21.523412-64.424645-62.726066-64.424644-62.726066z" fill="#407BFF" p-id="4592"></path><path d="M245.614408 724.61346c-54.83981 4.440569-73.014597 39.552607-79.226541 86.214976-3.154502 23.80436-4.561896 47.899905-24.532322 61.828246a6.721517 6.721517 0 0 0 3.955261 12.278294c73.621232-2.305213 107.956777-38.339336 112.276019-53.383886a104.486825 104.486825 0 0 1-6.042086 22.979337 6.697251 6.697251 0 0 0 9.706161 8.225971c20.649858-12.93346 46.565308-36.762085 48.288152-75.416872-15.190142-21.523412-64.424645-62.726066-64.424644-62.726066z" fill="#FFFFFF" p-id="4593"></path><path d="M318.556209 803.912796l-87.840759-87.840758 46.783697-10.118673 51.175735 51.175735z" fill="#407BFF" p-id="4594"></path></svg>