<svg t="1767151297042" class="icon" viewBox="0 0 1365 1024" version="1.1" xmlns="http://www.w3.org/2000/svg" p-id="5233" xmlns:xlink="http://www.w3.org/1999/xlink" width="266.6015625" height="200"><path d="M51.2 871.424a637.610667 30.378667 0 1 0 1275.221333 0 637.610667 30.378667 0 1 0-1275.221333 0Z" fill="#CFD7E5" p-id="5234"></path><path d="M109.568 916.138667a189.44 51.882667 0 1 0 378.88 0 189.44 51.882667 0 1 0-378.88 0Z" fill="#CFD7E5" p-id="5235"></path><path d="M481.28 921.258667a97.621333 27.306667 0 1 0 195.242667 0 97.621333 27.306667 0 1 0-195.242667 0Z" fill="#CFD7E5" p-id="5236"></path><path d="M793.6 88.746667l-190.122667 42.666666c-10.581333 2.389333-17.408 12.970667-15.018666 23.552l52.224 231.765334 223.573333-50.176c1.706667-0.341333 3.413333-1.365333 4.778667-2.730667l-51.882667-230.4c-2.389333-10.581333-12.970667-17.066667-23.552-14.677333z" fill="#E6E6E6" p-id="5237"></path><path d="M724.650667 120.490667l-104.106667 23.552c-9.557333 2.048-15.701333 11.946667-13.653333 21.504l49.152 218.112 198.656-44.714667-35.84-158.72c-9.898667-42.325333-51.882667-68.949333-94.208-59.733333z" fill="#FFFFFF" p-id="5238"></path><path d="M816.128 326.997333l-130.730667 29.354667c-2.389333 0.682667-3.754667 2.730667-3.413333 5.12 0.341333 2.389333 2.730667 3.754667 5.12 3.413333l130.730667-29.354666c2.389333-0.682667 3.754667-2.730667 3.413333-5.12-0.341333-2.389333-2.730667-3.754667-5.12-3.413334zM812.373333 310.272l-130.730666 29.354667c-2.389333 0.682667-3.754667 2.730667-3.413334 5.12 0.682667 2.389333 2.730667 3.754667 5.12 3.413333l130.730667-29.354667c2.389333-0.682667 3.754667-2.730667 3.413333-5.12s-2.730667-4.096-5.12-3.413333zM734.208 309.930667l-56.661333 12.629333c-2.389333 0.682667-3.754667 2.730667-3.413334 5.12 0.682667 2.389333 2.730667 3.754667 5.12 3.413333l56.661334-12.629333c2.389333-0.682667 3.754667-2.730667 3.413333-5.12-0.341333-2.389333-2.389333-3.754667-5.12-3.413333 0.341333 0 0 0 0 0zM800.426667 258.048l-130.730667 29.354667c-2.389333 0.682667-3.754667 2.730667-3.413333 5.12 0.682667 2.389333 2.730667 3.754667 5.12 3.413333l130.730666-29.354667c2.389333-0.682667 3.754667-2.730667 3.413334-5.12s-2.730667-4.096-5.12-3.413333zM796.672 241.322667l-130.730667 29.354666c-2.389333 0.682667-3.754667 2.730667-3.413333 5.12 0.341333 2.389333 2.730667 3.754667 5.12 3.413334l130.730667-29.354667c2.389333-0.682667 3.754667-2.730667 3.413333-5.12s-2.730667-4.096-5.12-3.413333zM718.848 240.981333L662.186667 253.610667c-2.389333 0.682667-3.754667 2.730667-3.413334 5.12 0.682667 2.389333 2.730667 3.754667 5.12 3.413333l56.661334-12.629333c2.389333-0.682667 3.754667-2.730667 3.413333-5.12-0.341333-2.389333-2.730667-3.754667-5.12-3.413334z" fill="#E4E4E4" p-id="5239"></path><path d="M785.066667 189.098667L653.994667 218.453333c-2.389333 0.682667-3.754667 2.730667-3.413334 5.12 0.682667 2.389333 2.730667 3.754667 5.12 3.413334l130.730667-29.354667c2.389333-0.682667 3.754667-2.730667 3.413333-5.12 0-2.389333-2.389333-4.096-4.778666-3.413333zM781.312 172.032L650.581333 201.386667c-2.389333 0.682667-3.754667 2.730667-3.413333 5.12 0.682667 2.389333 2.730667 3.754667 5.12 3.413333l130.730667-29.354667c2.389333-0.682667 3.754667-2.730667 3.413333-5.12-0.341333-2.389333-2.730667-3.754667-5.12-3.413333zM703.488 172.032l-56.661333 12.629333c-2.389333 0.682667-3.754667 2.730667-3.413334 5.12 0.682667 2.389333 2.730667 3.754667 5.12 3.413334l56.661334-12.629334c2.389333-0.682667 3.754667-2.730667 3.413333-5.12-0.682667-2.389333-3.072-4.096-5.12-3.413333z" fill="#E6E6E6" p-id="5240"></path><path d="M414.037333 357.717333c-2.730667 0-4.778667 2.048-4.778666 4.778667v483.669333c0 2.730667 2.048 4.778667 4.778666 4.778667H1020.586667c2.730667 0 4.778667-2.048 4.778666-4.778667v-406.186666c0-2.730667-2.048-4.778667-4.778666-4.778667H672.426667c-3.413333 0-6.826667-1.365333-9.557334-3.754667l-78.165333-70.997333c-2.048-1.706667-4.778667-2.730667-7.509333-2.730667h-163.157334z" fill="#3F3D56" p-id="5241"></path><path d="M1137.664 231.424l-324.608-139.605333c-18.090667-7.850667-39.253333 0.682667-47.104 18.773333l-169.984 395.605333 381.610667 164.181334c3.072 1.365333 6.485333 1.706667 9.898666 1.365333l168.96-393.216c7.850667-18.432-0.682667-39.594667-18.773333-47.104z" fill="#E6E6E6" p-id="5242"></path><path d="M1002.496 204.458667l-177.834667-76.458667c-16.384-7.168-35.498667 0.682667-42.666666 17.066667l-160.085334 372.053333 338.944 145.749333 116.394667-271.018666c30.72-72.362667-2.389333-155.989333-74.752-187.392z" fill="#FFFFFF" p-id="5243"></path><path d="M917.162667 604.842667l-223.232-95.914667c-4.096-1.706667-8.533333 0-10.581334 4.096-1.706667 4.096 0 8.533333 4.096 10.581333l223.232 95.914667c4.096 1.706667 8.533333 0 10.24-4.096 2.048-4.096 0.341333-8.533333-3.754666-10.581333zM929.450667 576.170667l-223.232-95.914667c-4.096-1.706667-8.874667 0-10.581334 4.096s0 8.533333 4.096 10.581333l223.232 95.914667c4.096 1.706667 8.533333 0 10.581334-4.096 1.706667-4.096 0-8.874667-4.096-10.581333zM815.445333 492.885333l-96.938666-41.642666c-4.096-1.706667-8.533333 0-10.581334 4.096-1.706667 4.096 0 8.533333 4.096 10.581333l96.938667 41.642667c4.096 1.706667 8.533333 0 10.581333-4.096 1.706667-4.096 0-8.874667-4.096-10.581334zM967.68 487.082667l-223.232-95.914667c-4.096-1.706667-8.874667 0-10.581333 4.096s0 8.874667 4.096 10.581333l223.232 95.914667c4.096 1.706667 8.533333 0 10.24-4.096 2.389333-4.096 0.341333-8.874667-3.754667-10.581333zM979.968 458.410667l-223.232-95.914667c-4.096-1.706667-8.533333 0-10.581333 4.096-1.706667 4.096 0 8.533333 4.096 10.581333l223.232 95.914667c4.096 1.706667 8.533333 0 10.24-4.096 2.389333-4.096 0.341333-8.874667-3.754667-10.581333 0.341333 0 0.341333 0 0 0zM865.962667 375.125333l-96.938667-41.642666c-4.096-1.706667-8.874667 0-10.581333 4.096s0 8.533333 4.096 10.581333l96.938666 41.642667c4.096 1.706667 8.874667 0 10.581334-4.096s0-8.874667-4.096-10.581334z" fill="#E4E4E4" p-id="5244"></path><path d="M1018.538667 369.322667L795.306667 273.408c-4.096-1.706667-8.874667 0-10.581334 4.096s0 8.533333 4.096 10.581333l223.232 95.914667c4.096 1.706667 8.533333 0 10.24-4.096 2.048-4.096 0.341333-8.874667-3.754666-10.581333zM1030.826667 340.650667l-223.232-95.914667c-4.096-1.706667-8.874667 0-10.581334 4.096s0 8.533333 4.096 10.581333l223.232 95.914667c4.096 1.706667 8.533333 0 10.581334-4.096s0-8.874667-4.096-10.581333zM916.48 257.365333l-96.938667-41.642666c-4.096-1.706667-8.874667 0-10.581333 4.096s0 8.533333 4.096 10.581333l96.938667 41.642667c4.096 1.706667 8.533333 0 10.24-4.096 2.389333-4.437333 0.341333-8.874667-3.754667-10.581334 0.341333 0 0 0 0 0z" fill="#4B73F5" p-id="5245"></path><path d="M675.498667 375.125333l-190.122667 42.666667c-10.581333 2.389333-17.408 12.970667-15.018667 23.552l52.224 231.765333 223.573334-50.176c1.706667-0.341333 3.413333-1.365333 4.778666-2.730666l-51.882666-230.4c-2.389333-10.581333-12.970667-17.066667-23.552-14.677334z" fill="#E6E6E6" p-id="5246"></path><path d="M606.549333 406.869333l-104.106666 23.552c-9.557333 2.048-15.701333 11.605333-13.653334 21.504l49.152 218.112 198.656-44.714666-35.84-158.72c-9.898667-42.666667-51.882667-69.290667-94.208-59.733334z" fill="#FFFFFF" p-id="5247"></path><path d="M698.026667 613.376l-130.730667 29.354667c-2.389333 0.341333-3.754667 2.730667-3.413333 5.12 0.341333 2.389333 2.730667 3.754667 5.12 3.413333l130.730666-29.354667c2.389333-0.341333 3.754667-2.730667 3.413334-5.12-0.341333-2.389333-2.730667-3.754667-5.12-3.413333zM694.272 596.650667l-130.730667 29.354666c-2.389333 0.682667-3.754667 2.730667-3.413333 5.12 0.682667 2.389333 2.730667 3.754667 5.12 3.413334l130.730667-29.354667c2.389333-0.341333 3.754667-2.730667 3.413333-5.12-0.341333-2.730667-2.730667-4.096-5.12-3.413333zM616.448 596.309333l-56.661333 12.629334c-2.389333 0.682667-3.754667 2.730667-3.413334 5.12 0.682667 2.389333 2.730667 3.754667 5.12 3.413333l56.661334-12.629333c2.389333-0.341333 3.754667-2.730667 3.413333-5.12-0.682667-2.389333-2.730667-3.754667-5.12-3.413334zM682.325333 544.426667l-130.730666 29.354666c-2.389333 0.682667-3.754667 2.730667-3.413334 5.12 0.682667 2.389333 2.730667 3.754667 5.12 3.413334l130.730667-29.354667c2.389333-0.341333 3.754667-2.730667 3.413333-5.12-0.341333-2.389333-2.730667-4.096-5.12-3.413333 0.341333 0 0.341333 0 0 0zM678.570667 527.36l-130.730667 29.354667c-2.389333 0.341333-3.754667 2.730667-3.413333 5.12 0.341333 2.389333 2.730667 3.754667 5.12 3.413333l130.730666-29.354667c2.389333-0.341333 3.754667-2.730667 3.413334-5.12s-2.730667-3.754667-5.12-3.413333c0.341333 0 0 0 0 0zM600.746667 527.36l-56.661334 12.629333c-2.389333 0.682667-3.754667 2.730667-3.413333 5.12 0.682667 2.389333 2.730667 3.754667 5.12 3.413334l56.661333-12.629334c2.389333-0.341333 3.754667-2.730667 3.413334-5.12-0.341333-2.389333-2.730667-4.096-5.12-3.413333z" fill="#E4E4E4" p-id="5248"></path><path d="M666.965333 475.136l-130.730666 29.354667c-2.389333 0.682667-3.754667 2.730667-3.413334 5.12 0.682667 2.389333 2.730667 3.754667 5.12 3.413333l130.730667-29.354667c2.389333-0.682667 3.754667-2.730667 3.413333-5.12s-2.730667-3.754667-5.12-3.413333zM663.210667 458.410667l-130.730667 29.354666c-2.389333 0.682667-3.754667 2.730667-3.413333 5.12 0.682667 2.389333 2.730667 3.754667 5.12 3.413334l130.730666-29.354667c2.389333-0.682667 3.754667-2.730667 3.413334-5.12s-2.730667-4.096-5.12-3.413333zM585.386667 458.069333l-56.661334 12.629334c-2.389333 0.682667-3.754667 2.730667-3.413333 5.12 0.682667 2.389333 2.730667 3.754667 5.12 3.413333l56.661333-12.629333c2.389333-0.682667 3.754667-2.730667 3.413334-5.12-0.682667-2.389333-3.072-3.754667-5.12-3.413334z" fill="#E6E6E6" p-id="5249"></path><path d="M410.282667 484.693333c-2.730667 0-4.778667 2.048-4.778667 4.778667V849.92c0.341333 2.389333 2.389333 4.096 4.778667 4.096H1061.546667c2.389333 0 4.437333-1.706667 4.778666-4.096l40.618667-359.765333c0-1.365333-0.341333-2.730667-1.024-3.754667-1.024-1.024-2.048-1.706667-3.413333-1.706667H410.282667z" fill="#3F3D56" p-id="5250"></path><path d="M636.586667 713.728h-160.085334c-3.413333 0-6.144-2.730667-6.144-6.144s2.730667-6.144 6.144-6.144h160.085334c8.192-0.341333 8.192 12.629333 0 12.288zM852.650667 746.496H476.501333c-3.413333 0-6.144-2.730667-6.144-6.144s2.730667-6.144 6.144-6.144h376.149334c7.850667-0.341333 7.850667 12.288 0 12.288z" fill="#E4E4E4" p-id="5251"></path><path d="M520.533333 918.869333l12.288 0.682667v0.341333l28.330667 1.706667h1.365333l12.288 0.682667v0.341333l25.941334 1.706667h1.365333l12.288 0.682666v0.341334l22.528 1.365333h0.682667c4.437333-1.365333 8.192-4.778667 9.898666-9.216l0.341334-0.682667c1.024-4.437333 0.341333-9.216-2.048-12.970666l-0.341334-0.341334-96.938666-63.829333 4.096-11.264-15.018667-5.461333L501.76 925.013333l15.018667 5.12 3.754666-11.264z m75.093334-43.349333l16.042666 10.581333-11.946666 33.792-19.456-1.365333 15.36-43.008z m-57.344 40.618667l22.528-63.488 18.090666 11.946666-18.773333 52.906667-21.845333-1.365333z m105.813333 0c-1.365333 3.072-4.096 5.461333-7.168 6.485333l-17.408-1.024 8.533333-24.234667 14.336 9.557334c2.048 2.389333 2.389333 5.802667 1.706667 9.216z" fill="#CFD7E5" p-id="5252"></path><path d="M346.112 490.154667V436.906667c0-39.594667-31.744-71.68-71.338667-71.68-39.594667 0-71.68 31.744-71.68 71.338666v0.341334c-12.629333 26.282667-4.778667 38.912 0 53.248 0 5.461333 4.437333 9.557333 9.557334 9.557333h123.904c5.12 0.341333 9.557333-4.096 9.557333-9.557333z" fill="#2F2E41" p-id="5253"></path><path d="M254.293333 548.522667s16.042667-9.557333 12.288-58.368l32.768-6.826667s-3.754667 43.690667 12.970667 57.685333l-58.026667 7.509334z" fill="#EDA59F" p-id="5254"></path><path d="M305.834667 531.797333l-27.306667-23.552 21.504-0.341333c0.341333 8.192 2.389333 16.384 5.802667 23.893333z" p-id="5255"></path><path d="M293.888 458.069333m-53.589333 0a53.589333 53.589333 0 1 0 107.178666 0 53.589333 53.589333 0 1 0-107.178666 0Z" fill="#F5A9A0" p-id="5256"></path><path d="M242.005333 457.045333c0.341333 0 1.024-0.341333 1.365334-0.341333 8.192-1.365333 16.725333-3.072 24.917333-4.437333l0.682667-18.773334 10.24 16.725334c22.869333 7.509333 44.714667 3.413333 64.853333-6.144 6.826667-3.072 13.312-6.826667 19.456-10.581334-3.413333-21.162667-16.384-39.594667-34.816-50.176-0.682667-0.341333-1.365333-0.682667-2.389333-1.024-1.365333-0.682667-2.730667-1.024-4.096-1.706666-21.162667-8.192-45.397333-3.754667-61.781334 11.946666-16.384 15.36-23.552 40.96-18.432 64.512z" fill="#2F2E41" p-id="5257"></path><path d="M383.317333 907.264c4.096-0.682667 48.128-9.216 48.128-9.216l-7.168-48.128s-44.032 8.533333-47.786666 9.216l6.826666 48.128z" fill="#F5A9A0" p-id="5258"></path><path d="M468.992 948.906667c0.682667 5.12-2.389333 10.24-7.168 10.922666h-0.682667 0.682667c-3.413333 0.341333-7.168-1.365333-8.533333-4.778666l-37.205334-48.128c-1.024-2.048-1.024-4.437333-0.341333-6.826667 3.754667-8.533333 4.778667-18.090667 3.072-27.648-1.365333-7.168-4.778667-13.653333-9.557333-19.114667-1.365333-1.365333-1.365333-3.754667-0.341334-5.12 0.341333-0.682667 1.024-1.024 2.048-1.365333l36.522667-9.216c3.072-0.682667 5.802667 1.706667 6.485333 5.12l15.018667 106.154667z" fill="#142233" p-id="5259"></path><path d="M246.784 777.557333c-18.432 0.682667-36.864 1.365333-55.637333 2.048l-27.989334 0.682667-27.989333 0.682667h-2.730667c-25.258667 0.682667-45.397333 23.893333-44.714666 52.565333 0.341333 25.6 17.408 47.104 40.277333 50.176l276.48 37.888 11.264-92.16-275.456-47.786667-7.509333 102.741334 28.330666 2.048 28.330667 2.048c18.773333 1.365333 37.888 2.389333 57.344 3.413333v-114.346667z" fill="#102747" p-id="5260"></path><path d="M177.152 887.125333c38.229333-6.144 41.984-7.509333 43.349333-7.850666l-11.264-47.104h0.341334c-3.072 0.682667-22.528 4.096-38.570667 6.826666l6.144 48.128z" fill="#F5A9A0" p-id="5261"></path><path d="M118.784 924.330667c-1.706667 5.12 0.682667 10.24 5.12 12.288 0.341333 0 0.341333 0 0.682667 0.341333 3.072 1.024 6.485333 0 8.533333-3.072l44.032-41.984c1.365333-1.706667 1.706667-4.096 1.365333-6.485333-2.048-9.216-1.365333-18.773333 1.706667-27.648 2.730667-6.826667 7.168-12.629333 12.629333-16.725334 1.706667-1.024 2.048-3.072 1.024-4.778666-0.341333-0.682667-1.024-1.365333-1.706666-1.706667l-33.792-14.336c-2.730667-1.365333-6.144 0.341333-7.168 3.754667l-32.426667 100.352z" fill="#142233" p-id="5262"></path><path d="M377.856 878.250667l17.408-0.682667 17.408-0.682667c11.605333-0.341333 23.210667-0.682667 34.816-0.682666l-4.096-93.866667c-21.504 3.413333-242.346667 19.114667-264.192 21.162667l10.922667 138.24c21.504-3.413333 241.322667-63.829333 262.826666-66.218667 22.869333-2.389333 39.594667-25.258667 37.546667-51.2-2.048-23.210667-18.432-41.301333-38.912-42.325333l-2.730667-0.341334c-11.605333-0.682667-23.210667-1.365333-34.816-2.389333l-17.408-1.365333-31.744-0.682667c-11.264-0.682667 1.365333 101.376 12.970667 101.034667z" fill="#102747" p-id="5263"></path><path d="M138.581333 643.072c2.730667-11.946667 26.965333-62.122667 53.248-92.16 17.066667-19.456 50.517333-16.725333 58.368-16.725333 1.365333 12.970667 71.68 12.970667 72.021334 0.341333 2.730667 0 4.778667 0 6.144 0.341333 28.330667 1.365333 43.690667-3.072 59.733333 26.624 21.504 38.912 59.392 121.173333 49.493333 177.152-2.389333 12.970667-7.509333 17.408-18.432 22.528-3.754667 1.706667-7.509333 2.048-11.264 1.706667L375.466667 757.76c1.706667 9.216 1.706667 16.384-1.365334 24.234667-8.533333 22.528-178.176 31.744-180.224-7.509334v-1.024l-27.989333-3.072c-47.786667-13.653333-32.426667-106.154667-27.306667-127.317333z m234.496 56.32l-7.509333-20.138667c0 10.581333 0 12.288 0.682667 20.138667h6.826666z m-167.253333 23.893333c4.096-14.677333 6.144-29.696 6.144-45.056v-5.461333l-6.144 50.517333z" fill="#4B73F5" p-id="5264"></path><path d="M321.877333 534.528c-0.682667 12.629333-6.826667 31.402667-25.6 33.109333-25.258667 2.048-45.056-20.138667-46.421333-33.109333h72.021333z" fill="#F5A9A0" p-id="5265"></path><path d="M343.04 751.957333l-55.637333 20.138667-93.866667 2.048 86.357333 5.461333 39.594667-1.706666 19.114667-17.749334zM337.578667 739.669333l-93.525334-7.509333 84.992 14.336zM366.250667 688.810667l-115.370667-9.898667 115.370667 20.48zM203.093333 696.32l47.104 23.210667 0.682667 9.898666-34.474667-7.850666-10.581333-16.384z" fill="#426EE5" p-id="5266"></path><path d="M330.069333 759.125333c-9.216 6.485333-23.552 9.557333-36.181333 10.581334l-0.682667-25.6c5.802667-0.341333 15.018667-1.024 23.552-0.341334 4.096-3.754667 6.144-4.778667 10.24-9.557333 4.437333-4.778667 15.701333-7.850667 18.090667 0 2.389333 7.850667-6.826667 19.114667-15.018667 24.917333zM214.357333 712.362667c9.216 7.850667 23.552 11.605333 35.84 12.970666l0.682667-31.402666c-5.802667-0.341333-15.018667-1.024-23.552-0.682667-4.096-4.437333-6.144-5.802667-10.24-11.605333-4.437333-6.144-15.701333-9.557333-18.090667 0-2.389333 9.898667 7.168 23.893333 15.36 30.72z" fill="#F5A9A0" p-id="5267"></path><path d="M1108.992 752.981333c1.024 1.024 2.389333 2.048 3.413333 3.072 1.024 1.024 2.048 2.048 2.730667 3.413334 1.706667 2.389333 3.413333 4.778667 4.778667 7.509333 2.730667 5.12 5.12 10.922667 6.826666 16.384 1.024 3.072 2.048 6.485333 3.072 9.557333 0 0.682667-0.682667 0.682667-1.024 0.341334-1.706667-5.461333-3.413333-11.264-5.802666-16.725334-2.048-5.461333-4.778667-10.581333-8.192-15.36-1.024-1.365333-2.048-2.730667-3.072-3.754666-0.341333-2.048-1.365333-3.413333-2.730667-4.437334 0 0 0-0.341333 0 0z" fill="#ABE3DE" p-id="5268"></path><path d="M1116.501333 724.309333c1.365333 2.048 2.730667 4.096 3.754667 6.485334 1.024 2.048 2.048 4.096 2.730667 6.485333 1.706667 4.437333 3.072 8.874667 4.096 13.312 1.024 5.12 1.706667 10.24 2.389333 15.36 0.682667 5.461333 1.365333 10.922667 1.706667 16.384 0.682667 6.144 1.024 12.288 1.365333 18.432 0 0.682667-0.682667 1.024-1.024 1.024-0.682667 0-1.024-0.341333-1.024-1.024-0.682667-10.922667-1.706667-21.845333-2.730667-32.768-0.682667-5.12-1.024-10.24-2.048-15.018667-0.682667-4.437333-2.048-8.874667-3.413333-13.312-1.706667-5.12-3.754667-9.898667-6.144-14.677333-0.682667-0.682667 0-1.024 0.341333-0.682667z" fill="#4CC89E" p-id="5269"></path><path d="M1118.208 730.453333s14.336-5.461333 9.216-22.528c0 0-9.557333-20.138667-19.797333-24.917333l-1.365334 6.144s0.682667-6.144-1.706666-7.168c-2.730667-1.024-8.192-3.072-9.216-1.365333-1.024 1.706667-1.024 3.072-1.024 3.072l-1.706667-1.024s-1.706667 3.072-1.706667 4.778666l2.389334 3.754667-3.413334-2.048s-5.12 16.725333 15.701334 41.984c0.341333-0.341333 3.754667 4.096 12.629333-0.682667z" fill="#ABE3DE" p-id="5270"></path><path d="M1168.042667 803.157333c0.341333 1.365333 0.341333 2.389333 0.341333 3.754667v50.176c0 10.581333-7.850667 19.456-17.749333 19.456h-35.157334c-9.557333 0-17.749333-8.874667-17.749333-19.456v-50.176c0-1.365333 0-2.730667 0.341333-3.754667h69.973334z" fill="#CFD7E5" p-id="5271"></path><path d="M1168.725333 804.181333c0 3.413333-15.701333 6.144-35.498666 6.144-19.456 0-35.498667-2.730667-35.498667-6.144s15.701333-6.144 35.498667-6.144c19.797333 0 35.498667 2.730667 35.498666 6.144z" fill="#DAE2F4" p-id="5272"></path><path d="M1162.24 804.181333c0 2.730667-12.970667 4.778667-28.672 4.778667-15.701333 0-28.672-2.048-28.672-4.778667 0-2.730667 12.970667-4.778667 28.672-4.778666 16.042667-0.341333 28.672 2.048 28.672 4.778666z" fill="#DAE2F4" p-id="5273"></path><path d="M1223.68 634.197333v-2.730666s-2.730667-0.341333-4.096 1.365333l-3.413333 3.413333c0 0.341333 1.706667-4.437333 1.706666-4.437333s-22.528 7.509333-37.546666 21.504-3.413333 31.744-2.730667 31.744c1.024 0 39.936-20.48 46.08-50.858667z m-63.829333 54.954667s12.970667 2.389333 10.922666 12.629333c0 0-5.461333 12.629333-19.797333 8.533334 0 0-10.581333-3.754667-10.581333-11.605334 0 0 2.730667-16.384 19.456-9.557333z m36.181333 46.762667c0.341333-1.706667-2.048-3.072-3.413333-3.413334h-2.730667l5.12-1.365333s-6.144-10.922667-20.48-16.042667c0 0-13.312-8.874667-26.624 7.850667 0 0-9.216 4.778667-1.024 8.874667 0.341333 0.341333 0.682667 0.341333 1.365333 0.682666 6.485333 2.730667 13.653333 4.778667 20.821334 5.802667 5.12 0.682667 10.24 0.341333 15.36 1.024 3.413333 0.341333 8.533333 0.682667 11.264-2.048 0-0.682667 0.341333-1.024 0.341333-1.365333z" fill="#4CC89E" p-id="5274"></path><path d="M1119.914667 766.634667s-47.445333-25.258667-48.128-26.624c-0.682667-1.365333 2.730667-0.341333 2.730666-0.341334s4.778667-2.389333 8.874667-0.341333l2.389333 3.413333-0.682666-3.413333s25.6 5.12 33.450666 16.725333c0 0.341333 7.850667 6.826667 1.365334 10.581334zM1118.549333 637.269333c3.754667 9.898667 6.144 20.48 7.850667 30.72 1.706667 10.581333 2.730667 21.162667 3.754667 31.402667 1.024 11.264 2.048 22.528 3.072 34.133333 1.024 11.264 1.706667 22.528 2.048 33.792 0.341333 11.264 0.682667 22.869333 0.341333 34.133334v4.096c0 1.706667 2.730667 1.706667 2.730667 0 0.341333-11.264 0.341333-22.869333 0-34.133334-0.341333-11.605333-1.024-22.869333-2.048-34.474666-0.682667-11.264-2.048-22.528-3.072-34.133334-1.024-10.581333-2.048-21.504-3.413334-32.085333-1.706667-10.581333-3.754667-21.162667-7.168-31.061333-0.341333-1.365333-1.024-2.389333-1.365333-3.754667-0.341333-0.682667-1.024-1.024-1.706667-1.024-0.682667 1.024-1.365333 1.706667-1.024 2.389333z" fill="#ABE3DE" p-id="5275"></path><path d="M1061.888 719.530667c1.024-0.341333 2.048-0.341333 3.072-0.341334 1.024 0 2.048 0 3.072 0.341334 2.048 0.341333 3.754667 0.682667 5.802667 1.365333 3.754667 1.024 7.509333 2.730667 10.922666 4.437333s6.826667 3.754667 9.898667 6.144c3.413333 2.048 6.485333 4.437333 9.216 6.826667 5.802667 5.12 10.581333 10.922667 14.677333 17.408 4.437333 6.826667 7.509333 14.336 9.898667 22.186667 1.365333 4.096 2.048 8.192 2.730667 12.288 0.341333 2.048 0.682667 4.437333 1.024 6.485333 0 1.024 0.341333 2.048 0.341333 3.072v6.144c0 0.682667-0.341333 1.024-1.024 1.024-0.341333 0-1.024-0.341333-1.365333-0.682667 0-1.024-0.341333-2.048-0.341334-3.072 0-1.024-0.341333-2.389333-0.341333-3.413333 0-1.024-0.341333-2.048-0.341333-3.072v-1.365333c0-0.341333 0 0.341333 0 0V794.282667c-0.682667-4.096-1.365333-8.192-2.389334-12.288-1.024-4.096-2.389333-7.850667-4.096-11.946667 0-0.341333-0.341333-0.341333-0.341333-0.682667v-0.341333c0 0.341333 0 0 0 0-0.341333-0.341333-0.341333-1.024-0.682667-1.365333-0.341333-1.024-0.682667-1.706667-1.365333-2.730667-0.682667-1.706667-1.706667-3.413333-2.730667-4.778667-1.706667-3.072-3.754667-6.144-6.144-9.216 0 0-0.341333-0.341333 0 0v-0.341333c0-0.341333-0.341333-0.341333-0.341333-0.682667l-1.024-1.024c-1.706667-2.048-3.754667-4.096-5.802667-6.144-1.365333-1.365333-2.730667-2.389333-4.096-3.754666-0.682667-0.682667-1.365333-1.365333-2.048-1.706667 0.341333 0.341333 0 0 0 0l-0.341333-0.341333-0.341333-0.341334c-0.341333-0.341333-0.682667-0.682667-1.365334-0.682666-3.072-2.048-6.485333-4.437333-9.557333-6.144-1.706667-1.024-3.413333-2.048-5.12-2.730667-1.706667-0.682667-3.413333-1.365333-4.778667-2.048-3.413333-1.365333-7.168-2.389333-10.922666-3.072-1.024-0.341333-1.706667-0.341333-2.730667-0.682667-1.365333-0.682667-1.365333-1.706667-1.024-1.706666z" fill="#4CC89E" p-id="5276"></path><path d="M1183.402667 677.888c-1.365333 4.096-3.754667 7.850667-6.826667 11.264-2.730667 3.413333-5.802667 7.168-8.533333 10.581333-5.461333 7.509333-10.922667 15.36-15.36 23.552-2.048 3.754667-4.096 7.850667-5.802667 11.946667-1.706667 4.096-3.072 8.192-4.096 12.629333-2.048 8.533333-3.754667 17.408-5.461333 25.941334-1.706667 9.557333-3.754667 18.773333-3.754667 28.330666v3.754667c0 0.682667-0.682667 1.365333-1.365333 1.365333s-1.365333-0.682667-1.365334-1.365333c-0.682667-9.898667 1.024-19.797333 3.072-29.354667 1.706667-8.533333 3.072-17.408 5.12-25.941333 1.024-4.096 2.048-8.533333 3.754667-12.629333 1.365333-4.096 3.413333-8.192 5.461333-12.288 4.437333-8.192 9.557333-16.384 15.018667-23.893334 2.730667-3.754667 5.802667-7.509333 8.533333-11.264 2.730667-3.413333 5.461333-6.485333 7.509334-10.581333l1.024-3.072c0.682667-1.365333 3.413333-0.682667 3.072 1.024z" fill="#4CC89E" p-id="5277"></path><path d="M1207.296 702.122667c-6.826667 5.802667-13.653333 11.946667-20.48 18.090666-3.413333 3.072-6.826667 6.144-9.898667 9.216-3.072 2.730667-5.802667 5.461333-8.533333 8.874667-4.778667 5.802667-8.874667 12.629333-12.629333 19.456-3.754667 7.168-7.850667 14.336-10.922667 21.845333-3.413333 7.509333-6.144 15.36-7.850667 23.210667-0.341333 1.024-0.341333 2.048-0.682666 3.072 0 0.682667-1.024 1.024-1.706667 1.024-0.682667-0.341333-1.024-1.024-1.024-1.706667 1.706667-8.192 4.096-16.042667 7.509333-23.893333s6.826667-15.018667 10.922667-22.528c3.754667-6.826667 7.509333-13.653333 12.288-19.797333 2.389333-3.072 5.12-6.144 8.192-9.216 3.072-3.072 6.485333-6.144 9.898667-9.216 6.826667-6.144 13.653333-12.288 20.48-18.090667 1.024-0.682667 1.706667-1.365333 2.730666-2.389333 0.682667-0.341333 1.365333-0.682667 2.048 0 0 0.682667 0 1.706667-0.341333 2.048z" fill="#ABE3DE" p-id="5278"></path><path d="M1134.250667 803.498667c2.048-4.096 4.437333-8.192 7.168-12.288 2.730667-3.754667 5.461333-7.509333 8.874666-10.922667 2.048-1.706667 4.096-3.413333 6.485334-5.12 0.682667-0.341333 1.706667 0 1.706666 0.341333 0.341333 0.682667 0 1.365333-0.341333 1.706667-2.048 1.365333-3.413333 2.389333-5.12 4.096-1.706667 1.365333-3.413333 3.072-4.778667 4.778667-0.682667 1.024-1.365333 1.706667-2.048 2.730666-0.682667 1.024-1.365333 2.048-2.048 2.730667-1.365333 2.048-2.389333 3.754667-3.754666 5.802667-1.365333 2.389333-2.730667 4.437333-3.754667 6.826666-0.341333 0.682667-1.365333 1.024-1.706667 0.341334-0.682667 0.682667-1.024-0.341333-0.682666-1.024zM1064.618667 725.674667s11.264-4.096 6.485333-14.336c0 0-5.12-15.36-37.546667-34.133334l-0.341333 3.754667s-2.389333-4.437333-6.826667-7.509333c0 0-3.072 1.024 10.581334 18.090666-0.341333 0.341333 23.210667 34.816 27.648 34.133334z" fill="#4CC89E" p-id="5279"></path><path d="M1150.634667 697.344c-1.024 3.072-2.048 6.485333-2.730667 9.898667-1.024 3.413333-1.706667 6.485333-2.730667 9.898666-1.706667 6.485333-3.072 13.312-4.096 19.797334-1.024 6.826667-2.048 13.653333-2.389333 20.48 0 3.413333 0 6.826667-0.341333 10.581333 0 3.413333-0.682667 6.826667-1.024 10.581333-0.682667 7.168-1.365333 13.994667-1.706667 21.162667 0 0.682667 0 1.706667-0.341333 2.730667 0 1.024-1.365333 1.024-1.365334 0 0-7.168 0.682667-13.994667 1.365334-21.162667 0.341333-3.413333 0.682667-7.168 1.024-10.581333 0.341333-3.413333 0.341333-6.826667 0.341333-10.581334 0-3.413333 0.341333-7.168 0.682667-10.581333s1.024-6.826667 1.365333-10.24c1.024-6.826667 2.389333-13.312 4.096-20.138667 1.706667-6.485333 3.754667-12.970667 6.144-19.456 0.341333-0.682667 0.682667-1.706667 0.682667-2.389333 0.682667-0.682667 1.024-0.341333 1.024 0z" fill="#4CC89E" p-id="5280"></path><path d="M1096.362667 567.978667s-5.461333 7.509333-4.437334 11.264l4.437334 5.802666-5.12-3.754666s-4.096 27.648 5.802666 45.738666c10.24 18.090667 20.138667 16.725333 20.138667 16.725334s6.826667-0.682667 7.509333 2.730666c0.682667 3.072 16.725333-4.778667 16.384-14.336-0.341333-9.557333-14.677333-48.469333-33.792-58.368l-1.024 3.413334-0.341333-4.778667c0-1.024-8.192-5.461333-9.557333-4.437333zM1240.405333 666.965333s4.096-3.072 3.413334 3.072c-0.341333 5.802667-0.682667 8.533333-0.682667 8.533334l-3.754667 1.706666h3.413334s-9.557333 25.6-27.989334 32.768c0 0-12.288 6.826667-22.528-1.706666 0 0-8.874667-11.605333-2.048-20.138667 0 0 17.749333-21.162667 40.277334-25.941333l0.341333 2.048 3.072-2.048c-0.341333 0 7.168-3.413333 6.485333 1.706666z" fill="#ABE3DE" p-id="5281"></path><path d="M1198.421333 757.76c0-0.341333-5.12-4.778667-26.965333-1.365333-1.706667 0.341333-3.072 0.682667-4.437333 1.706666-3.413333 2.389333-10.24 7.168-11.264 14.677334 0 0-2.048 6.485333 8.533333 6.144s33.792-18.090667 34.133333-21.162667z" fill="#4CC89E" p-id="5282"></path><path d="M1239.381333 672.426667c-0.341333 0-0.682667 0.341333-1.024 0.341333 0 0 0.341333 0 0.341334-0.341333-0.682667 0.341333-1.024 0.682667-1.706667 1.024l0.341333-0.341334c-0.341333 0.341333-1.024 0.682667-1.365333 1.365334l0.341333-0.341334c-0.341333 0.341333-0.341333 0.682667-0.682666 1.024l-1.024 1.024c-0.341333 0-1.024 0-1.365334-0.341333-1.024-0.682667-1.365333-1.706667-0.682666-2.730667 1.365333-2.048 3.413333-3.754667 5.802666-4.437333 0.341333 0 1.024 0 1.365334 0.341333l1.024 1.024c0 0.341333 0 1.024-0.341334 1.365334l-1.024 1.024z" fill="#ABE3DE" p-id="5283"></path><path d="M459.776 139.946667m-79.189333 0a79.189333 79.189333 0 1 0 158.378666 0 79.189333 79.189333 0 1 0-158.378666 0Z" fill="#4CC89E" p-id="5284"></path><path d="M468.309333 120.149333c0-5.12-3.754667-7.850667-8.192-7.850666-2.730667 0-5.12 0.682667-7.168 2.389333-3.072 2.048-6.826667 1.365333-9.557333-1.024-3.754667-3.413333-3.413333-9.557333 1.024-12.288 5.12-3.413333 11.605333-5.802667 18.432-5.802667 14.336 0 25.6 6.826667 25.6 22.869334 0 13.994667-14.677333 19.456-17.749333 30.378666-1.024 3.413333-3.754667 5.802667-7.509334 5.802667h-2.730666c-5.461333 0-9.216-5.12-7.509334-10.24 3.754667-10.581333 15.36-16.725333 15.36-24.234667z m-19.797333 53.248c0.682667-5.461333 4.096-9.898667 9.557333-10.922666 9.216-2.048 16.042667 4.778667 14.677334 14.336-0.682667 5.461333-4.437333 9.557333-9.557334 10.581333-8.874667 2.048-15.701333-4.778667-14.677333-13.994667z" fill="#FFFFFF" p-id="5285"></path><path d="M321.194667 262.826667m-41.301334 0a41.301333 41.301333 0 1 0 82.602667 0 41.301333 41.301333 0 1 0-82.602667 0Z" fill="#4CC89E" p-id="5286"></path><path d="M325.632 252.586667c0-2.730667-2.048-4.096-4.437333-4.096-1.365333 0-2.730667 0.341333-3.754667 1.024-1.706667 1.024-3.754667 1.024-5.12-0.341334-2.048-1.706667-1.706667-4.778667 0.341333-6.144 2.730667-2.048 6.144-3.072 9.557334-3.072 7.509333 0 13.312 3.754667 13.312 11.946667 0 7.168-7.509333 9.898667-9.216 15.701333-0.682667 1.706667-2.048 3.072-4.096 3.072H320.853333c-2.730667 0-4.778667-2.730667-4.096-5.12 2.730667-5.802667 8.874667-9.216 8.874667-12.970666z m-10.24 29.354666c-0.341333-4.096 2.389333-7.509333 6.144-7.509333 3.413333 0 6.144 2.730667 6.485333 6.144 0.341333 4.096-2.389333 7.509333-6.485333 7.509333-3.072-0.341333-5.802667-2.730667-6.144-6.144z" fill="#FFFFFF" p-id="5287"></path></svg>